<svg width="49" height="15" fill="none" xmlns="http://www.w3.org/2000/svg"><g clip-path="url(#a)" fill-rule="evenodd" clip-rule="evenodd"><path d="M43.5.5h-9.3c.5 3.1 3.5 6 6.8 6h7.4c.1-.3.1-.7.1-1 0-2.8-2.2-5-5-5Z" fill="url(#b)"/><path d="M35 7v7.5h4.5v-4h4c2.2 0 4.1-1.5 4.7-3.5H35ZM19 .5v14h4s1 0 1.5-1l3.5-7h.5v8H33V.5h-4s-1 .1-1.5 1l-3.5 7h-.5v-8H19Zm-19 14V.5h4.5s1.3 0 2 2c1.8 5.3 2 6 2 6s.4-1.3 2-6c.7-2 2-2 2-2H17v14h-4.5V7H12l-2.5 7.5h-2L5 7h-.5v7.5H0Z" fill="#4DB45F"/></g><defs><linearGradient id="b" x1="34.174" y1="3.5" x2="48.5" y2="3.5" gradientUnits="userSpaceOnUse"><stop stop-color="#00B4E6"/><stop offset="1" stop-color="#088CCB"/></linearGradient><clipPath id="a"><path fill="#fff" transform="translate(0 .5)" d="M0 0h49v14H0z"/></clipPath></defs></svg>