<svg width="30" height="19" fill="none" xmlns="http://www.w3.org/2000/svg"><g clip-path="url(#a)"><path d="M18.916 2.687h-7.854v13.627h7.854V2.687Z" fill="#FF5F00"/><path d="M11.562 9.5c0-1.315.308-2.612.9-3.787a8.715 8.715 0 0 1 2.528-3.026A9.153 9.153 0 0 0 10.4.884a9.257 9.257 0 0 0-4.88.822 8.876 8.876 0 0 0-3.685 3.197A8.447 8.447 0 0 0 .467 9.5c0 1.626.474 3.22 1.368 4.598a8.877 8.877 0 0 0 3.685 3.197 9.256 9.256 0 0 0 4.88.822 9.152 9.152 0 0 0 4.59-1.803 8.715 8.715 0 0 1-2.527-3.025 8.405 8.405 0 0 1-.901-3.79Z" fill="#EB001B"/><path d="M29.512 9.5a8.45 8.45 0 0 1-1.367 4.598 8.875 8.875 0 0 1-3.686 3.197 9.255 9.255 0 0 1-4.88.822 9.152 9.152 0 0 1-4.59-1.803 8.732 8.732 0 0 0 2.526-3.026 8.424 8.424 0 0 0 .903-3.788c0-1.316-.31-2.613-.902-3.787a8.733 8.733 0 0 0-2.526-3.027A9.153 9.153 0 0 1 19.578.883a9.257 9.257 0 0 1 4.881.822 8.876 8.876 0 0 1 3.686 3.197A8.448 8.448 0 0 1 29.512 9.5Zm-.856 5.373v-.28h.116v-.056h-.296v.056h.116v.28h.064Zm.576 0v-.337h-.09l-.106.232-.105-.232h-.09v.337h.064v-.254l.098.219h.067l.098-.22v.255h.064Z" fill="#F79E1B"/></g><defs><clipPath id="a"><path fill="#fff" transform="translate(0 .5)" d="M0 0h30v18H0z"/></clipPath></defs></svg>