<svg width="51" height="17" fill="none" xmlns="http://www.w3.org/2000/svg"><g clip-path="url(#a)" fill="#0085F3"><path d="m20.42.911-2.59 15.21h4.144L24.568.911h-4.147Zm-6.067.017-4.06 10.373-.433-1.566c-.8-1.887-3.074-4.598-5.742-6.306L7.83 16.114l4.386-.008 6.53-15.18-4.393.002Z"/><path d="M8.286 2.017C8.046 1.09 7.347.814 6.48.781H.053L0 1.084c5.001 1.213 8.31 4.137 9.684 7.652L8.286 2.017Zm24.684 1.81a7.653 7.653 0 0 1 3.102.582l.374.176.561-3.296C36.187.98 34.9.65 33.294.65c-4.096 0-6.984 2.064-7.006 5.02-.027 2.185 2.057 3.405 3.63 4.133 1.616.746 2.157 1.22 2.15 1.887-.013 1.018-1.288 1.485-2.48 1.485-1.66 0-2.541-.229-3.902-.796l-.535-.243-.583 3.404c.97.426 2.76.791 4.619.81 4.357 0 7.19-2.038 7.219-5.197.018-1.728-1.087-3.047-3.483-4.13-1.45-.705-2.337-1.174-2.329-1.887 0-.632.753-1.308 2.376-1.308ZM47.646.928h-3.203c-.995 0-1.735.271-2.172 1.263l-6.155 13.94h4.353s.71-1.875.871-2.286l5.309.006c.123.531.505 2.28.505 2.28H51L47.646.927Zm-5.113 9.804c.341-.873 1.652-4.25 1.652-4.25-.023.041.338-.88.552-1.453l.28 1.311.96 4.392h-3.444Z"/></g><defs><clipPath id="a"><path fill="#fff" d="M0 0h51v17H0z"/></clipPath></defs></svg>