<svg width="22" height="22" viewBox="0 0 22 22" fill="none" xmlns="http://www.w3.org/2000/svg">
<path fill-rule="evenodd" clip-rule="evenodd" d="M18.5868 4.79124L6.1333 14.9097V18.119L7.39814 16.2617C7.67724 15.8519 8.24645 15.7669 8.63302 16.0775L10.8318 17.8438L18.5868 4.79124ZM20.4744 1.32484C21.2113 0.726176 22.2261 1.60251 21.7412 2.41871L11.7391 19.2535C11.4751 19.6978 10.8789 19.8057 10.476 19.482L8.24201 17.6874L6.18586 20.7067C5.71491 21.3982 4.6333 21.0649 4.6333 20.2282V14.6003C4.6333 14.3444 4.74864 14.102 4.9473 13.9406L20.4744 1.32484Z" fill="#5397FD"/>
<path fill-rule="evenodd" clip-rule="evenodd" d="M16.9371 4.45532L2.74188 11.0798L5.68583 13.6609L16.9371 4.45532ZM6.83643 14.6576L11.1749 18.3836L18.5853 5.04486L6.83643 14.6576ZM21.421 2.36282C21.4204 2.36313 21.4197 2.36343 21.4191 2.36374L21.421 2.36282ZM20.7867 1.00354C21.5333 0.655115 22.2893 1.46631 21.8892 2.18659L12.0988 19.8093C11.8367 20.2811 11.2069 20.3923 10.7991 20.0388L10.7014 19.9541L10.6988 19.9519L5.1746 15.2076L1.00412 11.551C0.542692 11.1465 0.648913 10.4012 1.20504 10.1417L20.7867 1.00354Z" fill="#5397FD"/>
</svg>
