<svg width="150" height="90" viewBox="0 0 150 90" fill="none" xmlns="http://www.w3.org/2000/svg">
<g clip-path="url(#clip0_366_6742)">
<path d="M73.4593 75.2668C70.1135 77.9605 64.1625 78.3829 61.3598 78.3284C61.08 81.3885 61.0634 84.4669 61.3101 87.5297C71.6111 90.2645 88.1482 89.8982 97.6961 87.4374C97.8011 84.7982 97.6961 81.5819 97.6417 78.5874C91.4727 79.0682 78.583 76.534 73.4593 75.2668Z" fill="#5397FD"/>
<path d="M51.6772 81.5234C48.8106 83.5326 35.1993 82.5568 30.7656 81.8787C30.7909 83.4576 30.8706 84.6418 31.0293 86.4126C38.7164 88.5537 53.1117 88.316 59.924 86.4126C59.9785 83.9281 60.2967 79.7542 60.2967 78.2811C58.2974 78.0836 56.3592 77.4817 54.5998 76.5118C54.5198 77.5129 54.2155 78.4831 53.7096 79.3507C53.2037 80.2182 52.5091 80.9608 51.6772 81.5234Z" fill="#5397FD"/>
<path d="M102.832 76.5339C101.672 77.5233 100.304 78.2381 98.8291 78.6253C98.9499 80.9629 98.8709 82.0334 98.9128 85.9571C103.492 87.341 115.868 86.9045 121.729 85.7558V81.4776C114.124 80.7332 103.785 80.4987 102.832 76.5339Z" fill="#5397FD"/>
<path d="M45.9017 55.2497C45.9404 54.945 46.4291 54.8739 46.4251 55.1834C46.2621 59.6215 45.0935 63.9646 43.0075 67.8853C45.5813 68.8461 48.1027 69.9418 50.5612 71.1679C47.5209 58.9808 55.4465 48.6379 59.7246 45.6561C58.658 44.6226 56.0986 43.4558 52.7528 43.3421C49.407 43.2284 44.7057 45.2242 42.297 47.8382C42.5673 46.3852 43.233 45.0349 44.2209 43.9358C33.0451 45.1903 27.972 48.6284 24.563 50.7253C24.5266 55.0285 24.7779 59.3295 25.3154 63.5992C27.147 63.6631 28.9807 63.5974 30.803 63.4026C31.8404 59.6384 33.8315 53.5745 36.5204 50.4955C36.7209 50.2658 37.013 50.4166 36.8425 50.7047C34.6067 54.4271 30.8236 62.6329 30.5433 70.2987C32.517 70.3405 40.1046 69.525 42.1999 67.8268C44.1817 63.8918 45.4359 59.6309 45.9017 55.2497Z" fill="#5397FD"/>
<path d="M50.8994 66.919C53.4092 66.1706 58.2265 64.3137 63.4465 62.5816C63.707 59.7666 64.5533 57.0371 65.931 54.5685C66.111 54.3095 66.4623 54.454 66.3486 54.7777C65.3624 57.1804 64.6946 59.7018 64.3623 62.2777C70.3094 60.3498 76.6544 58.6658 80.7281 58.9903C87.261 59.5098 90.272 61.3027 91.2549 63.7619C91.2465 61.1204 90.7765 58.5008 89.8663 56.0211C89.8504 55.9676 89.8534 55.9103 89.8748 55.8588C89.8961 55.8073 89.9346 55.7647 89.9836 55.7381C90.0326 55.7116 90.0893 55.7027 90.1441 55.713C90.1989 55.7232 90.2486 55.752 90.2847 55.7945C91.1839 57.0956 91.9576 61.1898 92.1328 64.6532C96.9257 64.7621 104.449 65.6313 105.889 66.8637C105.652 56.5627 101.585 43.2506 85.1026 40.8206C83.534 43.2138 81.5677 45.3213 79.2889 47.0519C76.5902 45.7274 74.2655 43.7493 72.5263 41.2974C63.3668 42.1429 51.0581 49.9177 50.8994 66.919Z" fill="#5397FD"/>
<path d="M116.88 52.6026C114.764 50.344 108.419 46.3295 105.923 45.84C104.026 46.3883 102.241 47.2705 100.653 48.4453C107.219 56.145 107.842 67.7132 105.923 72.4145C107.454 71.2808 109.056 70.3437 113.204 69.3655C111.404 65.6328 110.126 61.6698 109.407 57.5882C109.37 57.2242 109.822 57.1287 109.9 57.4918C110.824 61.7045 112.247 65.7917 114.141 69.6663C114.378 70.5032 121.201 71.4561 122.309 71.6234C123.426 64.4511 126.44 58.8434 121.473 51.8913C121.269 51.6063 121.63 51.3647 121.858 51.6158C124.542 54.5866 125.157 58.9342 124.858 62.7861C126.082 63.1616 127.326 63.4689 128.584 63.7066C129.459 60.0461 130.134 56.3406 130.604 52.6066C127.635 50.0676 120.383 46.3334 115.999 45.4966C116.912 47.7468 117.216 50.1977 116.88 52.6026Z" fill="#5397FD"/>
<path d="M115.312 16.1495C116.151 15.1603 118.658 10.8213 118.893 9.48237C118.951 9.14843 118.445 8.89343 118.273 9.2029C117.128 11.269 115.768 13.6966 114.701 15.769C114.51 16.1416 115.049 16.4597 115.312 16.1495Z" fill="#5397FD"/>
<path d="M58.5538 12.1089C58.6564 12.5266 59.2248 12.3055 59.2225 11.9463C59.2106 9.93474 56.8856 4.71395 55.7369 3.12553C55.6841 3.05712 55.6087 3.00974 55.5241 2.99189C55.4395 2.97403 55.3513 2.98687 55.2754 3.02808C55.1994 3.0693 55.1406 3.13622 55.1094 3.21685C55.0783 3.29748 55.0768 3.38657 55.1054 3.46816C55.5672 5.28395 57.4383 7.57895 58.5538 12.1089Z" fill="#5397FD"/>
<path d="M39.7535 14.3684C39.9738 14.6581 40.5185 14.4355 40.3559 14.0629C39.3668 12.0804 38.1887 10.198 36.838 8.44181C36.5909 8.17892 36.1054 8.51366 36.253 8.83655C37.2802 10.7652 38.4503 12.6143 39.7535 14.3684Z" fill="#5397FD"/>
<path d="M78.0793 8.98505C78.204 6.27308 78.1354 3.55569 77.8741 0.853468C77.8196 0.514783 77.2812 0.435836 77.2346 0.82031C77.0505 3.56087 77.0811 6.31163 77.3262 9.04741C77.3688 9.54636 78.0636 9.45794 78.0793 8.98505Z" fill="#5397FD"/>
<path d="M96.8176 12.724C97.6418 10.4345 98.9799 6.19425 99.5697 3.84951C99.6565 3.50214 99.1702 3.1832 98.9626 3.54398C97.5982 6.41005 96.6438 9.45383 96.1276 12.5858C96.1225 12.6714 96.1486 12.7559 96.2009 12.8237C96.2533 12.8916 96.3284 12.9382 96.4125 12.9551C96.4965 12.9719 96.5838 12.9578 96.6582 12.9153C96.7327 12.8728 96.7893 12.8049 96.8176 12.724Z" fill="#5397FD"/>
<path d="M26.5841 22.5861C25.2953 20.8993 23.6918 19.4783 21.8622 18.4018C21.7853 18.3769 21.7021 18.38 21.6272 18.4105C21.5523 18.4409 21.4905 18.4968 21.4528 18.5683C21.415 18.6398 21.4038 18.7223 21.4209 18.8014C21.438 18.8804 21.4825 18.9508 21.5464 19.0003C23.0851 20.3842 24.5314 21.54 26.0464 23.0195C26.1071 23.0798 26.1879 23.1157 26.2733 23.1201C26.3588 23.1246 26.4428 23.0974 26.5095 23.0437C26.5761 22.99 26.6205 22.9136 26.6343 22.8291C26.6481 22.7447 26.6302 22.6581 26.5841 22.5861Z" fill="#5397FD"/>
<path d="M147.219 41.2224C145.432 41.8498 143.702 42.6263 142.045 43.5434C141.681 43.7732 141.899 44.4766 142.338 44.2879C143.254 43.8932 146.822 42.4145 147.462 41.8405C147.678 41.6479 147.545 41.1868 147.219 41.2224Z" fill="#5397FD"/>
<path d="M149.728 58.6082C147.826 58.607 145.926 58.7623 144.049 59.0724C143.61 59.1829 143.785 59.7663 144.174 59.7963C146.044 59.7722 147.909 59.6059 149.754 59.299C149.827 59.274 149.89 59.226 149.935 59.1621C149.979 59.0981 150.001 59.0217 149.998 58.9442C149.995 58.8666 149.967 58.792 149.919 58.7315C149.87 58.6709 149.803 58.6277 149.728 58.6082Z" fill="#5397FD"/>
<path d="M137.211 19.9974C135.815 21.2533 134.625 22.7209 133.685 24.3466C133.645 24.4333 133.639 24.5315 133.666 24.6229C133.693 24.7144 133.752 24.7928 133.833 24.8439C133.914 24.8949 134.01 24.915 134.104 24.9005C134.198 24.886 134.284 24.8379 134.346 24.765C135.283 23.5863 136.931 21.7216 137.692 20.5074C137.864 20.2263 137.512 19.8047 137.211 19.9974Z" fill="#5397FD"/>
<path d="M6.73777 64.6477C4.93552 64.3182 3.10148 64.1961 1.27146 64.2837C0.908299 64.3263 0.853036 64.8948 1.23435 64.9445C3.04865 65.1628 4.87341 65.2829 6.70067 65.3045C7.1104 65.3132 7.08435 64.7582 6.73777 64.6477Z" fill="#5397FD"/>
<path d="M4.72224 31.515C4.64291 31.4881 4.55654 31.4903 4.47873 31.5214C4.40092 31.5525 4.33679 31.6104 4.29791 31.6847C4.25904 31.7589 4.24797 31.8446 4.26672 31.9262C4.28546 32.0079 4.33278 32.0802 4.40014 32.13C5.7959 33.0503 7.25989 33.8627 8.77935 34.56C8.86374 34.5929 8.95727 34.5934 9.04205 34.5616C9.12683 34.5298 9.1969 34.4678 9.23883 34.3876C9.28077 34.3073 9.29163 34.2144 9.26934 34.1266C9.24706 34.0389 9.19318 33.9624 9.11803 33.9119C7.76146 32.928 6.2841 32.1225 4.72224 31.515Z" fill="#5397FD"/>
<path d="M6.27384 49.6247C4.30015 49.2987 2.32647 48.9458 0.34805 48.6379C-0.0245817 48.5795 -0.141424 49.1479 0.213839 49.2695C2.17424 49.8244 4.1868 50.1749 6.21937 50.3155C6.30575 50.3138 6.38841 50.28 6.45128 50.2208C6.51415 50.1615 6.55272 50.0809 6.55952 49.9948C6.56631 49.9087 6.54083 49.8231 6.48803 49.7547C6.43523 49.6863 6.35889 49.64 6.27384 49.6247Z" fill="#5397FD"/>
<path d="M73.5052 22.5481C73.9421 22.2061 74.4767 22.0125 75.0312 21.9955C75.8207 21.9166 75.6841 21.3758 75.5049 21.251C75.0052 20.8974 73.4799 21.401 73.1294 22.0405C72.8681 22.5142 73.2676 22.7368 73.5052 22.5481Z" fill="white"/>
<path d="M81.3159 21.7958C81.9611 21.6664 82.6304 21.7349 83.2359 21.9924C83.2991 22.022 83.3715 22.0255 83.4372 22.0021C83.503 21.9788 83.5569 21.9305 83.5873 21.8676C83.8336 21.3521 82.2523 20.6376 81.0775 20.9842C80.3749 21.1911 80.3054 21.9742 81.3159 21.7958Z" fill="white"/>
<path d="M77.294 31.1684C78.5721 33.9718 83.0453 32.4939 82.0032 29.0226C81.8611 28.6839 81.4332 28.8118 81.3219 28.9097C80.4257 29.7115 79.2853 30.1874 78.085 30.2605C77.4321 30.3355 76.9474 30.4066 77.294 31.1684ZM81.4435 29.6629C81.5276 30.1002 81.4529 30.5532 81.2327 30.9403C81.0126 31.3274 80.6615 31.6232 80.2427 31.7744C79.8238 31.9257 79.3647 31.9225 78.9481 31.7653C78.5314 31.6082 78.1845 31.3075 77.9698 30.9174C79.2355 30.9001 80.4588 30.4583 81.4435 29.6629Z" fill="white"/>
<path d="M79.2727 28.5497C79.4567 28.3492 79.3272 27.9482 78.9009 28.1613C78.5248 28.2983 78.1187 28.3315 77.7253 28.2576C77.0985 28.1408 77.2682 28.6682 77.7253 28.8426C77.9846 28.9446 78.2675 28.9713 78.5413 28.9195C78.8151 28.8676 79.0686 28.7395 79.2727 28.5497Z" fill="white"/>
<path d="M85.0192 25.38C84.9642 25.4305 84.9288 25.4988 84.9194 25.5728C84.9099 25.6468 84.927 25.7218 84.9676 25.7845C85.0082 25.8471 85.0697 25.8934 85.1411 25.915C85.2126 25.9366 85.2894 25.9322 85.3579 25.9026C85.462 25.8527 85.5754 25.8249 85.6908 25.821C85.8063 25.8171 85.9213 25.8372 86.0286 25.88C86.1359 25.9228 86.2331 25.9874 86.3141 26.0697C86.3952 26.152 86.4583 26.2502 86.4995 26.3582C86.9179 27.2368 86.2626 29.4916 85.8726 29.9013C85.3666 30.4326 84.731 29.9968 84.6173 29.9676C84.6841 29.4039 84.7204 28.8371 84.7263 28.2695C84.731 27.8747 84.2179 27.7958 84.1997 28.1984C84.0939 30.5621 83.5373 33.2732 81.3008 34.56C80.3031 35.0294 79.1991 35.2271 78.1005 35.1332C77.002 35.0392 75.9476 34.6568 75.0442 34.0247C73.3713 32.6195 73.4226 30.2621 72.9529 29.13C72.8439 28.8663 72.5052 28.9413 72.4847 29.2342C72.4554 29.7127 72.5047 30.1927 72.6308 30.6553C72.203 30.7538 71.7539 30.692 71.3687 30.4816C70.9834 30.2712 70.6886 29.9268 70.5402 29.5137C70.23 28.8032 70.0547 26.7568 70.7613 26.6905C71.0771 26.6613 71.1797 26.1805 70.8284 26.1095C69.03 25.7432 68.9747 29.9708 71.0123 31.1779C71.2824 31.3401 71.5828 31.4454 71.8951 31.4872C72.2074 31.529 72.5249 31.5065 72.8281 31.4211C73.0732 32.5983 73.6546 33.6791 74.5018 34.5324C74.3226 36.7374 74.0076 38.9274 73.6271 41.1071C73.6078 41.1899 73.6216 41.2768 73.6654 41.3496C73.7092 41.4224 73.7796 41.4753 73.8617 41.4971C73.9438 41.5188 74.0312 41.5078 74.1053 41.4662C74.1794 41.4247 74.2344 41.3559 74.2587 41.2745C74.7386 39.2472 75.0815 37.1899 75.285 35.1166C76.2554 35.6318 77.3326 35.9137 78.4311 35.9397C79.5295 35.9658 80.6189 35.7353 81.6126 35.2666C82.3703 34.7691 83.0153 34.1182 83.5059 33.3561C83.9966 32.5939 84.3219 31.7373 84.461 30.8416C85.5442 31.3271 86.5137 30.7839 86.9329 29.5871C88.3689 25.4503 85.9958 24.5242 85.0192 25.38Z" fill="white"/>
<path d="M81.5566 36.375C81.7559 37.9208 82.1361 39.4378 82.6895 40.8947C82.7335 40.98 82.8055 41.0476 82.8934 41.0861C82.9813 41.1246 83.0798 41.1317 83.1723 41.1063C83.2648 41.0808 83.3458 41.0243 83.4016 40.9463C83.4575 40.8683 83.4848 40.7734 83.479 40.6776C82.973 39.2359 82.5541 37.7651 82.2245 36.2732C82.0824 35.6361 81.5653 35.7268 81.5566 36.375Z" fill="white"/>
<path d="M45.454 40.7542C45.4264 41.7371 45.3585 42.7153 45.3625 43.6816C45.3625 43.9492 45.893 44.0621 46.0193 43.6816C46.1062 43.4179 46.3627 40.5884 46.1488 40.2442C46.0548 40.0918 45.4809 39.8092 45.454 40.7542Z" fill="white"/>
<path d="M44.5547 33.6063C44.4244 33.2763 43.5552 33.8487 43.3002 33.7153C43.0452 33.5818 43.2315 30.9924 42.8818 31.1345C42.4618 31.3058 42.3055 33.8187 42.7942 34.2339C43.2181 34.5971 44.7497 34.0966 44.5547 33.6063Z" fill="white"/>
<path d="M45.1444 35.6179C47.0605 35.1118 47.6565 34.4842 47.5129 33.5274C47.4339 32.9913 46.7976 32.7616 46.7897 33.6853C46.7834 34.4005 45.8739 34.6974 44.9407 35.0818C44.6052 35.246 44.5129 35.7853 45.1444 35.6179Z" fill="white"/>
<path d="M49.2051 37.7889C49.4474 37.5631 49.1301 37.1328 48.8372 37.2615C47.5416 37.8331 45.684 39.4847 43.7056 39.0686C42.849 38.8878 42.4495 38.0486 42.1708 37.3081C41.8183 36.3547 41.5388 35.3758 41.3348 34.3799C41.2622 34.0365 40.7119 34.1707 40.7403 34.5094C40.884 36.1823 41.4864 39.3252 43.359 39.8589C44.8661 40.2852 46.5808 39.5147 47.8716 38.7536C48.3497 38.4813 48.7968 38.1578 49.2051 37.7889Z" fill="white"/>
<path d="M40.1053 28.5497C40.0966 28.1068 40.1053 26.9274 39.6576 26.9353C39.1263 26.9455 39.4524 28.7676 39.5234 29.115C39.5945 29.4624 40.1282 29.7134 40.1053 28.5497Z" fill="white"/>
<path d="M46.007 27.1239C46.5715 27.1239 46.4246 26.6731 46.1033 26.5468C45.6296 26.3605 44.1746 26.2705 44.2086 26.9021C44.2489 27.6513 45.3628 27.1279 46.007 27.1239Z" fill="white"/>
<path d="M40.8536 28.6255C41.4109 28.2505 41.9667 28.2071 41.782 27.6924C41.5688 27.0987 40.5086 27.8605 40.3183 28.2947C40.1896 28.5884 40.4028 28.9279 40.8536 28.6255Z" fill="white"/>
<path d="M115.915 37.1408C114.999 36.9987 115.116 37.7037 116.458 37.8142C116.91 37.8513 117.029 37.4289 117.002 37.0737C116.796 34.4605 116.212 35.0211 116.266 35.4947C116.329 36.0363 116.348 36.5819 116.324 37.1266C116.312 37.2284 116.019 37.1566 115.915 37.1408Z" fill="white"/>
<path d="M114.639 42.9916C113.936 42.9126 114.22 45.3174 114.481 45.6055C114.742 45.8937 115.143 45.66 115.049 45.0616C114.914 44.175 115.057 43.0374 114.639 42.9916Z" fill="white"/>
<path d="M114.68 38.625C114.443 38.4 113.654 38.5176 113.149 37.2742C112.729 36.2336 111.664 37.4865 113.078 38.6163C113.974 39.326 115.109 39.0371 114.68 38.625Z" fill="white"/>
<path d="M120.18 31.2308C120.119 30.8542 119.714 30.9632 119.687 31.3311C119.667 31.5987 119.565 32.2137 119.876 32.2721C120.186 32.3306 120.237 31.5695 120.18 31.2308Z" fill="white"/>
<path d="M109.937 39.4871C110.958 40.8214 113.638 42.9877 115.425 42.615C117.456 42.1919 118.885 38.76 119.093 36.9308C119.144 36.4745 118.732 36.5116 118.641 36.8969C118.268 38.4758 116.967 41.4924 115.358 41.8571C113.65 42.2448 111.593 40.0627 110.384 39.0593C110.324 39.0179 110.252 38.9985 110.179 39.0043C110.107 39.0101 110.039 39.0407 109.986 39.091C109.934 39.1413 109.9 39.2082 109.891 39.2804C109.882 39.3525 109.898 39.4256 109.937 39.4871Z" fill="white"/>
<path d="M118.883 32.235C119.398 32.4774 119.502 32.0171 119.138 31.7076C118.967 31.579 118.77 31.4892 118.561 31.4444C118.351 31.3997 118.135 31.4012 117.926 31.4487C117.851 31.4642 117.784 31.506 117.737 31.5665C117.69 31.627 117.666 31.7023 117.669 31.7789C117.673 31.8555 117.704 31.9283 117.756 31.9842C117.808 32.0402 117.879 32.0756 117.955 32.0842C118.269 32.0996 118.581 32.1502 118.883 32.235Z" fill="white"/>
<path d="M115.04 31.6074C115.608 31.7605 115.877 31.1211 115.371 30.8668C115.045 30.7034 113.342 30.7532 113.497 31.3942C113.587 31.7661 114.596 31.4882 115.04 31.6074Z" fill="white"/>
<path d="M22.9786 51.6829C23.1365 52.0547 23.573 51.8242 23.4594 51.446C22.0604 46.811 19.2136 37.1305 18.972 32.1442C18.8168 31.336 18.9658 30.4989 19.3904 29.7939C20.3009 28.8805 21.5087 28.324 22.7946 28.2253C23.0788 28.2253 23.0915 27.7295 22.7946 27.7113C22.0627 27.6623 21.3289 27.7718 20.6431 28.0323C19.9574 28.2928 19.336 28.6982 18.8212 29.2208C18.0104 30.0537 18.1778 31.166 18.248 32.2824C18.5528 37.1771 21.582 48.4224 22.9786 51.6829Z" fill="white"/>
<path d="M13.9279 28.1692C13.7657 27.3634 13.8293 26.5285 14.1119 25.7566C14.2548 25.1416 13.7653 24.945 13.3966 25.4258C13.1584 25.8845 13.0251 26.3903 13.0062 26.9068C12.9874 27.4233 13.0835 27.9376 13.2877 28.4124C13.6169 28.9453 14.0163 28.7676 13.9279 28.1692Z" fill="white"/>
<path d="M11.753 29.4955C11.9416 29.5816 12.0687 29.4955 12.1082 29.2989C12.2424 28.6674 11.7309 28.0421 12.2006 26.7221C12.4982 25.8845 11.7822 25.6808 11.4561 26.3045C11.0124 27.1532 11.0061 29.1521 11.753 29.4955Z" fill="white"/>
<path d="M17.792 26.3961C17.8172 23.8113 17.8109 19.9934 17.792 16.9563C17.7864 16.095 17.1272 16.2584 17.1059 17.0029C17.023 19.9303 16.7341 23.6061 17.0388 26.4671C17.083 26.8816 17.788 26.7561 17.792 26.3961Z" fill="white"/>
<path d="M15.7847 27.7516C15.7799 26.9732 15.3726 25.8608 15.8723 25.1747C16.436 24.4018 15.371 24.1966 15.0362 25.0287C14.744 25.964 14.8001 26.9736 15.1941 27.8708C15.4184 28.2071 15.7894 28.0729 15.7847 27.7516Z" fill="white"/>
<path d="M19.2391 63.3387C20.7703 63.5726 22.3259 63.6007 23.8646 63.4224C23.9152 63.4263 23.966 63.4193 24.0137 63.402C24.0614 63.3846 24.1048 63.3572 24.141 63.3216C24.1772 63.2861 24.2054 63.2432 24.2236 63.1958C24.2419 63.1484 24.2497 63.0977 24.2467 63.0471C24.2437 62.9964 24.2299 62.947 24.2061 62.9021C24.1824 62.8573 24.1494 62.818 24.1092 62.787C24.069 62.756 24.0227 62.7339 23.9733 62.7223C23.9238 62.7107 23.8725 62.7099 23.8228 62.7198C22.1933 62.8482 20.5541 62.7625 18.947 62.4648C14.368 61.5963 14.2346 59.5176 13.2762 55.4092C11.5375 47.4297 11.0098 39.234 11.7106 31.0974C11.7604 30.679 11.117 30.679 11.0625 31.0974C10.2107 37.6098 10.7814 48.2432 12.4551 55.4921C13.6314 60.5858 13.8257 62.4703 19.2391 63.3387Z" fill="white"/>
<path d="M53.0524 76.2118C52.1279 81.285 48.1513 80.8744 43.7303 80.9676C36.5745 81.1176 29.9705 79.5726 23.3871 79.5371C21.9945 79.5292 19.8463 80.1687 17.5947 79.0223C17.0176 78.7287 16.8053 79.1344 17.4147 79.5829C19.3284 80.9897 21.8358 80.2026 23.6634 80.2981C30.6605 80.6644 36.7079 82.0421 44.1779 81.8581C48.7782 81.7452 52.8518 82.1471 53.8182 76.3705C53.8371 76.3173 53.8444 76.2607 53.8396 76.2045C53.8348 76.1482 53.8179 76.0937 53.7903 76.0445C53.7626 75.9953 53.7246 75.9526 53.6791 75.9193C53.6335 75.886 53.5813 75.8629 53.526 75.8515C53.4707 75.8401 53.4136 75.8407 53.3586 75.8532C53.3035 75.8658 53.2518 75.89 53.207 75.9242C53.1621 75.9584 53.125 76.0019 53.0984 76.0516C53.0717 76.1014 53.056 76.1555 53.0524 76.2118Z" fill="white"/>
<path d="M18.1016 74.8942C17.8332 74.7908 17.4487 74.9874 16.9174 74.6187C16.1382 74.0763 15.7877 74.5516 16.2022 75.0371C16.6195 75.4406 17.1777 75.6655 17.7582 75.664C18.6622 75.664 18.5279 75.0592 18.1016 74.8942Z" fill="white"/>
<path d="M21.9159 70.6579C21.5286 70.1733 21.2447 69.6146 21.0817 69.016C20.9188 68.4175 20.8803 67.7919 20.9685 67.1779C21.0135 66.8108 20.449 66.63 20.3203 67.0066C20.1391 67.6951 20.1132 68.4152 20.2444 69.115C20.3756 69.8147 20.6607 70.4766 21.079 71.0526C22.4006 72.9079 25.2324 72.4966 27.3988 72.345C30.1801 72.15 40.3595 71.4111 42.5803 69.6853C42.8559 69.4713 42.6261 68.8958 42.2835 69.0371C38.0203 70.759 33.6103 71.0684 27.6451 71.4916C25.1369 71.6724 22.9445 71.8887 21.9159 70.6579Z" fill="white"/>
<path d="M19.6574 71.5902C16.4072 71.5784 13.2832 71.2184 10.1048 71.1726C10.02 71.1621 9.93452 71.1858 9.86715 71.2383C9.79979 71.2909 9.75606 71.3681 9.74559 71.4529C9.73512 71.5377 9.75877 71.6232 9.81133 71.6905C9.86389 71.7579 9.94106 71.8016 10.0259 71.8121C12.0469 72.0971 17.4911 72.461 19.7206 72.4689C20.2551 72.4737 20.2053 71.5926 19.6574 71.5902Z" fill="white"/>
<path d="M18.3275 77.8847C18.9867 77.7537 18.9409 77.0061 18.2856 77.0732C17.8834 77.1169 17.4772 77.0446 17.1148 76.8647C16.5961 76.605 16.3151 77.25 17.0603 77.6755C17.4438 77.8953 17.8937 77.9696 18.3275 77.8847Z" fill="white"/>
<path d="M129.465 74.464C130.987 74.6218 132.679 74.9187 133.58 73.7147C134.381 72.6434 134.299 71.0842 133.773 71.1387C133.246 71.1932 133.864 72.2558 133.003 73.1503C132.142 74.0447 130.912 73.7976 129.598 73.6524C125.985 73.2521 116.137 72.1721 113.17 70.2016C112.944 70.0516 112.372 70.3145 112.878 70.8253C114.811 72.7769 125.955 74.1032 129.465 74.464Z" fill="white"/>
<path d="M137.842 78.0142C137.466 78.1437 137.352 78.6119 136.327 78.6924C135.428 78.7627 135.663 79.4669 136.537 79.3864C136.88 79.391 137.216 79.2926 137.502 79.104C137.789 78.9155 138.012 78.6453 138.143 78.3285C138.158 78.2859 138.161 78.24 138.152 78.1959C138.142 78.1517 138.12 78.1111 138.089 78.0786C138.058 78.046 138.018 78.0227 137.974 78.0114C137.931 78 137.885 78.001 137.842 78.0142Z" fill="white"/>
<path d="M136.596 79.8718C135.412 80.4837 134.401 80.3534 132.614 80.2895C127.697 80.1142 119.043 79.6579 114.262 78.9474C111.164 78.4816 105.911 78.4113 104.125 75.5526C103.925 75.2368 103.471 75.4737 103.572 75.8495C104.402 78.9339 110.394 79.3389 113.046 79.676C121.314 80.7292 129.88 80.9755 132.528 81.0395C133.598 81.0655 136.358 81.3955 136.949 80.2784C137.098 80.0305 136.905 79.7116 136.596 79.8718Z" fill="white"/>
<path d="M138.34 76.4921C138.005 76.9105 137.274 76.9658 136.897 77.0526C136.437 77.1584 136.497 77.6621 136.943 77.7261C137.3 77.7722 137.663 77.7185 137.992 77.5708C138.32 77.423 138.602 77.1871 138.804 76.8892C139.134 76.3287 138.813 75.8992 138.34 76.4921Z" fill="white"/>
<path d="M142.865 74.4553C141.251 74.3763 136.487 74.5074 134.919 74.5097C134.834 74.5155 134.756 74.5531 134.698 74.6148C134.64 74.6765 134.608 74.7577 134.608 74.8421C134.608 74.9265 134.64 75.0077 134.698 75.0694C134.756 75.1311 134.834 75.1687 134.919 75.1745C137.569 75.3419 140.228 75.2719 142.865 74.9652C143.308 74.8768 143.199 74.4726 142.865 74.4553Z" fill="white"/>
<path d="M133.421 33.7026C133.324 33.1373 133.448 32.5561 133.769 32.0803C133.815 32.032 133.847 31.9713 133.859 31.9054C133.872 31.8396 133.864 31.7716 133.839 31.7097C133.813 31.6479 133.77 31.5949 133.714 31.5574C133.659 31.5198 133.593 31.4993 133.526 31.4984C132.48 31.5568 132.727 33.5897 132.769 33.7089C132.919 34.1337 133.421 34.1416 133.421 33.7026Z" fill="white"/>
<path d="M127.245 36.6316C128.084 36.5151 128.935 36.5151 129.775 36.6316C131.319 36.8684 131.212 37.886 131.31 39.1413C131.747 44.5445 131.607 49.9789 130.891 55.3524C130.849 55.6681 131.359 55.826 131.464 55.4818C132.643 51.6789 132.338 43.466 132.079 39.045C131.974 37.2505 131.888 36.1863 129.948 35.8666C129.046 35.7137 128.12 35.7754 127.246 36.0466C126.892 36.1579 126.851 36.6797 127.245 36.6316Z" fill="white"/>
<path d="M132.041 34.4092C131.848 32.2208 131.309 27.7776 130.857 25.2671C130.798 24.9411 130.25 24.8487 130.292 25.4842C130.375 26.7395 131.166 33.2929 131.392 34.4763C131.408 34.5564 131.453 34.6276 131.519 34.676C131.585 34.7245 131.666 34.7467 131.747 34.7383C131.828 34.7299 131.903 34.6915 131.958 34.6306C132.012 34.5698 132.042 34.4908 132.041 34.4092Z" fill="white"/>
<path d="M134.78 33.8684C134.764 33.386 134.934 32.9158 135.254 32.5547C135.63 32.2452 135.217 31.7281 134.731 31.9523C134.172 32.2113 133.983 33.4523 134.112 33.9686C134.242 34.485 134.738 34.3594 134.78 33.8684Z" fill="white"/>
<path d="M135.927 34.485C135.959 34.1968 136.048 33.6063 136.345 33.5858C136.643 33.5653 136.655 35.1647 136.734 36.3332C137.194 43.1716 138.749 49.9382 138.637 56.8934C138.515 64.4218 135.192 63.2005 129.971 61.9129C129.923 61.8994 129.872 61.8959 129.822 61.9025C129.771 61.9091 129.723 61.9257 129.68 61.9513C129.636 61.977 129.598 62.0111 129.568 62.0517C129.538 62.0924 129.516 62.1386 129.505 62.1877C129.493 62.2369 129.491 62.2879 129.499 62.3377C129.508 62.3876 129.526 62.4352 129.553 62.4779C129.58 62.5205 129.615 62.5573 129.657 62.5859C129.699 62.6146 129.746 62.6346 129.795 62.6447C133.988 63.6932 138.472 65.3171 139.289 59.1561C140.212 52.2016 137.812 43.3808 137.403 36.2913C137.337 35.1411 137.298 33.4824 136.881 33.1003C136.293 32.5626 135.359 32.9037 135.4 34.3255C135.409 34.6524 135.889 34.8158 135.927 34.485Z" fill="white"/>
<path d="M71.318 23.7568C71.9168 23.2558 72.37 22.6032 72.6304 21.8672C72.8908 21.1312 72.9488 20.3387 72.7983 19.5726C73.0913 19.8532 73.4423 20.066 73.8265 20.1962C74.2108 20.3264 74.6189 20.3706 75.0221 20.3259C75.4253 20.2812 75.8137 20.1486 76.1601 19.9374C76.5065 19.7262 76.8023 19.4416 77.0267 19.1037C77.6086 20.8476 81.8425 21.2203 83.2588 19.1582C83.4359 20.4551 84.0424 21.6552 84.9815 22.5671C86.3496 21.9687 87.6791 18.9411 84.8646 17.8705C86.5375 16.3563 83.7901 12.6087 81.5938 14.6416C80.4649 10.9942 74.108 11.6511 74.6015 15.5889C72.0917 13.4984 68.4617 16.5592 70.8373 18.9347C68.8588 18.9221 68.5201 22.8032 71.318 23.7568Z" fill="white"/>
<path d="M47.9548 24.4808C48.3408 25.6851 49.0672 26.752 50.0461 27.5526C50.5885 27.9837 50.665 28.0334 51.1758 27.5526C52.2503 26.5405 53.4266 28.7013 52.7437 30.7105C52.5211 31.3666 52.3253 31.7013 51.7064 31.8687C51.0874 32.0361 51.3598 32.9313 52.2424 32.6337C52.6349 36.0156 53.2454 39.3686 54.07 42.6718C54.0742 42.7192 54.088 42.7652 54.1106 42.807C54.1332 42.8488 54.1641 42.8855 54.2015 42.9149C54.2389 42.9442 54.2819 42.9656 54.3278 42.9777C54.3738 42.9898 54.4217 42.9923 54.4687 42.9851C54.5157 42.9779 54.5607 42.9611 54.6009 42.9358C54.6412 42.9105 54.6758 42.8773 54.7027 42.8381C54.7295 42.7989 54.748 42.7546 54.7571 42.7079C54.7662 42.6613 54.7656 42.6133 54.7553 42.5668C54.4474 40.4755 53.8648 38.1339 53.6137 35.6195C57.0645 29.6637 55.634 22.395 50.8072 19.9192C45.9803 17.4434 37.2235 19.6555 37.349 23.88C37.4745 28.1045 46.5124 24.9284 47.9548 24.4808Z" fill="white"/>
<path d="M99.2481 40.0476C98.8802 42.2511 100.004 41.9747 101.167 39.5242C104.378 32.7632 101.053 27.0789 106.525 24.7942C107.022 23.669 107.848 22.72 108.893 22.0713C105.924 17.0526 98.881 16.35 96.852 22.5947C94.5933 29.5413 100.515 32.4521 99.2481 40.0476Z" fill="white"/>
<path d="M106.533 34.3216C106.477 34.8806 106.601 35.4428 106.887 35.9264C107.173 36.41 107.605 36.7898 108.122 37.0105C107.947 39.627 107.509 42.2191 106.813 44.7474C106.68 45.2408 107.413 45.5045 107.57 45.0111C108.102 43.3397 109.025 38.9755 108.875 37.1163C110.13 37.1163 109.644 36.1792 109.218 36.2171C108.959 36.2607 108.693 36.2401 108.444 36.1569C108.195 36.0737 107.97 35.9306 107.789 35.7401C107.608 35.5496 107.477 35.3176 107.406 35.0645C107.336 34.8114 107.329 34.5449 107.386 34.2884C107.512 33.2558 108.532 32.6155 109.263 33.4524C109.465 33.6821 109.845 33.3853 110.071 33.21C109.653 32.3732 108.403 29.9234 110.387 30.2274C110.976 30.3231 111.556 30.4629 112.124 30.6458C112.363 30.1905 112.548 29.7092 112.676 29.2113C115.245 30.5163 119.669 30.9711 120.447 30.1816C121.694 28.9184 121.228 23.3132 113.789 22.1763C107.543 21.2147 103.773 28.609 106.533 34.3216Z" fill="white"/>
<path d="M72.4262 24.6939C72.0315 24.6939 71.2886 24.6205 70.9499 24.6189C70.3309 24.6189 70.4107 25.3168 70.9207 25.38C71.272 25.4226 71.782 25.4511 72.1333 25.4889C72.0059 26.1951 72.1641 26.9229 72.5731 27.5124C72.9822 28.1019 73.6086 28.5048 74.3146 28.6326C74.829 28.7375 75.3624 28.6954 75.854 28.5112C76.3455 28.327 76.7752 28.008 77.0939 27.5909C77.4126 27.1738 77.6073 26.6753 77.6559 26.1527C77.7044 25.63 77.6047 25.1042 77.3683 24.6355C77.6136 24.4715 77.899 24.3775 78.1938 24.3636C78.4886 24.3497 78.7815 24.4164 79.0412 24.5566C78.3757 26.5184 79.9444 27.9624 81.8517 27.84C83.152 27.7571 84.6496 27.0505 84.3607 24.7745C84.7271 24.7733 85.093 24.7496 85.4565 24.7034C85.5554 24.6901 85.6453 24.6391 85.7075 24.561C85.7696 24.4829 85.7992 24.3839 85.7901 24.2845C85.7809 24.1851 85.7337 24.0931 85.6583 24.0277C85.5828 23.9624 85.4851 23.9287 85.3854 23.9337C84.967 23.9337 84.5786 23.9921 84.1728 24.0213C83.407 22.2403 80.6928 22.0603 79.4052 23.8753C79.0344 23.678 78.617 23.5855 78.1976 23.6076C77.7782 23.6297 77.3728 23.7656 77.0249 24.0008C75.847 22.4605 73.3712 22.9413 72.4262 24.6939ZM82.4209 25.71C82.2504 26.175 81.7609 27.4216 81.258 27.1074C80.8373 26.8437 81.5509 25.7574 81.7933 25.4345C82.2054 24.8811 82.5694 25.2963 82.4209 25.71ZM80.5523 24.8684C80.7362 24.5297 81.1838 23.591 81.5186 23.4805C81.7073 23.4189 82.1502 23.5263 81.7065 24.3489C81.4819 24.8575 81.1849 25.3308 80.8246 25.7542C80.6959 25.8158 79.9996 25.8892 80.5523 24.8684ZM76.1194 26.0984C75.9954 26.4997 75.779 26.8663 75.4878 27.1689C75.1365 27.5874 74.7307 27.3529 74.8854 26.8847C75.0712 26.4484 75.3237 26.0436 75.6338 25.6847C75.7317 25.5695 76.297 25.4992 76.1194 26.0984ZM73.672 26.04C73.9385 25.3457 74.3217 24.7019 74.8049 24.1366C75.0417 24.0292 75.5154 24.2203 75.1396 24.8353C74.8476 25.3878 74.5279 25.9253 74.182 26.4458C73.8773 26.8184 73.4209 26.6053 73.6728 26.0408L73.672 26.04Z" fill="white"/>
<path d="M49.2941 27.4879C49.081 27.2155 47.6212 27.2613 47.2525 27.3371C46.1196 27.574 39.5544 29.6187 38.5825 30.3111C38.1649 30.6087 38.716 32.3637 39.3191 33.3221C39.8117 34.1045 40.2349 34.0745 41.1088 33.8242C42.1881 33.514 42.2931 33.0876 42.297 32.0384C42.3017 31.2016 42.297 30.3987 42.2386 29.6416C42.2386 29.5082 42.5694 29.3779 42.6144 29.4995C42.8811 30.2291 43.1897 30.9426 43.5388 31.6366C44.2312 32.9968 45.0862 32.7655 46.1694 32.505C47.6331 32.1489 47.9315 31.669 48.0183 30.3679C48.0679 29.5955 48.0343 28.82 47.9181 28.0547C48.2338 28.0547 49.0557 28.0879 49.2775 27.8913C49.3283 27.8373 49.3579 27.7668 49.3609 27.6927C49.364 27.6186 49.3403 27.5459 49.2941 27.4879ZM39.541 31.1432C39.6814 30.8436 39.8583 30.5626 40.0675 30.3063C40.4165 29.8824 40.7591 30.2329 40.5152 30.6411C40.3558 30.9011 40.1769 31.1487 39.9799 31.3816C39.7581 31.6492 39.3657 31.5134 39.541 31.1432ZM41.5983 30.8755C41.2636 31.6068 40.891 32.3201 40.482 33.0126C40.1836 33.4997 39.7715 33.255 39.942 32.7829C40.3038 31.9696 40.7393 31.1911 41.2431 30.4571C41.4057 30.2605 41.8123 30.4263 41.5983 30.8755ZM44.221 30.1058C44.382 29.5886 44.6481 29.1102 45.0025 28.7005C45.2575 28.3532 45.7983 28.4961 45.4762 29.0518C45.2844 29.3866 44.8865 30.135 44.7065 30.3861C44.5265 30.6371 44.116 30.5787 44.221 30.1058ZM46.6683 29.3282C46.337 30.16 45.9295 30.9595 45.451 31.7163C45.2931 31.9737 44.757 32.0211 44.9031 31.4984C45.2429 30.6674 45.6782 29.8787 46.2002 29.1482C46.3841 28.8947 46.8096 28.8592 46.6715 29.3282H46.6683Z" fill="white"/>
<path d="M115.563 33.3095C114.78 32.4558 113.761 31.8536 112.635 31.5789C109.798 30.5526 109.67 30.7713 110.707 32.9258C111.335 34.23 112.46 36.1247 114.016 36.2716C114.309 36.3153 114.609 36.2825 114.887 36.1762C115.164 36.0699 115.409 35.8938 115.598 35.6649C115.788 35.436 115.915 35.1622 115.967 34.8698C116.019 34.5775 115.995 34.2766 115.897 33.9963C116.26 33.8859 116.65 33.9021 117.002 34.0421C116.241 35.9574 119.028 38.58 122.172 33.206C122.468 32.6992 122.268 32.5587 121.955 32.4908C121 32.2839 118.437 32.4071 117.466 33.3268C117.169 33.188 116.845 33.1147 116.517 33.1117C116.188 33.1087 115.863 33.1761 115.563 33.3095ZM112.924 33.8661C112.402 33.5503 113.426 32.3258 113.831 32.745C114.123 33.0466 113.318 34.1053 112.924 33.8684V33.8661ZM114.597 34.0958C114.361 34.5238 114.034 34.8949 113.639 35.1829C113.581 35.2137 113.514 35.2251 113.449 35.2152C113.383 35.2054 113.323 35.1749 113.276 35.1282C113.229 35.0816 113.199 35.0212 113.189 34.9558C113.179 34.8905 113.19 34.8237 113.221 34.7653C113.442 34.3417 113.751 33.9706 114.129 33.6774C114.522 33.4263 114.806 33.7271 114.597 34.0958ZM120.134 34.0247C119.866 34.5887 119.521 35.1125 119.108 35.5808C118.798 35.8966 118.346 35.7063 118.602 35.2247C118.88 34.6761 119.216 34.1589 119.605 33.6821C119.929 33.3024 120.354 33.5526 120.134 34.0263V34.0247ZM118.988 33.2258C119.352 33.6442 118.514 34.635 118.11 34.3176C117.706 34.0003 118.658 32.8618 118.988 33.2424V33.2258Z" fill="white"/>
<path d="M61.0965 64.9445C65.0707 63.8187 68.7709 62.5926 72.8778 61.6745C77.3367 60.6774 86.6825 59.6811 89.7496 64.1503C90.0591 64.6018 90.6307 64.1258 90.3267 63.6766C88.3807 60.7761 83.3667 59.9124 80.1425 59.9124C75.7262 59.9124 66.8794 61.9721 60.8367 64.3753C60.3946 64.5474 60.6449 65.0724 61.0965 64.9445Z" fill="white"/>
<path d="M89.9883 66.3C91.0209 66.2455 92.3298 66.1824 94.1954 66.2416C94.2692 66.235 94.339 66.2051 94.3946 66.1561C94.4502 66.1071 94.4888 66.0417 94.5046 65.9693C94.5205 65.8969 94.5128 65.8213 94.4827 65.7536C94.4527 65.6858 94.4018 65.6294 94.3375 65.5926C93.5891 65.2247 90.8354 65.3558 89.9046 65.7561C89.5959 65.8879 89.6156 66.3158 89.9883 66.3Z" fill="white"/>
<path d="M105.428 67.391C105.426 67.3414 105.414 67.2928 105.392 67.2483C105.37 67.2038 105.339 67.1644 105.301 67.1327C105.262 67.101 105.218 67.0777 105.17 67.0642C105.122 67.0507 105.072 67.0475 105.023 67.0546C104.974 67.0617 104.927 67.079 104.885 67.1055C104.843 67.1319 104.807 67.1669 104.78 67.2082C104.752 67.2494 104.733 67.296 104.725 67.3449C104.716 67.3938 104.718 67.4439 104.73 67.4921C105.077 69.774 104.524 72.1014 103.187 73.9831C100.463 77.7726 95.9238 77.2697 91.8319 76.8252C86.0767 76.1936 79.7293 75.0734 74.9688 74.2571C74.5504 74.1852 74.3862 74.6794 74.7975 74.801C77.9041 75.7184 88.599 77.2397 91.6977 77.5776C96.2988 78.0805 101.295 78.446 104.092 74.0249C105.325 72.048 105.8 69.6911 105.428 67.391Z" fill="white"/>
<path d="M88.7368 64.7858C80.7528 66.6916 74.0968 74.6124 65.7931 76.3121C61.7305 77.1442 55.8868 76.8568 53.5721 72.7784C52.7563 71.1926 52.302 69.4457 52.2418 67.6634C52.2287 67.5808 52.1865 67.5056 52.1229 67.4513C52.0593 67.397 51.9784 67.3672 51.8948 67.3672C51.8112 67.3672 51.7303 67.397 51.6667 67.4513C51.6031 67.5056 51.561 67.5808 51.5478 67.6634C51.4349 70.6832 52.5434 73.8868 55.0902 75.6513C57.4744 77.3037 60.5273 77.7039 63.3457 77.5129C73.2078 76.8434 79.8631 68.1316 88.8963 65.355C89.4157 65.1939 89.2642 64.6579 88.7368 64.7858Z" fill="white"/>
</g>
<defs>
<clipPath id="clip0_366_6742">
<rect width="150" height="90" fill="white"/>
</clipPath>
</defs>
</svg>
