<svg width="40" height="40" viewBox="0 0 40 40" fill="none" xmlns="http://www.w3.org/2000/svg">
<g clip-path="url(#clip0_366_937)">
<path d="M10 39.1666C10 35.9449 14.4767 33.3333 20 33.3333C25.5233 33.3333 30 35.9449 30 39.1666H10Z" fill="#AABBC5"/>
<path d="M19.9999 36.6666C23.4376 36.6191 26.8436 37.3304 29.9749 38.7499C29.6082 35.7216 25.2832 33.3333 19.9999 33.3333C14.7166 33.3333 10.3916 35.7216 10.0249 38.7499C13.1563 37.3304 16.5622 36.6191 19.9999 36.6666Z" fill="#D5DFE6"/>
<path d="M31.0002 15.8833C30.2519 23.3699 21.2702 28.9916 13.9036 23.8433C12.4885 22.8164 11.3109 21.4973 10.4507 19.9751C9.5906 18.4529 9.06805 16.7636 8.91857 15.0216L7.58523 1.74994C7.57355 1.6337 7.58643 1.51631 7.62305 1.40538C7.65967 1.29445 7.7192 1.19246 7.79777 1.10603C7.87635 1.01959 7.97222 0.950637 8.07917 0.903647C8.18612 0.856657 8.30175 0.832677 8.41857 0.833262H31.5852C31.7021 0.832677 31.8177 0.856657 31.9246 0.903647C32.0316 0.950637 32.1274 1.01959 32.2061 1.10603C32.2846 1.19246 32.3441 1.29445 32.3807 1.40538C32.4174 1.51631 32.4302 1.6337 32.4186 1.74994L31.0002 15.8833Z" fill="#AABBC5"/>
<path d="M20 0.833262H8.42003C8.30321 0.832677 8.18758 0.856657 8.08063 0.903647C7.97368 0.950637 7.87781 1.01959 7.79923 1.10603C7.72065 1.19246 7.66113 1.29445 7.62451 1.40538C7.5879 1.51631 7.57501 1.6337 7.5867 1.74994L8.92003 15.0216C9.06893 16.7631 9.5907 18.4523 10.45 19.9744C11.3092 21.4966 12.4859 22.8159 13.9 23.8433C15.6776 25.1236 17.8095 25.8191 20 25.8333V0.833262Z" fill="#D5DFE6"/>
<path d="M5.1885 15.4216C3.91031 14.9491 2.80763 14.0962 2.02898 12.9778C1.25032 11.8595 0.833098 10.5293 0.833496 9.16659V7.49992C0.833496 7.05789 1.00909 6.63397 1.32165 6.3214C1.63421 6.00885 2.05813 5.83325 2.50016 5.83325H8.00016" stroke="white" stroke-linecap="round" stroke-linejoin="round"/>
<path d="M34.8117 15.4216C36.0898 14.9491 37.1925 14.0962 37.9712 12.9778C38.7498 11.8595 39.167 10.5293 39.1667 9.16659V7.49992C39.1667 7.05789 38.991 6.63397 38.6785 6.3214C38.366 6.00885 37.942 5.83325 37.5 5.83325H32" stroke="white" stroke-linecap="round" stroke-linejoin="round"/>
<path d="M20 25.8333V33.3333" stroke="white" stroke-linecap="round" stroke-linejoin="round"/>
<path d="M10 39.1666C10 35.9449 14.4767 33.3333 20 33.3333C25.5233 33.3333 30 35.9449 30 39.1666H10Z" stroke="white" stroke-linecap="round" stroke-linejoin="round"/>
<path d="M31.0002 15.8833C30.2519 23.3699 21.2702 28.9916 13.9036 23.8433C12.4885 22.8164 11.3109 21.4973 10.4507 19.9751C9.5906 18.4529 9.06805 16.7636 8.91857 15.0216L7.58523 1.74994C7.57355 1.6337 7.58643 1.51631 7.62305 1.40538C7.65967 1.29445 7.7192 1.19246 7.79777 1.10603C7.87635 1.01959 7.97222 0.950637 8.07917 0.903647C8.18612 0.856657 8.30175 0.832677 8.41857 0.833262H31.5852C31.7021 0.832677 31.8177 0.856657 31.9246 0.903647C32.0316 0.950637 32.1274 1.01959 32.2061 1.10603C32.2846 1.19246 32.3441 1.29445 32.3807 1.40538C32.4174 1.51631 32.4302 1.6337 32.4186 1.74994L31.0002 15.8833Z" stroke="white" stroke-linecap="round" stroke-linejoin="round"/>
</g>
<defs>
<clipPath id="clip0_366_937">
<rect width="40" height="40" fill="white"/>
</clipPath>
</defs>
</svg>
