<svg width="121" height="90" viewBox="0 0 121 90" fill="none" xmlns="http://www.w3.org/2000/svg">
<g clip-path="url(#clip0_366_6816)">
<path d="M42.1842 30.0825C40.7899 29.2729 39.508 28.2834 38.3717 27.1394C36.5048 25.1771 34.839 23.0329 33.3992 20.7388C32.4055 19.0719 32.608 18.725 32.2424 18.5894C32.1856 18.5681 32.1249 18.5596 32.0644 18.5646C32.004 18.5696 31.9455 18.5879 31.893 18.6181C30.3011 19.5375 28.658 20.4831 27.1236 21.5106C26.4159 21.8911 25.7535 22.3504 25.1492 22.88C25.1028 22.9293 25.0693 22.9894 25.0519 23.0549C25.0344 23.1204 25.0335 23.1891 25.0492 23.255C25.5424 24.9906 26.3676 26.6139 27.4792 28.035C29.6767 31.0756 31.8124 33.6438 35.063 35.4956C35.0946 35.5145 35.1297 35.5266 35.1662 35.5311C35.2028 35.5357 35.2398 35.5326 35.2751 35.5221C35.3103 35.5116 35.343 35.4939 35.3711 35.47C35.3991 35.4462 35.4219 35.4169 35.438 35.3838L35.5149 35.4213C35.4904 35.4706 35.4835 35.5267 35.4951 35.5805C35.5067 35.6343 35.5362 35.6825 35.5788 35.7174C35.6214 35.7522 35.6746 35.7715 35.7296 35.7723C35.7846 35.773 35.8383 35.755 35.8817 35.7213C36.7749 35.0669 37.6005 34.2356 38.4874 33.55C39.7805 32.5375 40.9536 31.8131 42.2474 30.7181C42.2947 30.6772 42.3316 30.6255 42.3548 30.5673C42.378 30.5092 42.3869 30.4463 42.3807 30.384C42.3745 30.3216 42.3534 30.2617 42.3192 30.2093C42.285 30.1568 42.2387 30.1133 42.1842 30.0825ZM33.8455 33.5863C32.5953 32.4938 31.4434 31.2938 30.403 30C29.5115 28.9965 28.6842 27.9377 27.9261 26.83C27.4261 26.0175 26.9561 25.7281 26.8311 24.7563C27.9767 23.955 27.5236 22.9288 27.3511 22.4181C28.6011 21.5969 29.2367 21.1681 30.7261 20.34C30.7943 20.5083 30.8993 20.6592 31.0334 20.7817C31.1674 20.9042 31.3272 20.9952 31.5009 21.0479C31.6747 21.1007 31.858 21.114 32.0376 21.0868C32.2171 21.0596 32.3883 20.9926 32.5386 20.8906C33.2798 22.3987 34.2074 23.8076 35.2999 25.0844C36.4386 26.6629 37.784 28.0816 39.2999 29.3025C38.5999 29.8156 38.9367 31.0563 39.2999 31.5106C38.3937 32.1515 37.5264 32.8454 36.7024 33.5888C35.6792 32.375 34.4561 33.2356 33.8455 33.5863Z" fill="#5397FD"/>
<path d="M34.9518 26.4338C34.9043 26.2043 34.8037 25.9891 34.658 25.8056C34.5124 25.622 34.3257 25.4751 34.1131 25.3767C33.9004 25.2782 33.6676 25.231 33.4334 25.2387C33.1992 25.2465 32.97 25.309 32.7643 25.4213C32.7281 25.4371 32.696 25.461 32.6706 25.4913C32.6523 25.4943 32.6345 25.4995 32.6175 25.5069C32.3865 25.5738 32.1724 25.6891 31.9893 25.8451C31.8063 26.0011 31.6585 26.1942 31.5559 26.4117C31.4532 26.6291 31.3979 26.8659 31.3938 27.1064C31.3897 27.3468 31.4367 27.5854 31.5318 27.8063C32.355 30.0232 35.7225 28.8075 34.9518 26.4338Z" fill="#5397FD"/>
<path d="M94.8178 48.2425C94.7497 47.2256 94.5253 46.2381 94.4359 45.2425C94.294 43.7875 94.3109 42.5625 94.1046 41.055C94.0957 40.993 94.072 40.9341 94.0355 40.8832C93.999 40.8324 93.9508 40.791 93.895 40.7626C93.8392 40.7343 93.7774 40.7197 93.7148 40.7202C93.6522 40.7208 93.5906 40.7363 93.5353 40.7656C90.9398 42.0316 88.1033 42.727 85.2165 42.805C83.6359 42.9933 82.0365 42.9557 80.4665 42.6931C80.4076 42.6795 80.3465 42.679 80.2873 42.6917C80.2282 42.7043 80.1726 42.7298 80.1245 42.7664C80.0763 42.803 80.0368 42.8497 80.0088 42.9032C79.9807 42.9568 79.9648 43.0159 79.9621 43.0762C79.894 44.7319 79.8215 46.3925 79.8634 48.0544C79.8116 48.7726 79.8418 49.4943 79.9534 50.2056C79.9703 50.2707 80.0029 50.3307 80.0485 50.3802C80.0941 50.4297 80.1511 50.4672 80.2146 50.4894C80.8339 50.6974 81.4739 50.8374 82.1234 50.9069C84.0305 51.0305 85.9451 50.9616 87.8384 50.7013C90.0747 50.4623 92.2474 49.8111 94.2465 48.7806C94.2792 48.764 94.308 48.7409 94.3312 48.7126C94.3544 48.6843 94.3715 48.6515 94.3815 48.6163C94.3914 48.581 94.3939 48.5441 94.3889 48.5079C94.3838 48.4716 94.3713 48.4368 94.3521 48.4056L94.3703 48.3944C94.3998 48.4399 94.4436 48.4742 94.4948 48.492C94.5461 48.5098 94.6018 48.51 94.6531 48.4926C94.7045 48.4751 94.7486 48.4411 94.7784 48.3958C94.8082 48.3505 94.8221 48.2966 94.8178 48.2425ZM86.5003 43.5988C88.2333 43.494 89.9446 43.1577 91.5884 42.5987C91.6403 43.3712 92.7359 43.71 93.2515 43.6538C93.3018 44.6424 93.4103 45.6272 93.5765 46.6031C92.1746 46.7956 92.239 48.1288 92.2115 48.7563C90.7908 49.1755 89.3361 49.4695 87.864 49.635C86.682 49.8273 85.489 49.9448 84.2922 49.9869C83.4403 49.9762 82.999 50.1912 82.2072 49.8212C82.1509 48.5756 81.1615 48.4269 80.694 48.3131C80.6728 46.9788 80.6547 46.2962 80.7415 44.7762C80.8972 44.8047 81.0572 44.7987 81.2104 44.7588C81.3635 44.719 81.5062 44.6461 81.6282 44.5454C81.7503 44.4447 81.8489 44.3186 81.9172 44.1758C81.9854 44.033 82.0217 43.877 82.0234 43.7187C83.5161 43.8215 85.0152 43.7813 86.5003 43.5988Z" fill="#5397FD"/>
<path d="M87.3627 44.4656C87.1621 44.3902 86.9465 44.363 86.7335 44.3863C86.5204 44.4095 86.3158 44.4825 86.1361 44.5993C85.9565 44.7161 85.8068 44.8736 85.6991 45.0589C85.5915 45.2443 85.5289 45.4523 85.5165 45.6663C85.5108 45.7034 85.5132 45.7413 85.5233 45.7775C85.4531 45.9895 85.4299 46.2141 85.4553 46.436C85.4806 46.6578 85.5539 46.8714 85.6701 47.0621C85.7863 47.2527 85.9426 47.4158 86.1282 47.54C86.3137 47.6642 86.524 47.7465 86.7446 47.7813C88.864 48.2363 89.5715 45.0319 87.3627 44.4656Z" fill="#5397FD"/>
<path d="M94.8262 77.4375C94.0075 76.4644 93.0531 75.6394 92.2218 74.6975C91.0224 73.3525 90.1468 72.1188 88.8099 70.7225C88.7669 70.6785 88.714 70.6452 88.6557 70.6255C88.5973 70.6058 88.5352 70.6002 88.4742 70.6091C88.4133 70.618 88.3553 70.6412 88.305 70.6767C88.2548 70.7123 88.2136 70.7593 88.1849 70.8138C86.4562 74.0744 83.8893 76.5419 80.9818 78.8094C79.4375 80.0156 77.7443 81.3756 75.9193 82.0887C75.8623 82.1111 75.811 82.146 75.7691 82.1907C75.7273 82.2354 75.6959 82.289 75.6774 82.3474C75.6589 82.4058 75.6537 82.4676 75.6621 82.5283C75.6706 82.589 75.6925 82.647 75.7262 82.6981C76.8512 84.4019 78.0081 86.1556 79.2499 87.7806C79.7177 88.5372 80.2705 89.2378 80.8974 89.8687C80.948 89.9107 81.0079 89.9399 81.0721 89.9537C81.1363 89.9675 81.2029 89.9656 81.2662 89.9481C82.0513 89.7222 82.8102 89.4134 83.53 89.0269C85.5931 87.808 87.5299 86.3871 89.3118 84.785C91.4601 82.9772 93.2548 80.7869 94.605 78.325C94.6227 78.2928 94.6335 78.2572 94.6367 78.2206C94.64 78.184 94.6356 78.1471 94.6238 78.1122C94.6121 78.0774 94.5932 78.0454 94.5685 78.0182C94.5437 77.991 94.5136 77.9693 94.48 77.9544L94.5424 77.8181C94.5929 77.8401 94.6493 77.8444 94.7024 77.8303C94.7556 77.8162 94.8025 77.7845 94.8354 77.7404C94.8682 77.6963 94.8852 77.6424 94.8836 77.5874C94.8819 77.5324 94.8617 77.4795 94.8262 77.4375ZM82.8931 87.9513C81.9256 86.7356 80.7862 87.2888 80.2168 87.5056C79.2212 86.1756 78.7037 85.5006 77.6856 83.9075C77.8731 83.8272 78.0395 83.7046 78.1718 83.5493C78.304 83.394 78.3986 83.2103 78.448 83.0123C78.4975 82.8144 78.5005 82.6078 78.4568 82.4085C78.4131 82.2093 78.3239 82.0228 78.1962 81.8637C79.8684 80.9836 81.4235 79.897 82.8249 78.6294C84.5489 77.3009 86.0872 75.7475 87.3987 74.0106C88.0162 74.7519 89.405 74.3163 89.8987 73.8925C90.6734 74.8552 91.5049 75.7708 92.3887 76.6344C91.0687 77.8219 92.1081 79.1219 92.5375 79.7731C91.3597 81.2087 90.0585 82.5384 88.6487 83.7469C87.5552 84.7818 86.3979 85.7473 85.1837 86.6375C84.2924 87.23 83.9887 87.76 82.8931 87.9494V87.9513Z" fill="#5397FD"/>
<path d="M87.0283 79.8862C86.861 79.605 86.6326 79.365 86.36 79.1841C86.0874 79.0031 85.7775 78.8858 85.4534 78.8408C85.1293 78.7959 84.7992 78.8244 84.4876 78.9244C84.176 79.0243 83.8909 79.193 83.6533 79.4181C83.3754 79.6557 83.1938 79.9867 83.1427 80.3488C83.0916 80.7108 83.1745 81.0791 83.3758 81.3844C83.3947 81.4217 83.4224 81.4539 83.4565 81.4781C83.4606 81.4999 83.468 81.521 83.4783 81.5406C84.4208 83.9756 88.3371 82.415 87.0283 79.8862Z" fill="#5397FD"/>
<path d="M84.1459 18.1775C84.1403 18.1284 84.121 18.0818 84.0903 18.043C84.0596 18.0042 84.0187 17.9748 83.9721 17.9581C84.0015 17.9284 84.0226 17.8915 84.0336 17.8512C84.0446 17.8109 84.0449 17.7684 84.0347 17.7279C84.0245 17.6874 84.0039 17.6502 83.9751 17.6199C83.9463 17.5896 83.9102 17.5672 83.8703 17.555C83.1203 17.2956 82.2984 17.1475 81.5371 16.9056C80.4221 16.5619 79.5646 16.1837 78.3334 15.8569C78.2714 15.8414 78.2065 15.8414 78.1444 15.8566C78.0824 15.8718 78.025 15.902 77.9771 15.9444C77.6078 16.2744 78.2028 16.8194 77.8371 19.69C77.542 21.5778 77.0577 23.4311 76.3915 25.2219C75.8621 26.545 75.579 26.5187 75.6746 26.8606C75.691 26.9178 75.7195 26.9707 75.7582 27.0158C75.7969 27.0609 75.845 27.0971 75.899 27.1219C76.6253 27.4556 77.3546 27.7912 78.0865 28.1081C78.4853 28.2806 80.6534 29.1706 80.6628 29.1706C80.845 29.2369 81.0335 29.2848 81.2253 29.3137C81.2938 29.3234 81.3637 29.3154 81.4283 29.2906C81.4929 29.2657 81.5501 29.2249 81.5946 29.1719C82.3715 28.1478 82.9367 26.9792 83.2571 25.7344C84.0253 23.1512 84.529 20.8631 84.1459 18.1775ZM80.0878 28.0437C79.7128 27.8825 79.1459 27.6975 77.4665 26.9356C77.5612 26.7231 77.5721 26.4826 77.497 26.2624C77.4219 26.0422 77.2663 25.8585 77.0615 25.7481C77.7009 24.2375 78.7534 20.6 78.7665 18.2731C79.3559 18.4712 79.9071 17.7619 80.0059 17.3612C80.7537 17.6261 81.5165 17.8467 82.2903 18.0219C82.0509 19.1212 83.0609 19.4812 83.5203 19.6931C83.3307 21.8164 82.9131 23.913 82.2746 25.9469C82.034 26.5762 82.0746 26.9694 81.5828 27.4469C81.3049 27.3321 80.9932 27.3303 80.7141 27.4417C80.4349 27.5532 80.2102 27.7692 80.0878 28.0437Z" fill="#5397FD"/>
<path d="M80.8293 21.495C80.6253 21.3806 80.3967 21.3172 80.163 21.3102C79.9292 21.3032 79.6972 21.3528 79.4868 21.4547C79.2763 21.5567 79.0936 21.708 78.9542 21.8957C78.8148 22.0835 78.7228 22.3022 78.6861 22.5331C78.6417 22.7837 78.6839 23.0419 78.8058 23.2652C78.9277 23.4885 79.122 23.6637 79.3568 23.7619C79.4111 23.7944 79.4486 23.7913 79.4724 23.8075C80.8861 24.9794 82.6461 22.5738 80.8293 21.495Z" fill="#5397FD"/>
<path d="M46.4666 48.2606C46.2054 47.3356 45.8072 46.4737 45.5291 45.565C45.1216 44.2775 44.8916 43.1275 44.3997 41.7569C44.3775 41.697 44.341 41.6435 44.2933 41.601C44.2456 41.5585 44.1883 41.5283 44.1263 41.5131C44.0642 41.4979 43.9994 41.4981 43.9375 41.5137C43.8756 41.5292 43.8184 41.5597 43.771 41.6025C41.7008 43.3607 39.2785 44.6557 36.6666 45.4006C35.2864 45.9359 33.8359 46.2685 32.3604 46.3881C32.301 46.3889 32.2425 46.4025 32.189 46.4281C32.1354 46.4536 32.088 46.4905 32.0501 46.5361C32.0121 46.5817 31.9845 46.635 31.9691 46.6923C31.9537 46.7496 31.951 46.8096 31.961 46.8681C32.2329 48.4394 32.4904 49.955 32.8641 51.51C32.9605 52.1867 33.1327 52.8504 33.3772 53.4887C33.4076 53.5512 33.4536 53.6047 33.5108 53.6441C33.568 53.6835 33.6343 53.7075 33.7035 53.7137C34.3114 53.7653 34.9232 53.7481 35.5272 53.6625C37.2867 53.3344 39.008 52.8278 40.6647 52.1506C42.6464 51.4061 44.4738 50.3027 46.0554 48.8956C46.1071 48.8503 46.1393 48.7868 46.1453 48.7183C46.1512 48.6498 46.1304 48.5816 46.0872 48.5281C46.1285 48.5592 46.1785 48.5764 46.2301 48.5772C46.2817 48.5781 46.3323 48.5625 46.3745 48.5327C46.4167 48.503 46.4483 48.4606 46.4649 48.4117C46.4815 48.3628 46.4821 48.3099 46.4666 48.2606ZM33.041 48.2775C33.5704 48.34 34.1129 47.635 33.9897 47.0219C35.3597 46.7511 36.7036 46.3623 38.0066 45.86C39.5599 45.3615 41.0394 44.6569 42.4054 43.765C42.6066 44.4694 43.6635 44.5325 44.1191 44.3612C44.3603 45.2652 44.6548 46.154 45.001 47.0231C43.7722 47.5231 44.096 48.7456 44.1966 49.3356C43.0008 50.0484 41.7447 50.6549 40.4429 51.1481C39.416 51.5974 38.3616 51.9806 37.286 52.2956C36.5135 52.4831 36.161 52.7825 35.3691 52.6206C35.2861 52.2632 35.066 51.9526 34.7562 51.756C34.4463 51.5593 34.0716 51.4923 33.7129 51.5694C33.5922 50.97 33.4404 50.5262 33.041 48.2775Z" fill="#5397FD"/>
<path d="M40.5756 47.925C40.5512 47.662 40.4638 47.4088 40.3206 47.1869C40.1775 46.9649 39.9829 46.7808 39.7534 46.6501C39.5239 46.5195 39.2663 46.4461 39.0023 46.4363C38.7384 46.4265 38.476 46.4805 38.2375 46.5938C37.975 46.7112 37.7602 46.9143 37.6281 47.1698C37.4961 47.4252 37.4547 47.7179 37.5106 48C37.5129 48.0373 37.5229 48.0737 37.54 48.1069C37.3543 50.2263 40.7337 50.3025 40.5756 47.925Z" fill="#5397FD"/>
<path d="M105.698 6.79812C105.436 5.87562 105.038 5.01187 104.76 4.10249C104.352 2.81124 104.124 1.665 103.631 0.294371C103.609 0.234509 103.573 0.180998 103.525 0.138511C103.477 0.0960228 103.42 0.0658487 103.358 0.0506224C103.296 0.035396 103.231 0.0355802 103.169 0.0511588C103.107 0.0667374 103.05 0.0972379 103.003 0.139996C100.932 1.89781 98.5095 3.19259 95.8975 3.93749C94.5176 4.47297 93.0673 4.8056 91.5919 4.925C91.5325 4.92575 91.474 4.93939 91.4204 4.96497C91.3667 4.99055 91.3193 5.02746 91.2813 5.07316C91.2434 5.11885 91.2158 5.17224 91.2004 5.22964C91.1851 5.28704 91.1824 5.34708 91.1925 5.40562C91.4638 6.97624 91.7219 8.49187 92.0957 10.0475C92.192 10.7242 92.3639 11.3879 92.6082 12.0262C92.6388 12.0884 92.6849 12.1417 92.7421 12.1809C92.7992 12.2202 92.8654 12.2442 92.9344 12.2506C93.5425 12.3022 94.1545 12.285 94.7588 12.1994C96.5179 11.8711 98.239 11.3647 99.8957 10.6881C101.877 9.94317 103.705 8.8393 105.286 7.43187C105.338 7.38678 105.37 7.32332 105.376 7.25487C105.382 7.18643 105.361 7.11835 105.318 7.065C105.359 7.09597 105.409 7.1131 105.461 7.11392C105.512 7.11474 105.563 7.09921 105.605 7.06957C105.647 7.03992 105.679 6.99768 105.695 6.9489C105.712 6.90013 105.713 6.84734 105.698 6.79812ZM92.2713 6.81499C92.8007 6.87749 93.3432 6.1725 93.22 5.55937C94.5901 5.28902 95.9341 4.90027 97.2369 4.39749C98.7903 3.89913 100.27 3.1945 101.636 2.3025C101.837 3.0075 102.894 3.07 103.349 2.89875C103.59 3.80317 103.884 4.69263 104.229 5.5625C103.001 6.0625 103.325 7.28499 103.425 7.87499C102.23 8.5877 100.976 9.19419 99.675 9.6875C98.648 10.1367 97.5933 10.5199 96.5175 10.835C95.7457 11.0225 95.3925 11.3219 94.6007 11.1606C94.518 10.8031 94.298 10.4924 93.9883 10.2956C93.6785 10.0988 93.3038 10.0317 92.945 10.1087C92.8425 9.60562 92.6794 9.10312 92.2713 6.8125V6.81499Z" fill="#5397FD"/>
<path d="M99.8056 6.46312C99.7815 6.20003 99.6942 5.94666 99.5511 5.72456C99.408 5.50245 99.2135 5.31818 98.9839 5.18742C98.7543 5.05665 98.4966 4.98325 98.2326 4.97348C97.9686 4.9637 97.7061 5.01782 97.4675 5.13124C97.2055 5.24863 96.991 5.45132 96.859 5.70624C96.727 5.96117 96.6853 6.2533 96.7406 6.535C96.743 6.57233 96.7533 6.60873 96.7706 6.64187C96.5825 8.76249 99.9637 8.84124 99.8056 6.46312Z" fill="#5397FD"/>
<path d="M63.8653 67.4675C63.6303 65.7737 63.2703 64.9568 62.9615 63.3475C62.8053 62.535 62.3871 60.8156 62.309 60.3475C62.5345 59.9278 62.7213 59.4885 62.8671 59.035C62.8953 58.9681 63.0159 59.16 61.0628 56.5637C61.0628 56.5637 59.9634 57.9306 59.3603 58.6887C59.9378 60.4012 59.9303 60.0012 59.8528 60.4887C59.6546 61.705 59.0265 65.0068 58.7765 67.3275C58.7321 67.7412 60.0159 69.64 61.2865 72.01C61.3171 72.0694 61.3685 72.1154 61.4309 72.1393C61.4411 72.1901 61.4672 72.2363 61.5053 72.2713C61.5435 72.3062 61.5918 72.3282 61.6432 72.334C61.6947 72.3397 61.7466 72.329 61.7916 72.3034C61.8365 72.2777 61.8722 72.2384 61.8934 72.1912C62.0728 71.8125 63.9165 67.8881 63.8653 67.4675Z" fill="#5397FD"/>
<path d="M59.5219 48.6013C60.0575 49.4181 61.4819 49.1888 61.9275 48.2888C62.0875 47.9656 61.7538 47.7263 61.4963 47.9763C61.2679 48.1523 60.9999 48.2698 60.7156 48.3183C60.4313 48.3667 60.1395 48.3448 59.8657 48.2544C59.5925 48.0731 59.3369 48.3181 59.5219 48.6013Z" fill="white"/>
<path d="M111.667 75.1725C111.645 75.007 111.586 74.8485 111.495 74.7087C111.404 74.5689 111.283 74.4512 111.14 74.3643C110.997 74.2774 110.837 74.2235 110.671 74.2065C110.505 74.1896 110.337 74.21 110.18 74.2662C110.138 74.2703 110.098 74.2844 110.062 74.3072C110.027 74.33 109.997 74.361 109.976 74.3975C109.618 74.4952 109.291 74.6821 109.024 74.9406C108.76 75.2108 108.597 75.5641 108.564 75.9406C108.542 76.1639 108.577 76.3891 108.666 76.5951C108.755 76.8012 108.894 76.9814 109.071 77.119C109.249 77.2566 109.458 77.347 109.679 77.382C109.901 77.4169 110.128 77.3952 110.339 77.3187C110.759 77.148 111.114 76.8481 111.353 76.4623C111.592 76.0765 111.702 75.6248 111.667 75.1725Z" fill="#5397FD"/>
<path d="M115.137 78.8675C114.866 75.9191 114.263 73.0107 113.341 70.1975C112.923 69.0991 112.299 68.0913 111.501 67.2287C111.429 67.1527 111.33 67.1075 111.225 67.1025C111.121 67.0975 111.018 67.1331 110.939 67.2019C109.689 68.2217 108.387 69.1747 107.037 70.0569C106.245 70.6861 105.396 71.2396 104.501 71.71C104.447 71.7335 104.399 71.7682 104.36 71.8117C104.32 71.8553 104.291 71.9067 104.273 71.9625C104.255 72.0184 104.25 72.0774 104.257 72.1356C104.264 72.1938 104.283 72.2498 104.313 72.3C105.876 74.8831 106.044 75.5669 106.098 78.0313C106.146 80.1406 105.963 82.4381 104.822 84.1919C104.777 84.2625 104.754 84.3458 104.759 84.4299C104.763 84.514 104.794 84.5945 104.847 84.66C104.9 84.7255 104.972 84.7726 105.053 84.7946C105.134 84.8166 105.221 84.8124 105.299 84.7825C108.179 83.6644 114.362 81.9131 114.837 81.7362C114.881 81.721 114.92 81.6947 114.95 81.6599C114.981 81.625 115.002 81.5828 115.011 81.5375C115.046 81.4992 115.068 81.4505 115.073 81.3988C115.175 80.559 115.197 79.7113 115.137 78.8675ZM108.338 82.6056C108.273 82.3058 108.11 82.0359 107.876 81.8377C107.642 81.6394 107.349 81.5238 107.042 81.5087C107.173 80.495 107.218 79.4719 107.176 78.4506C107.198 76.8161 106.996 75.1863 106.575 73.6069C106.792 73.3327 106.917 72.9978 106.935 72.6488C106.952 72.2998 106.86 71.9542 106.671 71.66C107.646 70.8251 108.671 70.0504 109.741 69.34C110.003 69.6689 110.366 69.9027 110.774 70.0056C111.182 70.1084 111.612 70.0746 111.999 69.9094C113.359 72.7087 113.812 76.2512 114.024 79.3287C113.52 79.4337 113.061 79.6918 112.709 80.0678C112.357 80.4438 112.13 80.9193 112.058 81.4294C110.854 81.9162 109.526 82.0625 108.338 82.6056Z" fill="#5397FD"/>
<path d="M16.6905 38.755C16.6784 38.531 16.6099 38.3138 16.4912 38.1235C16.3726 37.9331 16.2077 37.7759 16.012 37.6664C15.8162 37.557 15.596 37.4988 15.3717 37.4973C15.1474 37.4959 14.9264 37.5512 14.7293 37.6581C14.3393 37.8899 14.0331 38.2396 13.8548 38.6567C13.6765 39.0738 13.6354 39.5367 13.7374 39.9788C13.7838 40.1392 13.8655 40.2871 13.9766 40.4118C14.0876 40.5365 14.2252 40.6348 14.3792 40.6994C14.5331 40.764 14.6996 40.7933 14.8664 40.7852C15.0332 40.7771 15.196 40.7317 15.343 40.6525C15.384 40.6422 15.422 40.6222 15.4537 40.5943C15.4855 40.5664 15.5101 40.5312 15.5255 40.4919C15.8641 40.3409 16.1594 40.1073 16.3843 39.8125C16.6045 39.5055 16.7126 39.1322 16.6905 38.755Z" fill="#5397FD"/>
<path d="M21.435 41.7193C19.4975 39.3956 19.2337 38.745 18.81 36.3193C18.45 34.2568 18.28 31.9493 19.1487 30.0375C19.184 29.9605 19.194 29.8742 19.1771 29.7912C19.1602 29.7082 19.1173 29.6328 19.0547 29.5757C18.9921 29.5187 18.9129 29.483 18.8287 29.4739C18.7445 29.4648 18.6596 29.4826 18.5862 29.525C15.935 31.0475 10.005 33.75 9.61684 33.9643C9.57578 33.9857 9.54106 34.0176 9.51616 34.0566C9.49126 34.0957 9.47706 34.1406 9.47497 34.1868C9.44601 34.2299 9.43196 34.2813 9.43497 34.3331C9.57596 36.4329 10.0476 38.4973 10.8325 40.45C11.8325 43.2 12.7575 45.9968 15.0875 47.8087C15.1705 47.8738 15.2754 47.9041 15.3803 47.8934C15.4852 47.8827 15.5819 47.8317 15.65 47.7512C16.7323 46.5556 17.8775 45.4184 19.0806 44.3443C19.5181 43.9281 19.9556 43.4693 20.4156 43.0506C21.3143 42.2331 21.4781 42.3662 21.5268 42.0456C21.5358 41.9878 21.5322 41.9288 21.5163 41.8725C21.5005 41.8162 21.4727 41.764 21.435 41.7193ZM12.4112 33.8518C13.5275 33.19 14.8193 32.8462 15.9112 32.1312C16.0205 32.418 16.2213 32.6608 16.4825 32.822C16.7438 32.9831 17.0509 33.0536 17.3562 33.0225C17.3786 34.0442 17.4878 35.0623 17.6825 36.0656C17.9043 37.6851 18.3481 39.2664 19.0012 40.765C18.8286 41.0683 18.7548 41.4178 18.79 41.765C18.8251 42.1122 18.9676 42.4399 19.1975 42.7025C18.3585 43.674 17.461 44.5934 16.51 45.4556C16.2014 45.1696 15.8075 44.9928 15.3888 44.9523C14.97 44.9117 14.5495 45.0097 14.1918 45.2312C12.4256 42.6631 11.4475 39.2212 10.7793 36.2212C11.2623 36.0424 11.6782 35.7189 11.9703 35.2948C12.2623 34.8707 12.4163 34.3667 12.4112 33.8518Z" fill="#5397FD"/>
<path d="M112.479 30.3837C112.467 30.1597 112.399 29.9423 112.28 29.7519C112.162 29.5615 111.997 29.4042 111.801 29.2947C111.605 29.1852 111.385 29.127 111.16 29.1256C110.936 29.1243 110.715 29.1797 110.518 29.2868C110.128 29.5185 109.821 29.8681 109.643 30.2852C109.465 30.7024 109.423 31.1654 109.525 31.6074C109.572 31.7678 109.654 31.9157 109.765 32.0403C109.876 32.165 110.014 32.2632 110.168 32.3277C110.322 32.3922 110.488 32.4215 110.655 32.4134C110.822 32.4052 110.985 32.3598 111.132 32.2806C111.173 32.2704 111.21 32.2505 111.242 32.2227C111.274 32.1948 111.298 32.1598 111.314 32.1206C111.651 31.9679 111.947 31.7346 112.174 31.4412C112.394 31.1343 112.502 30.7608 112.479 30.3837Z" fill="#5397FD"/>
<path d="M117.222 33.3475C115.288 31.025 115.021 30.3756 114.597 27.9481C114.236 25.8856 114.067 23.5781 114.936 21.6663C114.971 21.5892 114.981 21.5029 114.965 21.4198C114.948 21.3366 114.905 21.261 114.842 21.2038C114.78 21.1467 114.7 21.1109 114.616 21.1018C114.532 21.0927 114.447 21.1107 114.373 21.1531C111.72 22.675 105.769 25.3875 105.399 25.5906C105.358 25.6122 105.323 25.6442 105.299 25.6833C105.274 25.7225 105.26 25.7675 105.258 25.8138C105.229 25.8569 105.215 25.9082 105.217 25.96C105.359 28.0597 105.83 30.124 106.615 32.0769C107.615 34.83 108.538 37.6219 110.87 39.4356C110.953 39.5004 111.058 39.5305 111.162 39.5198C111.267 39.5091 111.364 39.4583 111.432 39.3781C112.514 38.1825 113.659 37.045 114.862 35.9706C115.3 35.5544 115.737 35.0956 116.197 34.6775C117.099 33.8575 117.26 33.9931 117.309 33.6725C117.318 33.6153 117.315 33.5567 117.3 33.5007C117.285 33.4447 117.259 33.3925 117.222 33.3475ZM108.199 25.4806C109.315 24.8187 110.607 24.475 111.699 23.76C111.808 24.0467 112.009 24.2894 112.27 24.4505C112.532 24.6116 112.839 24.6821 113.144 24.6513C113.166 25.673 113.276 26.6911 113.47 27.6944C113.693 29.3141 114.138 30.8954 114.792 32.3938C114.62 32.6971 114.546 33.0467 114.581 33.3939C114.616 33.7411 114.759 34.0688 114.989 34.3312C114.15 35.3014 113.252 36.2198 112.301 37.0813C111.993 36.7953 111.599 36.6185 111.18 36.578C110.761 36.5375 110.341 36.6354 109.983 36.8569C108.22 34.2944 107.241 30.8569 106.571 27.8463C107.052 27.6671 107.467 27.3438 107.758 26.9205C108.05 26.4972 108.204 25.9945 108.199 25.4806Z" fill="#5397FD"/>
<path d="M34.0157 5.66375C34.0075 5.42203 33.9086 5.19225 33.7386 5.02019C33.5687 4.84812 33.3401 4.7464 33.0985 4.73529C32.8569 4.72417 32.62 4.80448 32.435 4.96021C32.2499 5.11595 32.1303 5.33568 32.1 5.57563C31.7575 7.115 34.0007 8.17688 34.0157 5.66375Z" fill="#5397FD"/>
<path d="M37.1887 8.76812C37.0532 7.1352 37.0098 5.49593 37.0587 3.85812C37.1881 3.0325 36.0744 3.62812 34.8012 3.44062C33.9025 3.31187 31.5081 2.11749 30.8337 0.556245C30.7998 0.477701 30.7417 0.412055 30.6678 0.368889C30.594 0.325723 30.5082 0.307297 30.4231 0.3163C30.3381 0.325304 30.2581 0.361265 30.1949 0.418936C30.1317 0.476606 30.0886 0.552966 30.0719 0.636869C29.5094 3.57437 28.3587 6.97687 28.6187 7.23625C29.0031 7.97375 32.3887 8.98625 33.3531 9.22312C34.5012 9.505 37.3075 9.6925 37.1887 8.76812ZM29.7019 5.51C29.8506 4.68312 30.2069 3.87625 30.3237 3.0425C30.5097 3.07879 30.7024 3.05493 30.8739 2.97435C31.0454 2.89378 31.1867 2.76069 31.2775 2.59437C32.4739 3.48909 33.8397 4.13146 35.2919 4.4825C35.347 4.67368 35.4695 4.83847 35.6366 4.94645C35.8037 5.05443 36.0043 5.09831 36.2012 5.07C36.2812 6.97687 36.2219 6.21062 36.2725 7.49187C36.0338 7.58401 35.8234 7.73713 35.6623 7.93595C35.5012 8.13477 35.395 8.37235 35.3544 8.625C33.521 8.53613 31.7276 8.05758 30.0937 7.22125C30.2131 6.93045 30.2394 6.60985 30.1693 6.30345C30.0991 5.99706 29.9358 5.71989 29.7019 5.51Z" fill="#5397FD"/>
<path d="M58.8493 18.3906C58.8962 18.4997 58.9639 18.5987 59.0487 18.6818C59.268 18.8308 59.5207 18.9233 59.7843 18.9512C59.9777 19.0091 60.184 19.0077 60.3765 18.947C60.569 18.8864 60.739 18.7694 60.8643 18.6112C60.925 18.5753 60.9689 18.5168 60.9864 18.4485C61.004 18.3803 60.9936 18.3078 60.9577 18.2472C60.9219 18.1865 60.8633 18.1426 60.7951 18.125C60.7268 18.1075 60.6544 18.1178 60.5937 18.1537C60.5081 18.1643 60.4449 18.1231 60.3606 18.1287C60.3149 18.1287 60.2699 18.1375 60.2237 18.1425C59.9463 18.156 59.6693 18.11 59.4112 18.0075C59.3124 17.9868 59.2412 18.02 59.1449 18.0018C59.0934 17.9626 59.0284 17.9455 58.9642 17.9543C58.9 17.963 58.842 17.9969 58.8027 18.0484C58.7635 18.1 58.7464 18.165 58.7552 18.2291C58.7639 18.2933 58.7978 18.3514 58.8493 18.3906Z" fill="#5397FD"/>
<path d="M61.7572 17.0094C60.5277 16.6161 59.2571 16.3657 57.9703 16.2631C57.9005 16.2547 57.8301 16.2741 57.7746 16.3174C57.7191 16.3606 57.683 16.424 57.6741 16.4938C57.6609 16.5988 57.7172 16.5831 57.6066 16.5725C56.8759 15.4703 56.5201 14.1618 56.5922 12.8413C56.5919 12.7507 56.56 12.663 56.5019 12.5935C56.4438 12.524 56.3632 12.477 56.2741 12.4606C55.6422 12.3406 55.0203 12.1794 54.3928 12.0406C53.1559 11.7663 52.5422 11.745 51.4953 11.5538C50.1466 11.3038 50.0966 11.0731 49.8166 11.2944C49.7631 11.337 49.7211 11.3923 49.6945 11.4553C49.6678 11.5183 49.6574 11.587 49.6641 11.655C49.887 14.0956 51.0451 16.3555 52.8959 17.9619C53.8559 18.7975 55.2709 18.9056 56.4453 19.1406C58.8828 19.625 60.6047 19.7775 61.9416 17.5456C61.97 17.4995 61.9879 17.4476 61.9938 17.3937C61.9998 17.3398 61.9938 17.2852 61.9761 17.2339C61.9585 17.1827 61.9297 17.1359 61.8919 17.0971C61.854 17.0583 61.808 17.0283 61.7572 17.0094ZM55.0966 18.0625C56.1459 17.8294 55.6347 16.0206 54.3291 16.1081L54.3109 16.1013C53.5609 16.4275 53.7397 17.3663 54.2703 17.8244C53.9649 17.7166 53.6814 17.5546 53.4334 17.3463C53.1241 17.0767 52.834 16.7858 52.5653 16.4756C52.1261 15.7748 51.8306 14.9936 51.6959 14.1775C51.8028 14.0222 51.874 13.8452 51.9044 13.6591C51.9347 13.473 51.9235 13.2825 51.8716 13.1013C52.8387 13.3685 53.8275 13.5499 54.8266 13.6431C54.7919 13.7955 54.7894 13.9534 54.8191 14.1068C54.8489 14.2601 54.9103 14.4056 54.9993 14.534C55.0884 14.6624 55.2032 14.7707 55.3365 14.8523C55.4698 14.9338 55.6186 14.9867 55.7734 15.0075C55.8431 15.5638 56.0506 16.0938 56.3772 16.5494C56.8195 17.3033 57.3636 17.9927 57.9941 18.5981C57.5547 18.5406 55.1622 18.0769 55.0966 18.0625Z" fill="#5397FD"/>
<path d="M31.6337 84.8081C29.7118 84.1789 27.7251 83.7686 25.7112 83.585C25.6653 83.5794 25.6187 83.5859 25.5761 83.6038C25.5335 83.6216 25.4962 83.6503 25.468 83.687C25.4398 83.7236 25.4217 83.7669 25.4153 83.8127C25.409 83.8585 25.4147 83.9052 25.4318 83.9481C25.2651 83.931 25.1006 83.9156 24.9381 83.9019C23.7975 82.165 23.2341 80.1126 23.3281 78.0369C23.3279 77.9462 23.296 77.8585 23.2379 77.789C23.1798 77.7194 23.0991 77.6725 23.0099 77.6562C22.0099 77.4687 21.0249 77.2188 20.0324 76.9994C18.0824 76.5694 17.1143 76.5362 15.4649 76.2362C13.3243 75.8419 13.3181 75.5325 13.0031 75.7806C12.9496 75.8233 12.9077 75.8786 12.8811 75.9416C12.8544 76.0046 12.8439 76.0732 12.8506 76.1413C13.1988 79.9312 14.9986 83.4399 17.8737 85.9338C19.3399 87.2106 21.5462 87.3762 23.3674 87.7462C27.1349 88.4962 29.7556 88.7537 31.8187 85.3475C31.8477 85.3012 31.866 85.249 31.8723 85.1947C31.8785 85.1404 31.8725 85.0854 31.8548 85.0337C31.8371 84.982 31.808 84.9349 31.7698 84.8959C31.7315 84.8569 31.685 84.8269 31.6337 84.8081ZM19.5618 86.0175C17.9118 84.8956 16.5124 83.6206 15.8243 80.1425C15.9928 79.8975 16.105 79.6182 16.1529 79.3248C16.2008 79.0313 16.1831 78.7308 16.1012 78.445C17.628 78.8663 19.1891 79.152 20.7662 79.2988C20.7118 79.5392 20.708 79.7884 20.7551 80.0304C20.8021 80.2724 20.8991 80.5019 21.0397 80.7044C21.1803 80.9069 21.3615 81.078 21.5718 81.2067C21.7821 81.3353 22.0169 81.4188 22.2612 81.4519C22.3711 82.3294 22.699 83.1655 23.2149 83.8838C23.9744 85.1967 24.9408 86.3786 26.0768 87.3837C25.2818 87.3037 24.4337 87.1338 23.5274 86.9506C22.1783 86.7696 20.8501 86.457 19.5618 86.0175Z" fill="#5397FD"/>
<path d="M19.9795 83.1875L19.9507 83.1763C18.247 83.9156 19.5757 86.6506 21.2245 86.2638C22.8238 85.8881 22.042 83.05 19.9795 83.1875Z" fill="#5397FD"/>
<path d="M98.7821 22.3537C98.5015 22.1344 98.4465 22.3687 97.1571 22.615C96.1571 22.8056 95.5627 22.8275 94.3683 23.1031C93.7652 23.2412 93.1677 23.4019 92.5602 23.5213C92.4715 23.5383 92.3915 23.5857 92.3338 23.6552C92.2761 23.7248 92.2444 23.8122 92.244 23.9025C92.3148 25.217 91.9761 26.5211 91.2746 27.635C91.1933 27.6425 91.2415 27.6556 91.229 27.5537C91.2198 27.4838 91.1832 27.4204 91.1273 27.3774C91.0715 27.3344 91.0008 27.3153 90.9308 27.3244C89.6893 27.4287 88.4647 27.6805 87.2827 28.0744C87.2332 28.0936 87.1884 28.1235 87.1515 28.1617C87.1146 28.2 87.0865 28.2459 87.0691 28.2961C87.0517 28.3463 87.0454 28.3998 87.0506 28.4527C87.0559 28.5056 87.0726 28.5567 87.0996 28.6025C88.3652 30.8025 89.9977 30.7006 92.4071 30.2025C93.559 29.9631 94.9027 29.8594 95.8315 29.0187C97.6253 27.3849 98.7353 25.1334 98.939 22.7156C98.9456 22.647 98.9347 22.5777 98.9072 22.5144C98.8798 22.4511 98.8367 22.3959 98.7821 22.3537ZM90.9127 29.6556C91.5202 29.0472 92.0423 28.359 92.4646 27.61C92.78 27.1506 92.9793 26.6215 93.0452 26.0681C93.1969 26.0428 93.3418 25.9867 93.4709 25.9032C93.6001 25.8198 93.7107 25.7107 93.7961 25.5828C93.8814 25.4549 93.9396 25.3108 93.9671 25.1595C93.9946 25.0082 93.9907 24.8529 93.9558 24.7031C94.9179 24.6102 95.8694 24.429 96.7983 24.1619C96.7482 24.3429 96.7373 24.5326 96.7664 24.7182C96.7955 24.9039 96.8639 25.0811 96.9671 25.2381C96.8411 26.026 96.571 26.7839 96.1702 27.4737C95.8976 27.8082 95.6001 28.1216 95.2802 28.4112C95.0494 28.6145 94.7834 28.7738 94.4952 28.8812C95.0021 28.4219 95.1727 27.4875 94.4521 27.1619L94.4346 27.1687C93.1733 27.0819 92.6927 28.8975 93.6946 29.1231C93.6002 29.145 91.3377 29.5987 90.9127 29.6556Z" fill="#5397FD"/>
<path d="M61.596 73.3094C64.6485 67.9969 66.3766 62.5294 68.346 56.7225C68.3752 56.6351 68.4334 56.5603 68.5109 56.5104C68.5884 56.4605 68.6806 56.4385 68.7723 56.4481C75.0516 57.1062 80.9079 57.9119 92.731 55.915C97.2491 55.1454 101.716 54.0997 106.106 52.7837C106.191 52.7584 106.282 52.7632 106.364 52.7974C106.445 52.8316 106.513 52.893 106.554 52.9712C107.997 55.5943 108.905 58.4774 109.225 61.4537C109.231 61.5193 109.219 61.5853 109.19 61.6442C109.16 61.703 109.115 61.7525 109.059 61.7869C103.246 65.3437 97.1241 69.1944 90.6016 71.3219C90.5347 71.3438 90.4617 71.3384 90.3987 71.3068C90.3357 71.2752 90.2878 71.2199 90.2654 71.1531C90.0616 70.5312 91.3148 71.0131 97.9916 67.51C101.617 65.6081 105.117 63.3931 108.499 61.3006C108.16 58.6047 107.322 55.9956 106.026 53.6075C101.706 54.9045 97.3109 55.9375 92.8654 56.7006C81.1716 58.6956 74.9904 57.9225 69.0116 57.2925C66.9754 63.2925 65.2066 68.855 61.9573 74.32C61.9211 74.3805 61.87 74.4306 61.8088 74.4655C61.7476 74.5005 61.6785 74.519 61.608 74.5194C61.5375 74.5198 61.4682 74.502 61.4066 74.4677C61.3451 74.4334 61.2934 74.3838 61.2566 74.3237C58.0785 69.1194 55.2354 63.5937 52.5973 58.1556C42.8223 58.9125 32.4223 60.6375 23.4498 59.205C20.1329 58.675 16.891 57.8612 13.5435 57.4244C12.3799 59.7901 11.3512 62.2198 10.4623 64.7019C11.6654 65.2737 12.8104 65.9694 14.0054 66.56C16.2466 67.6712 18.4429 68.11 20.8448 68.885C28.1835 71.2544 35.321 72.9475 43.0866 73.3225C43.1289 73.3243 43.1704 73.3346 43.2087 73.3526C43.247 73.3706 43.2814 73.3961 43.3098 73.4275C43.5241 73.66 43.256 73.7094 43.3348 77.9819C43.3973 81.3612 43.6379 84.7519 43.6316 88.1225C43.6285 88.1849 43.6014 88.2438 43.5561 88.2868C43.5108 88.3299 43.4507 88.3539 43.3882 88.3539C43.3257 88.3539 43.2656 88.3299 43.2203 88.2868C43.175 88.2438 43.1479 88.1849 43.1448 88.1225C43.1279 83.3962 42.5648 78.6956 42.7373 73.9525C34.971 73.6094 28.066 72.0231 20.6035 69.64C19.2335 69.2025 17.8204 68.8419 16.4441 68.395C13.1766 67.3325 12.2154 66.3669 9.78788 65.2787C9.69386 65.2367 9.61954 65.1601 9.58024 65.0649C9.54095 64.9697 9.53965 64.863 9.57663 64.7669C10.5421 62.0451 11.6721 59.3846 12.9604 56.8C12.9991 56.728 13.0587 56.6695 13.1313 56.632C13.2039 56.5945 13.2862 56.5799 13.3673 56.59C16.8216 57.0194 20.161 57.8587 23.5785 58.4025C32.506 59.8256 42.9954 58.09 52.8148 57.3181C52.8969 57.3118 52.9791 57.3304 53.0504 57.3715C53.1218 57.4127 53.1791 57.4745 53.2148 57.5487C55.796 62.8844 58.5473 68.25 61.596 73.3094Z" fill="white"/>
<path d="M81.1268 74.75C81.2157 75.6522 81.2019 76.5616 81.0856 77.4606C81.0856 77.5312 81.0575 77.599 81.0076 77.6489C80.9577 77.6988 80.8899 77.7269 80.8193 77.7269C80.7487 77.7269 80.681 77.6988 80.6311 77.6489C80.5811 77.599 80.5531 77.5312 80.5531 77.4606C80.401 76.4426 80.314 75.416 80.2925 74.3869C80.2899 74.3325 80.2982 74.2782 80.3169 74.227C80.3356 74.1759 80.3644 74.1291 80.4015 74.0892C80.4386 74.0494 80.4832 74.0174 80.5329 73.9951C80.5826 73.9728 80.6362 73.9606 80.6906 73.9594C81.7069 73.8715 82.7045 73.6328 83.6506 73.2512C84.0993 73.1 84.6562 72.9581 84.8381 72.905C84.8973 72.8789 84.9644 72.8774 85.0247 72.9007C85.085 72.9241 85.1335 72.9705 85.1596 73.0297C85.1858 73.0889 85.1873 73.156 85.1639 73.2163C85.1405 73.2766 85.0941 73.3251 85.035 73.3512C84.7202 73.5586 84.3936 73.7475 84.0568 73.9169C83.1292 74.3446 82.1407 74.6257 81.1268 74.75Z" fill="white"/>
<path d="M107.61 53.1525C108.598 52.3781 108.322 52.6569 110.673 50.3494C111.713 49.4287 112.674 48.4236 113.548 47.3444C113.598 47.2947 113.627 47.227 113.627 47.1562C113.628 47.0854 113.6 47.0173 113.551 46.9669C113.526 46.9419 113.497 46.9221 113.464 46.9085C113.432 46.8948 113.397 46.8877 113.362 46.8875C113.291 46.887 113.223 46.9147 113.173 46.9644C112.731 47.3194 112.413 47.5494 112.015 47.9175C110.909 48.9363 108.515 51.3038 108.099 51.7638C107.773 52.1231 107.468 52.5369 107.261 52.8106C107.216 52.857 107.191 52.9194 107.191 52.9842C107.192 53.049 107.219 53.1109 107.265 53.1563C107.311 53.2016 107.374 53.2267 107.438 53.226C107.503 53.2253 107.565 53.1988 107.61 53.1525Z" fill="white"/>
<path d="M111.453 51.3981C111.558 52.5281 111.234 53.6562 110.544 54.5575C110.409 54.7584 110.256 54.9466 110.087 55.12C109.781 55.3338 110.063 56.0675 111.117 55.0719C111.887 54.2078 112.295 53.0806 112.257 51.9238C112.249 50.4163 111.453 49.4837 111.453 51.3981Z" fill="white"/>
<path d="M113.536 50.725C114.724 50.0338 114.277 50.3556 115.747 49.475C116.551 49.0171 117.327 48.5127 118.071 47.9644C118.13 47.9281 118.172 47.8705 118.189 47.8038C118.206 47.7371 118.196 47.6664 118.162 47.6065C118.128 47.5467 118.072 47.5023 118.006 47.4828C117.94 47.4633 117.869 47.4701 117.808 47.5019C116.446 48.1452 115.132 48.8861 113.877 49.7188C113.641 49.9063 113.451 50.1519 113.252 50.3319C113.205 50.3713 113.174 50.4272 113.166 50.4885C113.158 50.5497 113.174 50.6116 113.21 50.6616C113.246 50.7116 113.3 50.7459 113.361 50.7577C113.421 50.7695 113.484 50.7578 113.536 50.725Z" fill="white"/>
<path d="M114.239 52.4375C114.39 52.3568 114.832 52.2087 115.099 52.0781C115.644 51.8118 116.187 51.5156 116.75 51.255C118.452 50.4687 118.011 50.6481 119.49 49.9562C119.556 49.9313 119.61 49.8812 119.639 49.8167C119.668 49.7522 119.671 49.6788 119.646 49.6125C119.621 49.5462 119.571 49.4924 119.507 49.4631C119.442 49.4338 119.369 49.4313 119.302 49.4562C118.935 49.5675 118.615 49.5993 118.267 49.725C117.034 50.1739 115.846 50.7359 114.717 51.4037C114.448 51.5843 114.228 51.8268 113.975 52.0287C113.926 52.0656 113.892 52.12 113.881 52.1809C113.87 52.2418 113.882 52.3046 113.916 52.3566C113.949 52.4086 114.002 52.4459 114.062 52.4609C114.122 52.4759 114.185 52.4675 114.239 52.4375Z" fill="white"/>
<path d="M114.887 54.5625C116.53 54.1289 118.107 53.4746 119.575 52.6175C119.639 52.5881 119.689 52.5344 119.713 52.4683C119.737 52.4022 119.735 52.3291 119.705 52.265C119.676 52.2009 119.622 52.1512 119.556 52.1267C119.49 52.1022 119.417 52.1049 119.353 52.1344C119.15 52.2081 118.94 52.2306 118.732 52.2925C118.306 52.4175 116.728 53.0425 116.018 53.3487C115.545 53.5603 115.094 53.8204 114.674 54.125C114.62 54.1555 114.579 54.2055 114.561 54.2648C114.542 54.3241 114.547 54.3883 114.574 54.4442C114.602 54.5001 114.649 54.5434 114.707 54.5654C114.765 54.5874 114.83 54.5864 114.887 54.5625Z" fill="white"/>
<path d="M109.647 59.9651C118.378 54.8676 119.04 54.7944 118.798 54.3401C118.764 54.2781 118.707 54.2321 118.64 54.2119C118.572 54.1918 118.499 54.1992 118.437 54.2326C117.845 54.4951 117.321 54.7044 116.712 55.0119C114.633 56.0525 112.617 57.2124 110.673 58.4857C110.215 58.8214 109.777 59.1828 109.36 59.5682C109.308 59.6061 109.272 59.6634 109.262 59.7275C109.252 59.7916 109.267 59.8571 109.305 59.9097C109.343 59.9624 109.4 59.9978 109.464 60.0081C109.528 60.0185 109.594 60.003 109.647 59.9651Z" fill="white"/>
<path d="M1.11115 59.4731C2.31906 60.276 3.58817 60.9828 4.90677 61.5869C6.19931 62.2522 7.54145 62.8164 8.92115 63.2744C8.98604 63.3018 9.05918 63.3023 9.12446 63.2759C9.18975 63.2494 9.24184 63.198 9.26927 63.1331C9.29671 63.0682 9.29724 62.9951 9.27075 62.9298C9.24426 62.8645 9.19292 62.8124 9.12802 62.785C6.6974 61.6106 7.73552 62.06 5.4249 60.9225C2.27052 59.3688 2.9549 59.755 1.33365 59.0369C1.2758 59.0074 1.20859 59.0021 1.14682 59.0221C1.08505 59.0421 1.03378 59.0859 1.00427 59.1438C0.974766 59.2016 0.96945 59.2688 0.989493 59.3306C1.00954 59.3923 1.0533 59.4436 1.11115 59.4731Z" fill="white"/>
<path d="M1.51868 57.6588C2.18388 58.1245 2.8941 58.5223 3.63868 58.8463C4.3649 59.2146 5.12066 59.5215 5.89805 59.7638C5.96187 59.7936 6.03493 59.7969 6.10115 59.7729C6.16738 59.7488 6.22134 59.6995 6.25118 59.6357C6.28102 59.5719 6.28428 59.4988 6.26025 59.4326C6.23622 59.3663 6.18687 59.3124 6.12305 59.2825C5.73993 59.0613 5.72993 58.9738 5.2593 58.7275C4.65243 58.4088 2.88868 57.5569 2.4468 57.3969C2.1968 57.3063 1.81493 57.245 1.7243 57.215C1.66546 57.1878 1.59819 57.185 1.5373 57.2073C1.47641 57.2297 1.42688 57.2753 1.39962 57.3341C1.37235 57.393 1.36957 57.4602 1.3919 57.5211C1.41423 57.582 1.45983 57.6315 1.51868 57.6588Z" fill="white"/>
<path d="M2.19809 54.8075C2.36371 54.9638 2.51059 55.1863 2.73246 55.3731C3.57507 55.995 4.45141 56.5698 5.35746 57.095C5.61746 57.2425 5.87934 57.3006 6.14621 57.4388C6.20589 57.4763 6.27803 57.4886 6.34677 57.473C6.41552 57.4573 6.47523 57.415 6.51277 57.3553C6.55032 57.2956 6.56262 57.2235 6.54697 57.1548C6.53133 57.086 6.48901 57.0263 6.42934 56.9888C6.07524 56.6721 5.69931 56.3808 5.30434 56.1169C4.4089 55.4834 3.46897 54.9152 2.49184 54.4169C2.44004 54.3779 2.37488 54.3611 2.31071 54.3702C2.24654 54.3793 2.1886 54.4135 2.14965 54.4653C2.1107 54.5171 2.09392 54.5823 2.103 54.6464C2.11208 54.7106 2.14629 54.7686 2.19809 54.8075Z" fill="white"/>
<path d="M3.27192 52.5338C3.42379 52.675 3.62879 52.9506 3.82004 53.1219C4.15504 53.4225 5.84754 54.6994 6.50754 55.17C6.95879 55.4938 7.03754 55.4613 7.46442 55.7419C7.52045 55.7813 7.58951 55.7976 7.65724 55.7873C7.72497 55.7771 7.78616 55.7412 7.82809 55.6871C7.87001 55.6329 7.88946 55.5647 7.88237 55.4965C7.87529 55.4284 7.84222 55.3656 7.79004 55.3213C7.16958 54.6911 6.49629 54.1152 5.77754 53.6C5.09421 53.0391 4.35391 52.5514 3.56879 52.145C3.51724 52.1056 3.45216 52.0884 3.38787 52.097C3.32358 52.1056 3.26535 52.1394 3.22598 52.1909C3.18661 52.2425 3.16933 52.3076 3.17795 52.3719C3.18656 52.4362 3.22037 52.4944 3.27192 52.5338Z" fill="white"/>
<path d="M10.6936 58.7037C10.3868 58.3718 10.1212 58.0042 9.90236 57.6087C9.69544 57.2127 9.54802 56.7883 9.46486 56.3493C9.10611 54.8631 8.68361 55.6175 8.70174 56.445C8.80104 57.3674 9.19184 58.2342 9.81736 58.9193C10.6974 59.8893 11.7061 59.9062 10.6936 58.7037Z" fill="white"/>
<path d="M7.12099 51.1656C7.65883 52.2672 8.35078 53.2866 9.17599 54.1932C9.9343 55.1495 10.7953 56.0197 11.7435 56.7882C11.7941 56.8332 11.86 56.8571 11.9278 56.8551C11.9955 56.8531 12.0599 56.8253 12.1078 56.7774C12.1557 56.7295 12.1835 56.6651 12.1855 56.5974C12.1874 56.5297 12.1635 56.4638 12.1185 56.4132C11.4022 55.5975 11.9385 56.1007 10.8829 54.9132C9.28537 53.1094 8.52224 52.0382 8.24974 51.7088C8.04474 51.4588 7.70974 51.1419 7.52474 50.8963C7.48732 50.8469 7.43247 50.8137 7.37139 50.8034C7.31031 50.7931 7.24761 50.8066 7.19608 50.8409C7.14456 50.8753 7.1081 50.9281 7.09414 50.9884C7.08019 51.0487 7.08979 51.1121 7.12099 51.1656Z" fill="white"/>
<path d="M53.5344 65.9181C52.8056 66.2194 52.005 66.5519 51.2881 66.8744C51.2233 66.9034 51.1519 66.9149 51.0813 66.9077C51.0106 66.9005 50.943 66.8748 50.8854 66.8333C50.8277 66.7918 50.782 66.7359 50.7528 66.6711C50.7235 66.6064 50.7118 66.5351 50.7188 66.4644C50.8756 64.9788 51.0556 60.8231 51.0725 59.5131C51.0721 59.4485 51.0974 59.3863 51.1428 59.3403C51.1882 59.2943 51.25 59.2682 51.3147 59.2678C51.3793 59.2674 51.4415 59.2927 51.4875 59.3381C51.5335 59.3835 51.5596 59.4454 51.56 59.51C51.696 61.6232 51.7037 63.7427 51.5831 65.8569C52.3575 65.5156 53.4413 65.0737 54.2144 64.7494C54.291 64.7176 54.3755 64.7098 54.4566 64.7271C54.5378 64.7444 54.6118 64.7858 54.6689 64.846C54.726 64.9062 54.7634 64.9823 54.7764 65.0643C54.7893 65.1462 54.777 65.2302 54.7412 65.305C54.1619 66.5644 53.5192 67.7937 52.8156 68.9881C55.1594 70.9125 57.1063 71.9219 60.0725 74.2813C60.1284 74.3242 60.165 74.3876 60.1742 74.4575C60.1834 74.5274 60.1645 74.5981 60.1216 74.6541C60.0786 74.71 60.0152 74.7466 59.9453 74.7558C59.8754 74.765 59.8047 74.7461 59.7487 74.7031C57.9031 73.3281 54.5613 71.5381 52.0175 69.385C51.9422 69.3211 51.8927 69.232 51.878 69.1344C51.8633 69.0367 51.8844 68.937 51.9375 68.8538C52.522 67.9045 53.0551 66.9246 53.5344 65.9181Z" fill="white"/>
<path d="M70.1765 64.9806C70.0927 62.2306 70.1358 61.1825 70.224 58.1481C70.224 58.0835 70.2496 58.0215 70.2954 57.9758C70.3411 57.9301 70.4031 57.9044 70.4677 57.9044C70.5324 57.9044 70.5944 57.9301 70.6401 57.9758C70.6858 58.0215 70.7115 58.0835 70.7115 58.1481C70.9065 67.5069 70.9215 63.2106 71.0077 65.495C71.01 65.5592 70.997 65.623 70.9699 65.6813C70.9428 65.7395 70.9023 65.7905 70.8517 65.8301C70.8011 65.8697 70.7419 65.8968 70.6789 65.9092C70.6158 65.9215 70.5508 65.9188 70.489 65.9012C69.9331 65.748 69.3699 65.6229 68.8015 65.5262C69.4465 66.5381 70.239 67.4931 70.8877 68.5387C70.9159 68.5845 70.9347 68.6355 70.9431 68.6886C70.9516 68.7417 70.9494 68.7959 70.9368 68.8482C70.9242 68.9005 70.9014 68.9497 70.8697 68.9931C70.838 69.0366 70.798 69.0733 70.7521 69.1012C68.2841 70.6655 65.9177 72.3845 63.6671 74.2481C63.6135 74.291 63.5455 74.3116 63.4772 74.3057C63.4088 74.2997 63.3454 74.2677 63.3001 74.2162C63.2547 74.1648 63.2309 74.0978 63.2336 74.0293C63.2363 73.9607 63.2653 73.8959 63.3146 73.8481C65.3506 71.8848 67.5818 70.1345 69.9733 68.6244C69.2058 67.4606 68.3096 66.43 67.6433 65.1731C67.6079 65.106 67.5918 65.0304 67.5968 64.9547C67.6018 64.879 67.6276 64.8062 67.6716 64.7443C67.7155 64.6824 67.7757 64.634 67.8455 64.6043C67.9154 64.5746 67.9921 64.5649 68.0671 64.5763C68.7596 64.6875 69.4971 64.8125 70.1765 64.9806Z" fill="white"/>
<path d="M61.8202 74.9125C61.6771 76.8813 61.6458 77.5344 62.3202 84.9688C62.4577 86.495 62.5008 86.5406 62.6327 87.6181C62.6393 87.6864 62.672 87.7495 62.724 87.7943C62.776 87.839 62.8433 87.862 62.9118 87.8584C62.9803 87.8547 63.0447 87.8248 63.0917 87.7748C63.1387 87.7248 63.1646 87.6586 63.1639 87.59C63.1933 85.2063 63.2196 86.1081 62.5089 76.9269C62.4527 76.1944 62.3508 75.3744 62.3071 74.9069C62.3033 74.8444 62.2756 74.7858 62.2298 74.7432C62.184 74.7006 62.1235 74.6772 62.0609 74.678C61.9984 74.6787 61.9385 74.7034 61.8937 74.7471C61.8489 74.7908 61.8225 74.85 61.8202 74.9125Z" fill="white"/>
<path d="M42.9984 68.875C42.7193 70.1841 42.5785 71.519 42.5784 72.8575C42.5752 72.927 42.5993 72.995 42.6456 73.0469C42.692 73.0988 42.7568 73.1304 42.8262 73.135C42.8957 73.1396 42.9641 73.1168 43.0169 73.0714C43.0697 73.0261 43.1025 72.9618 43.1084 72.8925C43.3264 71.5821 43.4517 70.258 43.4834 68.93C43.487 68.8982 43.4843 68.8659 43.4755 68.8351C43.4666 68.8043 43.4518 68.7755 43.4318 68.7505C43.4119 68.7254 43.3872 68.7045 43.3591 68.689C43.3311 68.6735 43.3003 68.6636 43.2684 68.66C43.2366 68.6564 43.2043 68.6591 43.1735 68.6679C43.1427 68.6768 43.114 68.6916 43.0889 68.7116C43.0638 68.7315 43.0429 68.7563 43.0274 68.7843C43.0119 68.8123 43.002 68.8432 42.9984 68.875Z" fill="white"/>
<path d="M80.2636 70.2425C80.2284 71.2893 80.3313 72.3363 80.5698 73.3562C80.5813 73.4247 80.6191 73.486 80.6752 73.527C80.7313 73.5679 80.8012 73.5853 80.8699 73.5753C80.9387 73.5653 81.0008 73.5289 81.0429 73.4736C81.0851 73.4184 81.1039 73.3489 81.0954 73.28C81.0785 72.2437 80.9619 71.2114 80.7473 70.1975C80.7389 70.1353 80.7068 70.0788 80.6577 70.0397C80.6086 70.0006 80.5463 69.9821 80.4838 69.9879C80.4214 69.9937 80.3636 70.0234 80.3225 70.0709C80.2814 70.1183 80.2603 70.1798 80.2636 70.2425Z" fill="white"/>
<path d="M67.7136 56.3275C67.0304 56.1374 66.3253 56.0371 65.6161 56.0294C65.596 55.9925 65.5705 55.9588 65.5405 55.9294C64.9513 55.3601 64.3215 54.8343 63.6561 54.3563C63.5859 54.305 63.5012 54.2775 63.4143 54.2775C63.3273 54.2775 63.2426 54.305 63.1724 54.3563C62.3524 54.9563 61.6849 55.4763 60.9168 56.1463C60.4029 55.8801 59.9144 55.5675 59.4574 55.2125C59.5193 55.2005 59.5743 55.1655 59.6115 55.1147C59.6487 55.0638 59.6653 55.0007 59.658 54.9381C59.658 54.3719 59.6724 53.8131 59.668 53.245C59.6643 52.7981 59.6486 52.3519 59.6436 51.905C60.4004 52.022 61.1747 51.9344 61.8861 51.6513C61.8692 52.6182 61.9502 53.5844 62.128 54.535C62.1307 54.5698 62.1403 54.6037 62.1561 54.6348C62.1719 54.666 62.1937 54.6937 62.2202 54.7163C62.2467 54.739 62.2775 54.7563 62.3107 54.7671C62.3438 54.7779 62.3788 54.7821 62.4136 54.7794C62.4484 54.7767 62.4824 54.7671 62.5135 54.7513C62.5446 54.7355 62.5723 54.7137 62.595 54.6872C62.6177 54.6607 62.6349 54.6299 62.6457 54.5967C62.6566 54.5635 62.6607 54.5286 62.658 54.4938C62.658 54.345 62.6755 51.9938 62.688 51.6106C64.0005 50.8038 64.6686 49.3806 65.0318 47.8906C66.553 47.7725 67.4824 46.2656 66.6418 45.1631C66.6461 45.1525 66.6499 45.1419 66.6536 45.1306C67.543 42.3769 67.5124 39.6562 64.7786 38.6994C64.7173 38.1298 64.5498 37.5767 64.2849 37.0687C63.1786 35.1981 60.8211 35.4356 58.6836 35.7006C58.1266 35.7572 57.5749 35.8575 57.0336 36.0006C55.9711 36.3044 54.8086 36.5163 53.9461 35.8306C53.8827 35.7803 53.8057 35.75 53.725 35.7435C53.6443 35.7371 53.5635 35.7548 53.4929 35.7944C53.4223 35.834 53.365 35.8937 53.3284 35.9659C53.2918 36.0381 53.2775 36.1196 53.2874 36.2C53.353 36.7387 53.5831 37.2441 53.9461 37.6475C53.6338 37.6348 53.3264 37.5649 53.0393 37.4412C52.972 37.4115 52.8979 37.4006 52.8249 37.4097C52.7518 37.4189 52.6827 37.4478 52.6249 37.4933C52.567 37.5387 52.5227 37.5991 52.4966 37.6679C52.4705 37.7367 52.4636 37.8113 52.4768 37.8837C52.579 38.5317 52.9199 39.1181 53.4324 39.5275C52.9293 39.5056 52.7586 39.355 52.5449 39.5794C52.4984 39.6286 52.4653 39.6889 52.4487 39.7545C52.4321 39.8202 52.4325 39.889 52.4499 39.9544C52.5885 40.3852 52.8544 40.7639 53.2125 41.0406C53.5707 41.3173 54.0043 41.479 54.4561 41.5044C54.0524 42.8844 54.5543 44.1294 55.3436 45.3337C54.2186 45.9431 54.4499 47.9587 56.2511 48.215C56.3476 48.9872 56.6351 49.7232 57.0878 50.3562C57.5405 50.9891 58.144 51.4992 58.8436 51.84C58.8667 52.8945 58.9623 53.9462 59.1299 54.9875C59.0049 54.9094 58.8799 54.8363 58.7468 54.7706C58.6612 54.7272 58.563 54.7154 58.4695 54.7374C58.3761 54.7593 58.2934 54.8136 58.2361 54.8906C57.7381 55.4909 57.2747 56.119 56.848 56.7719C56.0332 56.8407 55.2293 57.0054 54.453 57.2625C54.4187 57.2692 54.3861 57.2825 54.357 57.3017C54.3279 57.321 54.3029 57.3458 54.2833 57.3747C54.2638 57.4037 54.2502 57.4361 54.2432 57.4704C54.2362 57.5046 54.2361 57.5398 54.2427 57.5741C54.2494 57.6083 54.2627 57.641 54.2819 57.6701C54.3012 57.6992 54.326 57.7242 54.3549 57.7437C54.3839 57.7633 54.4164 57.7769 54.4506 57.7839C54.4848 57.7909 54.52 57.791 54.5543 57.7844C55.3458 57.7097 56.1293 57.5654 56.8955 57.3531C57.333 58.2306 57.8535 59.0642 58.4499 59.8425C58.4605 59.8952 58.4868 59.9434 58.5253 59.9808C58.5638 60.0183 58.6127 60.0432 58.6657 60.0524C58.7186 60.0615 58.7731 60.0544 58.8219 60.032C58.8707 60.0096 58.9116 59.973 58.9393 59.9269C59.108 59.6825 60.4349 57.895 61.0643 57.0944C62.2743 59.0319 62.1168 58.4069 63.1205 59.6987C63.1309 59.7478 63.1562 59.7925 63.1929 59.8266C63.2297 59.8608 63.2761 59.8828 63.3257 59.8896C63.3754 59.8965 63.426 59.8878 63.4706 59.8648C63.5152 59.8419 63.5516 59.8057 63.5749 59.7612C64.2511 58.685 64.5161 58.4306 65.5224 56.59C66.2193 56.7616 66.9341 56.8501 67.6518 56.8538C67.7188 56.8568 67.7846 56.8343 67.8357 56.7908C67.8869 56.7473 67.9197 56.6861 67.9275 56.6194C67.9354 56.5527 67.9177 56.4856 67.878 56.4314C67.8383 56.3772 67.7796 56.3401 67.7136 56.3275ZM65.1261 42.0625C65.1603 42.0662 65.1919 42.0823 65.2149 42.1078C65.238 42.1332 65.2509 42.1663 65.2511 42.2006C65.2595 42.6712 65.2148 43.1413 65.118 43.6019C65.0586 43.8388 64.9968 44.1256 64.868 44.0906C64.6874 44.0412 64.9624 43.555 64.9693 42.3263C64.1424 42.2438 63.5199 42.3069 63.5199 42.1387C63.5255 41.9237 64.8799 42.035 65.1261 42.0625ZM61.6299 36.8656C61.7836 36.9099 61.9343 36.964 62.0811 37.0275C62.1407 37.06 62.1854 37.1142 62.2059 37.1789C62.2264 37.2435 62.2212 37.3136 62.1913 37.3745C62.1613 37.4354 62.1091 37.4824 62.0453 37.5056C61.9816 37.5289 61.9114 37.5267 61.8493 37.4994C61.733 37.4469 61.5993 37.3844 61.4743 37.3225C61.4137 37.3019 61.3638 37.258 61.3355 37.2006C61.3073 37.1431 61.303 37.0768 61.3236 37.0162C61.3443 36.9557 61.3881 36.9058 61.4456 36.8775C61.503 36.8493 61.5693 36.845 61.6299 36.8656ZM62.5049 40.9581C62.7131 41.3966 62.9827 41.8031 63.3055 42.1656C61.0771 42.0407 58.8416 42.1544 56.6374 42.505C56.008 42.6019 56.2561 42.1475 57.5124 42.1019C57.778 42.0919 57.7905 42.1169 57.8155 42.0738C57.9261 41.8788 58.0299 41.6794 58.128 41.4763C59.6059 41.7764 61.141 41.5948 62.508 40.9581H62.5049ZM61.6749 44.72C61.6715 44.7345 61.6646 44.7479 61.655 44.7592C61.6453 44.7704 61.633 44.7792 61.6192 44.7847C61.6054 44.7902 61.5905 44.7923 61.5757 44.7909C61.5609 44.7894 61.5467 44.7844 61.5343 44.7762V44.7831C61.2949 44.6413 60.7949 44.5331 60.8168 44.1337C60.8518 43.6731 60.8855 43.3281 60.9418 42.7894C60.9452 42.7566 60.9602 42.726 60.984 42.7032C61.0077 42.6803 61.0388 42.6666 61.0718 42.6644C62.2986 42.5863 62.1605 42.5088 62.0093 43.1694C61.9249 43.5269 61.8843 43.8181 61.6668 44.7188L61.6749 44.72ZM61.9674 44.8631C61.9694 44.4854 62.0205 44.1096 62.1193 43.745C62.1693 43.3719 62.2659 43.0066 62.4068 42.6575C62.4113 42.6359 62.4243 42.6169 62.4428 42.6049C62.4613 42.5928 62.4839 42.5886 62.5055 42.5931C62.5271 42.5977 62.5461 42.6106 62.5582 42.6292C62.5702 42.6477 62.5744 42.6702 62.5699 42.6919C62.5679 42.8428 62.5537 42.9933 62.5274 43.1419C62.5161 43.2044 62.2568 44.4913 62.2443 44.545C62.2199 44.655 62.1643 44.8269 62.1461 44.89C62.1389 44.9096 62.1252 44.9262 62.1072 44.9369C62.0892 44.9475 62.068 44.9516 62.0473 44.9484C62.0267 44.9453 62.0077 44.935 61.9937 44.9195C61.9797 44.9039 61.9715 44.884 61.9705 44.8631H61.9674ZM55.3611 37.2969C55.4474 36.9344 56.158 37.2144 57.9236 36.9256C58.4649 36.8369 60.4186 36.4 60.4524 36.9788C60.4668 37.2163 60.2649 37.2587 59.6568 37.4162C58.5485 37.7112 57.4047 37.8509 56.258 37.8313C56.0111 37.7913 55.2874 37.6063 55.3611 37.2969ZM57.0224 47.8056C57.0145 47.7063 56.9706 47.6134 56.8988 47.5443C56.8271 47.4752 56.7325 47.4347 56.633 47.4306C55.813 47.4006 55.473 47.0419 55.4343 46.5306C55.4103 46.3651 55.445 46.1964 55.5321 46.0537C55.6193 45.9109 55.7536 45.8031 55.9118 45.7488C56.088 45.7288 56.2568 45.7106 56.4318 45.7006C57.2661 46.3063 58.4943 46.2713 59.7936 44.9819C59.8086 45.3525 59.8668 46.2838 60.2536 46.2681C60.6405 46.2525 60.6224 45.3119 60.6193 44.9169C61.2606 45.4906 62.0604 45.857 62.9136 45.9681C63.2282 46.0092 63.5479 45.9697 63.8431 45.8535C64.1382 45.7373 64.399 45.5482 64.6011 45.3038C65.1126 45.2984 65.6238 45.3285 66.1311 45.3937C66.6311 46.23 65.7211 47.1731 64.7443 47.0769C64.6453 47.0683 64.5466 47.0961 64.4668 47.1552C64.3869 47.2142 64.3313 47.3004 64.3105 47.3975C64.145 48.2618 63.8214 49.0881 63.3561 49.835C63.3257 49.1668 63.1776 48.5092 62.9186 47.8925C62.7516 47.5326 62.4997 47.2187 62.1846 46.9776C61.8695 46.7365 61.5006 46.5755 61.1095 46.5084C60.7185 46.4413 60.317 46.4701 59.9395 46.5923C59.5621 46.7145 59.2199 46.9264 58.9424 47.21C58.3135 47.9799 57.9078 48.9075 57.7693 49.8919C57.3472 49.2712 57.0901 48.5532 57.0224 47.8056ZM58.568 50.4088C58.591 49.4461 58.9318 48.5181 59.5374 47.7694C59.7275 47.5832 59.9593 47.445 60.2135 47.3661C60.4676 47.2872 60.7369 47.27 60.9991 47.3159C61.2612 47.3618 61.5086 47.4694 61.7209 47.6299C61.9332 47.7904 62.1043 47.9991 62.2199 48.2388C62.5424 48.9142 62.7567 49.6361 62.8549 50.3781C62.2997 50.8047 61.6342 51.0636 60.9368 51.1244C60.9693 50.5963 60.9346 50.0662 60.8336 49.5469C60.7499 49.215 60.4374 49.2169 60.3461 49.5406C60.2334 50.0729 60.2219 50.6216 60.3124 51.1581C59.6768 51.1475 58.8593 50.97 58.568 50.4088ZM58.7043 59.2319C58.2849 58.3731 58.313 58.3431 57.6355 57.0388C57.9324 56.58 58.323 56.1144 58.6699 55.6731C59.1974 56.0614 59.7473 56.4183 60.3168 56.7419C59.6969 57.5155 59.1566 58.3498 58.7043 59.2319ZM63.3486 59.0588C63.048 58.6006 62.7193 58.2081 62.4249 57.7588L61.6749 56.5631C62.1355 56.1731 62.6861 55.7331 63.4136 55.1981C63.8814 55.5431 64.3296 55.9139 64.7561 56.3088C64.2403 57.2007 63.7705 58.1186 63.3486 59.0588Z" fill="white"/>
</g>
<defs>
<clipPath id="clip0_366_6816">
<rect width="119.375" height="90" fill="white" transform="translate(0.666992)"/>
</clipPath>
</defs>
</svg>
