<svg width="24" height="24" viewBox="0 0 24 24" fill="none" xmlns="http://www.w3.org/2000/svg">
<path d="M11.9999 12.75C8.82991 12.75 6.24991 10.17 6.24991 7C6.24991 3.83 8.82991 1.25 11.9999 1.25C15.1699 1.25 17.7499 3.83 17.7499 7C17.7499 10.17 15.1699 12.75 11.9999 12.75ZM11.9999 2.75C10.8736 2.75264 9.79408 3.20126 8.99763 3.99771C8.20117 4.79417 7.75255 5.87364 7.74991 7C7.75255 8.12636 8.20117 9.20583 8.99763 10.0023C9.79408 10.7987 10.8736 11.2474 11.9999 11.25C13.1263 11.2474 14.2057 10.7987 15.0022 10.0023C15.7987 9.20583 16.2473 8.12636 16.2499 7C16.2473 5.87364 15.7987 4.79417 15.0022 3.99771C14.2057 3.20126 13.1263 2.75264 11.9999 2.75ZM3.40991 22.75C2.99991 22.75 2.65991 22.41 2.65991 22C2.65991 17.73 6.84991 14.25 11.9999 14.25C13.0099 14.25 13.9999 14.38 14.9599 14.65C15.3599 14.76 15.5899 15.17 15.4799 15.57C15.3699 15.97 14.9599 16.2 14.5599 16.09C13.7399 15.86 12.8799 15.75 11.9999 15.75C7.67991 15.75 4.15991 18.55 4.15991 22C4.15991 22.41 3.81991 22.75 3.40991 22.75Z" fill="#5397FD"/>
<path d="M18 22.75C16.8269 22.75 15.6961 22.3113 14.83 21.52C14.48 21.22 14.17 20.85 13.93 20.44C13.49 19.72 13.25 18.87 13.25 18C13.25 16.75 13.73 15.58 14.59 14.69C15.49 13.76 16.7 13.25 18 13.25C19.36 13.25 20.65 13.83 21.53 14.83C22.3143 15.6997 22.7489 16.8289 22.75 18C22.75 18.38 22.7 18.76 22.6 19.12C22.5 19.57 22.31 20.04 22.05 20.45C21.22 21.87 19.66 22.75 18 22.75ZM18 14.75C17.4247 14.7486 16.8593 14.9004 16.3621 15.1898C15.8648 15.4792 15.4535 15.8957 15.1705 16.3966C14.8874 16.8975 14.7429 17.4647 14.7516 18.04C14.7603 18.6153 14.9219 19.1779 15.22 19.67C15.38 19.95 15.59 20.2 15.83 20.41C16.43 20.96 17.2 21.26 18 21.26C19.13 21.26 20.2 20.66 20.78 19.69C20.95 19.41 21.08 19.09 21.15 18.78C21.22 18.52 21.25 18.27 21.25 18.01C21.25 17.21 20.95 16.44 20.41 15.84C19.81 15.14 18.93 14.75 18 14.75Z" fill="#5397FD"/>
<path d="M19.4981 18.73H16.5081C16.0981 18.73 15.7581 18.39 15.7581 17.98C15.7581 17.57 16.0981 17.23 16.5081 17.23H19.4981C19.9081 17.23 20.2481 17.57 20.2481 17.98C20.2481 18.39 19.9081 18.73 19.4981 18.73Z" fill="#5397FD"/>
<path d="M18 20.26C17.59 20.26 17.25 19.92 17.25 19.51V16.52C17.25 16.11 17.59 15.77 18 15.77C18.41 15.77 18.75 16.11 18.75 16.52V19.51C18.75 19.93 18.41 20.26 18 20.26Z" fill="#5397FD"/>
</svg>
