<svg width="18" height="18" viewBox="0 0 18 18" fill="none" xmlns="http://www.w3.org/2000/svg">
<g clip-path="url(#clip0_6_304)">
<path d="M4.5 17.625C4.5 16.1753 6.5145 15 9 15C11.4855 15 13.5 16.1753 13.5 17.625H4.5Z" fill="#F79E1B"/>
<path d="M9.00016 16.5C10.5471 16.4787 12.0798 16.7988 13.4889 17.4375C13.3239 16.0748 11.3777 15 9.00016 15C6.62266 15 4.67641 16.0748 4.51141 17.4375C5.92053 16.7988 7.45318 16.4787 9.00016 16.5Z" fill="#F1C584"/>
<path d="M13.95 7.14751C13.6133 10.5165 9.57151 13.0462 6.25651 10.7295C5.61972 10.2674 5.0898 9.6738 4.70274 8.98882C4.31567 8.30385 4.08052 7.54365 4.01326 6.75976L3.41326 0.787508C3.408 0.735201 3.4138 0.682377 3.43027 0.632459C3.44675 0.582541 3.47354 0.536645 3.5089 0.497748C3.54426 0.458852 3.5874 0.427823 3.63553 0.406678C3.68365 0.385532 3.73569 0.374741 3.78826 0.375005H14.2133C14.2658 0.374741 14.3179 0.385532 14.366 0.406678C14.4141 0.427823 14.4572 0.458852 14.4926 0.497748C14.528 0.536645 14.5547 0.582541 14.5712 0.632459C14.5877 0.682377 14.5935 0.735201 14.5883 0.787508L13.95 7.14751Z" fill="#F79E1B"/>
<path d="M8.99981 0.375035H3.78881C3.73624 0.374772 3.6842 0.385563 3.63608 0.406708C3.58795 0.427854 3.54481 0.458882 3.50945 0.497779C3.47408 0.536675 3.4473 0.582571 3.43082 0.632489C3.41435 0.682408 3.40855 0.735232 3.41381 0.787538L4.01381 6.75979C4.08081 7.54346 4.31561 8.30358 4.70228 8.98856C5.08895 9.67353 5.61843 10.2672 6.25481 10.7295C7.05471 11.3057 8.01408 11.6187 8.99981 11.625V0.375035Z" fill="#F1C584"/>
<path d="M2.33463 6.93978C1.75945 6.72714 1.26324 6.34334 0.912846 5.84008C0.56245 5.33682 0.374699 4.73826 0.374878 4.12503V3.37503C0.374878 3.17612 0.453896 2.98535 0.594548 2.8447C0.735201 2.70405 0.925963 2.62503 1.12488 2.62503H3.59988" stroke="black" stroke-linecap="round" stroke-linejoin="round"/>
<path d="M15.6653 6.93975C16.2404 6.72711 16.7366 6.34331 17.087 5.84005C17.4374 5.33679 17.6252 4.73823 17.625 4.125V3.375C17.625 3.17609 17.546 2.98532 17.4053 2.84467C17.2647 2.70402 17.0739 2.625 16.875 2.625H14.4" stroke="black" stroke-linecap="round" stroke-linejoin="round"/>
<path d="M9 11.625V15" stroke="black" stroke-linecap="round" stroke-linejoin="round"/>
<path d="M4.5 17.625C4.5 16.1753 6.5145 15 9 15C11.4855 15 13.5 16.1753 13.5 17.625H4.5Z" stroke="black" stroke-linecap="round" stroke-linejoin="round"/>
<path d="M13.95 7.14751C13.6133 10.5165 9.57151 13.0462 6.25651 10.7295C5.61972 10.2674 5.0898 9.6738 4.70274 8.98882C4.31567 8.30385 4.08052 7.54365 4.01326 6.75976L3.41326 0.787508C3.408 0.735201 3.4138 0.682377 3.43027 0.632459C3.44675 0.582541 3.47354 0.536645 3.5089 0.497748C3.54426 0.458852 3.5874 0.427823 3.63553 0.406678C3.68365 0.385532 3.73569 0.374741 3.78826 0.375005H14.2133C14.2658 0.374741 14.3179 0.385532 14.366 0.406678C14.4141 0.427823 14.4572 0.458852 14.4926 0.497748C14.528 0.536645 14.5547 0.582541 14.5712 0.632459C14.5877 0.682377 14.5935 0.735201 14.5883 0.787508L13.95 7.14751Z" stroke="black" stroke-linecap="round" stroke-linejoin="round"/>
</g>
<defs>
<clipPath id="clip0_6_304">
<rect width="18" height="18" fill="white"/>
</clipPath>
</defs>
</svg>
