<svg width="50" height="50" viewBox="0 0 50 50" fill="none" xmlns="http://www.w3.org/2000/svg">
<path d="M19.791 32.2917H46.8743C47.4269 32.2917 47.9568 32.0722 48.3475 31.6815C48.7382 31.2908 48.9577 30.7609 48.9577 30.2083V5.20833C48.9577 4.6558 48.7382 4.12589 48.3475 3.73519C47.9568 3.34449 47.4269 3.125 46.8743 3.125H21.8743C21.3218 3.125 20.7919 3.34449 20.4012 3.73519C20.0105 4.12589 19.791 4.6558 19.791 5.20833V32.2917Z" fill="white" fill-opacity="0.05"/>
<path d="M46.8743 26.0417H19.791V32.2917H46.8743C47.4269 32.2917 47.9568 32.0722 48.3475 31.6815C48.7382 31.2908 48.9577 30.7609 48.9577 30.2084V23.9584C48.9577 24.5109 48.7382 25.0408 48.3475 25.4315C47.9568 25.8222 47.4269 26.0417 46.8743 26.0417Z" fill="#5397FD"/>
<path d="M34.3743 32.2917H46.8743C47.4269 32.2917 47.9568 32.0722 48.3475 31.6815C48.7382 31.2908 48.9577 30.7609 48.9577 30.2083V5.20833C48.9577 4.6558 48.7382 4.12589 48.3475 3.73519C47.9568 3.34449 47.4269 3.125 46.8743 3.125H21.8743C21.3218 3.125 20.7919 3.34449 20.4012 3.73519C20.0105 4.12589 19.791 4.6558 19.791 5.20833V13.5417" stroke="white" stroke-linecap="round" stroke-linejoin="round"/>
<path d="M28.1243 17.7084H3.12435C1.97376 17.7084 1.04102 18.6411 1.04102 19.7917V44.7917C1.04102 45.9423 1.97376 46.875 3.12435 46.875H28.1243C29.2749 46.875 30.2077 45.9423 30.2077 44.7917V19.7917C30.2077 18.6411 29.2749 17.7084 28.1243 17.7084Z" fill="#5397FD"/>
<path d="M28.1243 41.6667H3.12435C2.57181 41.6667 2.04191 41.4472 1.65121 41.0565C1.26051 40.6658 1.04102 40.1359 1.04102 39.5834V44.7917C1.04102 45.3442 1.26051 45.8741 1.65121 46.2648C2.04191 46.6555 2.57181 46.875 3.12435 46.875H28.1243C28.6769 46.875 29.2068 46.6555 29.5975 46.2648C29.9882 45.8741 30.2077 45.3442 30.2077 44.7917V39.5834C30.2077 40.1359 29.9882 40.6658 29.5975 41.0565C29.2068 41.4472 28.6769 41.6667 28.1243 41.6667Z" fill="white" fill-opacity="0.05"/>
<path d="M28.1243 17.7084H3.12435C1.97376 17.7084 1.04102 18.6411 1.04102 19.7917V44.7917C1.04102 45.9423 1.97376 46.875 3.12435 46.875H28.1243C29.2749 46.875 30.2077 45.9423 30.2077 44.7917V19.7917C30.2077 18.6411 29.2749 17.7084 28.1243 17.7084Z" stroke="white" stroke-linecap="round" stroke-linejoin="round"/>
<path d="M39.584 24.4791C39.7221 24.4791 39.8546 24.534 39.9523 24.6317C40.0499 24.7293 40.1048 24.8618 40.1048 25" stroke="white" stroke-linecap="round" stroke-linejoin="round"/>
<path d="M39.0625 25C39.0625 24.8619 39.1174 24.7294 39.215 24.6317C39.3127 24.534 39.4452 24.4792 39.5833 24.4792" stroke="white" stroke-linecap="round" stroke-linejoin="round"/>
<path d="M39.5833 25.5208C39.4452 25.5208 39.3127 25.466 39.215 25.3683C39.1174 25.2706 39.0625 25.1381 39.0625 25" stroke="white" stroke-linecap="round" stroke-linejoin="round"/>
<path d="M40.1048 25C40.1048 25.1381 40.0499 25.2706 39.9523 25.3683C39.8546 25.466 39.7221 25.5208 39.584 25.5208" stroke="white" stroke-linecap="round" stroke-linejoin="round"/>
<path d="M39.584 9.89587C39.7221 9.89587 39.8546 9.95075 39.9523 10.0484C40.0499 10.1461 40.1048 10.2786 40.1048 10.4167" stroke="white" stroke-linecap="round" stroke-linejoin="round"/>
<path d="M39.0625 10.4167C39.0625 10.2785 39.1174 10.1461 39.215 10.0484C39.3127 9.95071 39.4452 9.89583 39.5833 9.89583" stroke="white" stroke-linecap="round" stroke-linejoin="round"/>
<path d="M39.5833 10.9375C39.4452 10.9375 39.3127 10.8826 39.215 10.785C39.1174 10.6873 39.0625 10.5548 39.0625 10.4167" stroke="white" stroke-linecap="round" stroke-linejoin="round"/>
<path d="M40.1048 10.4166C40.1048 10.5548 40.0499 10.6872 39.9523 10.7849C39.8546 10.8826 39.7221 10.9375 39.584 10.9375" stroke="white" stroke-linecap="round" stroke-linejoin="round"/>
<path d="M29.166 9.89587C29.3041 9.89587 29.4366 9.95075 29.5343 10.0484C29.632 10.1461 29.6868 10.2786 29.6868 10.4167" stroke="white" stroke-linecap="round" stroke-linejoin="round"/>
<path d="M28.6465 10.4167C28.6465 10.2786 28.7014 10.1461 28.799 10.0484C28.8967 9.95075 29.0292 9.89587 29.1673 9.89587" stroke="white" stroke-linecap="round" stroke-linejoin="round"/>
<path d="M29.1673 10.9375C29.0292 10.9375 28.8967 10.8826 28.799 10.7849C28.7014 10.6872 28.6465 10.5548 28.6465 10.4166" stroke="white" stroke-linecap="round" stroke-linejoin="round"/>
<path d="M29.6868 10.4166C29.6868 10.5548 29.632 10.6872 29.5343 10.7849C29.4366 10.8826 29.3041 10.9375 29.166 10.9375" stroke="white" stroke-linecap="round" stroke-linejoin="round"/>
<path d="M22.916 26.5625C23.0541 26.5625 23.1866 26.6174 23.2843 26.715C23.382 26.8127 23.4368 26.9452 23.4368 27.0833" stroke="white" stroke-linecap="round" stroke-linejoin="round"/>
<path d="M22.3965 27.0833C22.3965 26.9452 22.4514 26.8127 22.549 26.715C22.6467 26.6174 22.7792 26.5625 22.9173 26.5625" stroke="white" stroke-linecap="round" stroke-linejoin="round"/>
<path d="M22.9173 27.6042C22.7792 27.6042 22.6467 27.5493 22.549 27.4517C22.4514 27.354 22.3965 27.2215 22.3965 27.0834" stroke="white" stroke-linecap="round" stroke-linejoin="round"/>
<path d="M23.4368 27.0834C23.4368 27.2215 23.382 27.354 23.2843 27.4517C23.1866 27.5493 23.0541 27.6042 22.916 27.6042" stroke="white" stroke-linecap="round" stroke-linejoin="round"/>
<path d="M15.625 26.5625C15.7631 26.5625 15.8956 26.6174 15.9933 26.715C16.091 26.8127 16.1458 26.9452 16.1458 27.0833" stroke="white" stroke-linecap="round" stroke-linejoin="round"/>
<path d="M15.1035 27.0833C15.1035 26.9452 15.1584 26.8127 15.2561 26.715C15.3537 26.6174 15.4862 26.5625 15.6243 26.5625" stroke="white" stroke-linecap="round" stroke-linejoin="round"/>
<path d="M15.6243 27.6042C15.4862 27.6042 15.3537 27.5493 15.2561 27.4517C15.1584 27.354 15.1035 27.2215 15.1035 27.0834" stroke="white" stroke-linecap="round" stroke-linejoin="round"/>
<path d="M16.1458 27.0833C16.1458 27.2215 16.091 27.3539 15.9933 27.4516C15.8956 27.5493 15.7631 27.6042 15.625 27.6042" stroke="white" stroke-linecap="round" stroke-linejoin="round"/>
<path d="M8.33398 26.5625C8.47212 26.5625 8.60459 26.6174 8.70227 26.715C8.79994 26.8127 8.85482 26.9452 8.85482 27.0833" stroke="white" stroke-linecap="round" stroke-linejoin="round"/>
<path d="M7.8125 27.0833C7.8125 26.9452 7.86737 26.8127 7.96505 26.715C8.06272 26.6174 8.1952 26.5625 8.33333 26.5625" stroke="white" stroke-linecap="round" stroke-linejoin="round"/>
<path d="M8.33333 27.6042C8.1952 27.6042 8.06272 27.5493 7.96505 27.4516C7.86737 27.3539 7.8125 27.2215 7.8125 27.0833" stroke="white" stroke-linecap="round" stroke-linejoin="round"/>
<path d="M8.85482 27.0834C8.85482 27.2215 8.79994 27.354 8.70227 27.4517C8.60459 27.5493 8.47212 27.6042 8.33398 27.6042" stroke="white" stroke-linecap="round" stroke-linejoin="round"/>
<path d="M8.33398 36.9791C8.47212 36.9791 8.60459 37.034 8.70227 37.1317C8.79994 37.2293 8.85482 37.3618 8.85482 37.5" stroke="white" stroke-linecap="round" stroke-linejoin="round"/>
<path d="M7.8125 37.5C7.8125 37.3619 7.86737 37.2294 7.96505 37.1317C8.06272 37.034 8.1952 36.9792 8.33333 36.9792" stroke="white" stroke-linecap="round" stroke-linejoin="round"/>
<path d="M8.33333 38.0208C8.1952 38.0208 8.06272 37.966 7.96505 37.8683C7.86737 37.7706 7.8125 37.6381 7.8125 37.5" stroke="white" stroke-linecap="round" stroke-linejoin="round"/>
<path d="M8.85482 37.5C8.85482 37.6381 8.79994 37.7706 8.70227 37.8683C8.60459 37.966 8.47212 38.0208 8.33398 38.0208" stroke="white" stroke-linecap="round" stroke-linejoin="round"/>
<path d="M15.625 36.9792C15.7631 36.9792 15.8956 37.034 15.9933 37.1317C16.091 37.2294 16.1458 37.3619 16.1458 37.5" stroke="white" stroke-linecap="round" stroke-linejoin="round"/>
<path d="M15.1035 37.5C15.1035 37.3618 15.1584 37.2293 15.2561 37.1317C15.3537 37.034 15.4862 36.9791 15.6243 36.9791" stroke="white" stroke-linecap="round" stroke-linejoin="round"/>
<path d="M15.6243 38.0208C15.4862 38.0208 15.3537 37.966 15.2561 37.8683C15.1584 37.7706 15.1035 37.6381 15.1035 37.5" stroke="white" stroke-linecap="round" stroke-linejoin="round"/>
<path d="M16.1458 37.5C16.1458 37.6381 16.091 37.7706 15.9933 37.8683C15.8956 37.966 15.7631 38.0208 15.625 38.0208" stroke="white" stroke-linecap="round" stroke-linejoin="round"/>
<path d="M22.916 36.9791C23.0541 36.9791 23.1866 37.034 23.2843 37.1317C23.382 37.2293 23.4368 37.3618 23.4368 37.5" stroke="white" stroke-linecap="round" stroke-linejoin="round"/>
<path d="M22.3965 37.5C22.3965 37.3618 22.4514 37.2293 22.549 37.1317C22.6467 37.034 22.7792 36.9791 22.9173 36.9791" stroke="white" stroke-linecap="round" stroke-linejoin="round"/>
<path d="M22.9173 38.0208C22.7792 38.0208 22.6467 37.966 22.549 37.8683C22.4514 37.7706 22.3965 37.6381 22.3965 37.5" stroke="white" stroke-linecap="round" stroke-linejoin="round"/>
<path d="M23.4368 37.5C23.4368 37.6381 23.382 37.7706 23.2843 37.8683C23.1866 37.966 23.0541 38.0208 22.916 38.0208" stroke="white" stroke-linecap="round" stroke-linejoin="round"/>
</svg>
