<svg width="51" height="50" viewBox="0 0 51 50" fill="none" xmlns="http://www.w3.org/2000/svg">
<path d="M15.5889 35.1375L13.2077 31.5708C12.8792 31.0243 12.3807 30.6004 11.7884 30.3641C11.1962 30.1278 10.5428 30.0921 9.92828 30.2625C9.3138 30.4329 8.77209 30.8 8.38609 31.3076C8.00009 31.8152 7.79107 32.4352 7.79102 33.0729V25C7.79102 24.1712 7.46178 23.3763 6.87572 22.7903C6.28967 22.2042 5.49482 21.875 4.66602 21.875C3.83721 21.875 3.04236 22.2042 2.45631 22.7903C1.87026 23.3763 1.54102 24.1712 1.54102 25V35.7729C1.54055 37.9023 2.26501 39.9684 3.59518 41.6312L7.79102 46.875H17.166V40.3417C17.1669 38.4891 16.618 36.6779 15.5889 35.1375Z" fill="white" fill-opacity="0.05"/>
<path d="M35.4111 35.1375L37.7923 31.5708C38.1208 31.0243 38.6193 30.6004 39.2116 30.3641C39.8038 30.1278 40.4572 30.0921 41.0717 30.2625C41.6862 30.4329 42.2279 30.8 42.6139 31.3076C42.9999 31.8152 43.2089 32.4352 43.209 33.0729V25C43.209 24.1712 43.5382 23.3763 44.1243 22.7903C44.7103 22.2042 45.5052 21.875 46.334 21.875C47.1628 21.875 47.9576 22.2042 48.5437 22.7903C49.1297 23.3763 49.459 24.1712 49.459 25V35.7729C49.4595 37.9023 48.735 39.9684 47.4048 41.6312L43.209 46.875H33.834V40.3417C33.8331 38.4891 34.382 36.6779 35.4111 35.1375Z" fill="white" fill-opacity="0.05"/>
<path d="M7.79102 46.875L3.59518 41.6312C2.26501 39.9684 1.54055 37.9023 1.54102 35.7729V25C1.54102 24.1712 1.87026 23.3763 2.45631 22.7903C3.04236 22.2042 3.83721 21.875 4.66602 21.875C5.49482 21.875 6.28967 22.2042 6.87572 22.7903C7.46178 23.3763 7.79102 24.1712 7.79102 25V33.0729" stroke="white" stroke-linecap="round" stroke-linejoin="round"/>
<path d="M17.166 46.875V40.3416C17.1677 38.4876 16.6188 36.6749 15.5889 35.1333L13.2076 31.5708C13.0046 31.2323 12.735 30.9385 12.4152 30.7072C12.0953 30.476 11.7318 30.312 11.3467 30.2254C10.9617 30.1387 10.563 30.1311 10.1749 30.203C9.7868 30.2749 9.41733 30.4248 9.08887 30.6437C8.49757 31.0382 8.07071 31.6351 7.88848 32.3222C7.70626 33.0093 7.78122 33.7393 8.09929 34.375L10.916 39.0625" stroke="white" stroke-linecap="round" stroke-linejoin="round"/>
<path d="M43.209 46.875L47.4048 41.6312C48.735 39.9684 49.4595 37.9023 49.459 35.7729V25C49.459 24.1712 49.1297 23.3763 48.5437 22.7903C47.9576 22.2042 47.1628 21.875 46.334 21.875C45.5052 21.875 44.7103 22.2042 44.1243 22.7903C43.5382 23.3763 43.209 24.1712 43.209 25V33.0729" stroke="white" stroke-linecap="round" stroke-linejoin="round"/>
<path d="M33.834 46.875V40.3416C33.8323 38.4876 34.3812 36.6749 35.4111 35.1333L37.7923 31.5708C37.9953 31.2323 38.2649 30.9385 38.5848 30.7072C38.9046 30.476 39.2681 30.312 39.6532 30.2254C40.0383 30.1387 40.4369 30.1311 40.825 30.203C41.2131 30.2749 41.5826 30.4248 41.9111 30.6437C42.5027 31.0379 42.93 31.6347 43.1126 32.3218C43.2952 33.0089 43.2206 33.739 42.9027 34.375L40.084 39.0625" stroke="white" stroke-linecap="round" stroke-linejoin="round"/>
<path d="M25.5 28.125C32.4036 28.125 38 22.5286 38 15.625C38 8.72144 32.4036 3.125 25.5 3.125C18.5964 3.125 13 8.72144 13 15.625C13 22.5286 18.5964 28.125 25.5 28.125Z" fill="white" fill-opacity="0.05"/>
<path d="M25.5 28.125C32.4036 28.125 38 22.5286 38 15.625C38 8.72144 32.4036 3.125 25.5 3.125C18.5964 3.125 13 8.72144 13 15.625C13 22.5286 18.5964 28.125 25.5 28.125Z" stroke="white" stroke-linecap="round" stroke-linejoin="round"/>
<path d="M34.3392 6.78546C32.7868 5.2323 30.8526 4.11553 28.7314 3.54754C26.6101 2.97956 24.3767 2.98042 22.2559 3.55004L25.4996 15.625L34.3392 6.78546Z" fill="white" fill-opacity="0.05" stroke="white" stroke-linecap="round" stroke-linejoin="round"/>
<path d="M28.7354 27.7083C30.8576 27.141 32.7929 26.0245 34.3462 24.4712C35.8995 22.9179 37.016 20.9826 37.5833 18.8604L25.5 15.625L28.7354 27.7083Z" fill="#5397FD" stroke="white" stroke-linecap="round" stroke-linejoin="round"/>
<path d="M13.4161 12.3895C12.8465 14.5103 12.8457 16.7438 13.4136 18.865C13.9816 20.9863 15.0984 22.9204 16.6515 24.4729L25.4995 15.6249L13.4161 12.3895Z" fill="white" fill-opacity="0.05" stroke="white" stroke-linecap="round" stroke-linejoin="round"/>
<path d="M25.5 21.875C28.9518 21.875 31.75 19.0768 31.75 15.625C31.75 12.1732 28.9518 9.375 25.5 9.375C22.0482 9.375 19.25 12.1732 19.25 15.625C19.25 19.0768 22.0482 21.875 25.5 21.875Z" fill="#5397FD"/>
<path d="M21.0806 20.0437C19.9421 18.865 19.3122 17.2862 19.3264 15.6475C19.3406 14.0087 19.998 12.4412 21.1568 11.2824C22.3156 10.1236 23.8831 9.46626 25.5219 9.45202C27.1606 9.43778 28.7394 10.0677 29.9181 11.2062L21.0806 20.0437Z" fill="white" fill-opacity="0.05"/>
<path d="M25.5 21.875C28.9518 21.875 31.75 19.0768 31.75 15.625C31.75 12.1732 28.9518 9.375 25.5 9.375C22.0482 9.375 19.25 12.1732 19.25 15.625C19.25 19.0768 22.0482 21.875 25.5 21.875Z" stroke="white" stroke-linecap="round" stroke-linejoin="round"/>
</svg>
