<svg width="51" height="50" viewBox="0 0 51 50" fill="none" xmlns="http://www.w3.org/2000/svg">
<path d="M3.625 7.86458V23.775C3.68621 29.0322 5.36162 34.1437 8.42434 38.4171C11.4871 42.6905 15.7891 45.9195 20.7479 47.6667L23.0833 48.5292C24.6435 49.1021 26.3565 49.1021 27.9167 48.5292L30.2521 47.6667C35.2109 45.9195 39.5129 42.6905 42.5757 38.4171C45.6384 34.1437 47.3138 29.0322 47.375 23.775V7.86458C47.3729 7.23949 47.1874 6.62875 46.8415 6.10807C46.4956 5.58739 46.0046 5.17966 45.4292 4.93541C39.1183 2.30136 32.3382 0.976661 25.5 1.04166C18.6618 0.976661 11.8817 2.30136 5.57083 4.93541C4.99543 5.17966 4.50435 5.58739 4.15846 6.10807C3.81258 6.62875 3.62709 7.23949 3.625 7.86458Z" fill="white" fill-opacity="0.05"/>
<path d="M25.5 1.04166C18.6618 0.976661 11.8817 2.30136 5.57083 4.93541C4.99543 5.17966 4.50435 5.58739 4.15846 6.10807C3.81258 6.62875 3.62709 7.23949 3.625 7.86458V23.775C3.68621 29.0322 5.36162 34.1437 8.42434 38.4171C11.4871 42.6905 15.7891 45.9195 20.7479 47.6667L23.0833 48.5292C23.8575 48.8129 24.6755 48.9582 25.5 48.9583V1.04166Z" fill="#5397FD"/>
<path d="M3.625 7.86458V23.775C3.68621 29.0322 5.36162 34.1437 8.42434 38.4171C11.4871 42.6905 15.7891 45.9195 20.7479 47.6667L23.0833 48.5292C24.6435 49.1021 26.3565 49.1021 27.9167 48.5292L30.2521 47.6667C35.2109 45.9195 39.5129 42.6905 42.5757 38.4171C45.6384 34.1437 47.3138 29.0322 47.375 23.775V7.86458C47.3729 7.23949 47.1874 6.62875 46.8415 6.10807C46.4956 5.58739 46.0046 5.17966 45.4292 4.93541C39.1183 2.30136 32.3382 0.976661 25.5 1.04166C18.6618 0.976661 11.8817 2.30136 5.57083 4.93541C4.99543 5.17966 4.50435 5.58739 4.15846 6.10807C3.81258 6.62875 3.62709 7.23949 3.625 7.86458Z" stroke="white" stroke-linecap="round" stroke-linejoin="round"/>
<path d="M22.4354 30.3292C27.6465 30.3292 31.8708 26.1048 31.8708 20.8937C31.8708 15.6827 27.6465 11.4583 22.4354 11.4583C17.2244 11.4583 13 15.6827 13 20.8937C13 26.1048 17.2244 30.3292 22.4354 30.3292Z" fill="#5397FD"/>
<path d="M15.7637 27.5666C14.109 25.7761 13.2116 23.4145 13.2596 20.9769C13.3077 18.5393 14.2974 16.215 16.0214 14.491C17.7454 12.767 20.0697 11.7773 22.5073 11.7293C24.9449 11.6812 27.3065 12.5786 29.097 14.2333L15.7637 27.5666Z" fill="white" fill-opacity="0.05"/>
<path d="M22.4354 30.3292C27.6465 30.3292 31.8708 26.1048 31.8708 20.8937C31.8708 15.6827 27.6465 11.4583 22.4354 11.4583C17.2244 11.4583 13 15.6827 13 20.8937C13 26.1048 17.2244 30.3292 22.4354 30.3292Z" stroke="white" stroke-linecap="round" stroke-linejoin="round"/>
<path d="M35.9158 34.375L29.1074 27.5667" stroke="white" stroke-linecap="round" stroke-linejoin="round"/>
</svg>
