<svg width="16" height="16" viewBox="0 0 16 16" fill="none" xmlns="http://www.w3.org/2000/svg">
<g clip-path="url(#clip0_117_1949)">
<path d="M4 15.6667C4 14.378 5.79067 13.3333 8 13.3333C10.2093 13.3333 12 14.378 12 15.6667H4Z" fill="#F79E1B"/>
<path d="M8.00025 14.6667C9.37532 14.6477 10.7377 14.9322 11.9903 15.5C11.8436 14.2887 10.1136 13.3333 8.00025 13.3333C5.88692 13.3333 4.15692 14.2887 4.01025 15.5C5.2628 14.9322 6.62516 14.6477 8.00025 14.6667Z" fill="#F1C584"/>
<path d="M12.3999 6.35335C12.1006 9.34801 8.5079 11.5967 5.56123 9.53734C4.9952 9.12661 4.52416 8.59894 4.1801 7.99008C3.83604 7.38121 3.62702 6.70548 3.56723 6.00868L3.0339 0.700017C3.02922 0.653522 3.03438 0.606568 3.04902 0.562196C3.06367 0.517824 3.08748 0.477028 3.11891 0.442453C3.15034 0.407878 3.18869 0.380298 3.23147 0.361502C3.27425 0.342706 3.3205 0.333114 3.36723 0.333348H12.6339C12.6806 0.333114 12.7269 0.342706 12.7696 0.361502C12.8124 0.380298 12.8508 0.407878 12.8822 0.442453C12.9136 0.477028 12.9374 0.517824 12.9521 0.562196C12.9668 0.606568 12.9719 0.653522 12.9672 0.700017L12.3999 6.35335Z" fill="#F79E1B"/>
<path d="M7.99972 0.333348H3.36772C3.32099 0.333114 3.27474 0.342706 3.23196 0.361502C3.18918 0.380298 3.15083 0.407878 3.1194 0.442453C3.08797 0.477028 3.06416 0.517824 3.04951 0.562196C3.03487 0.606568 3.02971 0.653522 3.03439 0.700017L3.56772 6.00868C3.62728 6.70528 3.83599 7.38094 4.17969 7.98981C4.5234 8.59868 4.99405 9.12641 5.55972 9.53734C6.27075 10.0495 7.12352 10.3277 7.99972 10.3333V0.333348Z" fill="#F1C584"/>
<path d="M2.07525 6.16868C1.56398 5.97966 1.12291 5.63851 0.811445 5.19116C0.499983 4.74382 0.333093 4.21177 0.333252 3.66668V3.00001C0.333252 2.8232 0.40349 2.65363 0.528514 2.5286C0.653539 2.40358 0.823105 2.33334 0.999919 2.33334H3.19992" stroke="white" stroke-linecap="round" stroke-linejoin="round"/>
<path d="M13.9247 6.16868C14.436 5.97966 14.877 5.63851 15.1885 5.19116C15.5 4.74382 15.6668 4.21177 15.6667 3.66668V3.00001C15.6667 2.8232 15.5964 2.65363 15.4714 2.5286C15.3464 2.40358 15.1768 2.33334 15 2.33334H12.8" stroke="white" stroke-linecap="round" stroke-linejoin="round"/>
<path d="M8 10.3333V13.3333" stroke="white" stroke-linecap="round" stroke-linejoin="round"/>
<path d="M4 15.6667C4 14.378 5.79067 13.3333 8 13.3333C10.2093 13.3333 12 14.378 12 15.6667H4Z" stroke="white" stroke-linecap="round" stroke-linejoin="round"/>
<path d="M12.3999 6.35335C12.1006 9.34801 8.5079 11.5967 5.56123 9.53734C4.9952 9.12661 4.52416 8.59894 4.1801 7.99008C3.83604 7.38121 3.62702 6.70548 3.56723 6.00868L3.0339 0.700017C3.02922 0.653522 3.03438 0.606568 3.04902 0.562196C3.06367 0.517824 3.08748 0.477028 3.11891 0.442453C3.15034 0.407878 3.18869 0.380298 3.23147 0.361502C3.27425 0.342706 3.3205 0.333114 3.36723 0.333348H12.6339C12.6806 0.333114 12.7269 0.342706 12.7696 0.361502C12.8124 0.380298 12.8508 0.407878 12.8822 0.442453C12.9136 0.477028 12.9374 0.517824 12.9521 0.562196C12.9668 0.606568 12.9719 0.653522 12.9672 0.700017L12.3999 6.35335Z" stroke="white" stroke-linecap="round" stroke-linejoin="round"/>
</g>
<defs>
<clipPath id="clip0_117_1949">
<rect width="16" height="16" fill="white"/>
</clipPath>
</defs>
</svg>
