<svg width="50" height="50" viewBox="0 0 50 50" fill="none" xmlns="http://www.w3.org/2000/svg">
<g clip-path="url(#clip0_366_10055)">
<path d="M12.5 48.9584C12.5 44.9313 18.0958 41.6667 25 41.6667C31.9042 41.6667 37.5 44.9313 37.5 48.9584H12.5Z" fill="#5397FD"/>
<path d="M25 45.8334C29.2971 45.774 33.5546 46.6631 37.4687 48.4375C37.0104 44.6521 31.6042 41.6667 25 41.6667C18.3958 41.6667 12.9896 44.6521 12.5312 48.4375C16.4455 46.6631 20.7028 45.774 25 45.8334Z" fill="#272939"/>
<path d="M38.7505 19.8541C37.8151 29.2125 26.588 36.2395 17.3797 29.8041C15.6108 28.5206 14.1388 26.8716 13.0637 24.9689C11.9885 23.0662 11.3353 20.9545 11.1485 18.7771L9.48179 2.18748C9.46718 2.04218 9.48329 1.89545 9.52906 1.75679C9.57483 1.61813 9.64924 1.49064 9.74745 1.38259C9.84568 1.27455 9.96551 1.18836 10.0992 1.12962C10.2329 1.07088 10.3774 1.04091 10.5235 1.04164H39.4818C39.6278 1.04091 39.7724 1.07088 39.906 1.12962C40.0397 1.18836 40.1595 1.27455 40.2578 1.38259C40.3559 1.49064 40.4303 1.61813 40.4762 1.75679C40.522 1.89545 40.538 2.04218 40.5235 2.18748L38.7505 19.8541Z" fill="#5397FD"/>
<path d="M25.0004 1.04164H10.5254C10.3794 1.04091 10.2348 1.07088 10.1012 1.12962C9.96747 1.18836 9.84763 1.27455 9.74941 1.38259C9.65118 1.49064 9.57678 1.61813 9.53101 1.75679C9.48524 1.89545 9.46913 2.04218 9.48374 2.18748L11.1504 18.7771C11.3365 20.9539 11.9887 23.0654 13.0628 24.9681C14.1369 26.8708 15.6077 28.52 17.3754 29.8041C19.5974 31.4045 22.2623 32.2739 25.0004 32.2916V1.04164Z" fill="#272939"/>
<path d="M6.48477 19.277C4.88704 18.6864 3.50868 17.6203 2.53537 16.2223C1.56205 14.8244 1.04052 13.1617 1.04102 11.4583V9.37496C1.04102 8.82242 1.26051 8.29252 1.65121 7.90181C2.04191 7.51113 2.57181 7.29163 3.12435 7.29163H9.99935" stroke="white" stroke-linecap="round" stroke-linejoin="round"/>
<path d="M43.5146 19.2771C45.1123 18.6864 46.4906 17.6203 47.464 16.2224C48.4373 14.8244 48.9587 13.1618 48.9583 11.4583V9.37501C48.9583 8.82246 48.7387 8.29257 48.3481 7.90186C47.9575 7.51117 47.4275 7.29167 46.875 7.29167H40" stroke="white" stroke-linecap="round" stroke-linejoin="round"/>
<path d="M25 32.2917V41.6667" stroke="white" stroke-linecap="round" stroke-linejoin="round"/>
<path d="M12.5 48.9584C12.5 44.9313 18.0958 41.6667 25 41.6667C31.9042 41.6667 37.5 44.9313 37.5 48.9584H12.5Z" stroke="white" stroke-linecap="round" stroke-linejoin="round"/>
<path d="M38.7505 19.8541C37.8151 29.2125 26.588 36.2395 17.3797 29.8041C15.6108 28.5206 14.1388 26.8716 13.0637 24.9689C11.9885 23.0662 11.3353 20.9545 11.1485 18.7771L9.48179 2.18748C9.46718 2.04218 9.48329 1.89545 9.52906 1.75679C9.57483 1.61813 9.64924 1.49064 9.74745 1.38259C9.84568 1.27455 9.96551 1.18836 10.0992 1.12962C10.2329 1.07088 10.3774 1.04091 10.5235 1.04164H39.4818C39.6278 1.04091 39.7724 1.07088 39.906 1.12962C40.0397 1.18836 40.1595 1.27455 40.2578 1.38259C40.3559 1.49064 40.4303 1.61813 40.4762 1.75679C40.522 1.89545 40.538 2.04218 40.5235 2.18748L38.7505 19.8541Z" stroke="white" stroke-linecap="round" stroke-linejoin="round"/>
</g>
<defs>
<clipPath id="clip0_366_10055">
<rect width="50" height="50" fill="white"/>
</clipPath>
</defs>
</svg>
