<svg width="103" height="90" viewBox="0 0 103 90" fill="none" xmlns="http://www.w3.org/2000/svg">
<g clip-path="url(#clip0_366_6867)">
<path d="M85.3627 58.6405C75.9015 58.6405 69.8725 66.0708 70.4313 74.3133C71.0125 82.8575 78.234 88.078 85.3627 88.3276C93.482 88.611 99.895 82.3657 100.267 74.2426C100.636 65.5678 94.8797 58.6405 85.3627 58.6405ZM96.6663 79.0346C92.9404 87.1651 81.4295 87.3917 75.9486 81.568C70.4002 75.6751 72.9449 65.1725 80.5729 62.1917C91.1533 58.0592 101.248 69.0183 96.6641 79.0346H96.6663Z" fill="#5397FD"/>
<path d="M81.7254 70.6019C81.3115 71.1261 81.0048 71.7267 80.823 72.3694C80.6411 73.0121 80.5877 73.6843 80.6656 74.3477C80.7436 75.011 80.9514 75.6525 81.2773 76.2356C81.6032 76.8186 82.0407 77.3317 82.5649 77.7457C82.8015 77.933 83.0545 78.0987 83.3208 78.2407C84.3922 75.036 85.4186 71.7832 86.5351 68.601C85.6289 68.4916 84.7099 68.6184 83.8671 68.969C83.0244 69.3196 82.2866 69.8821 81.7254 70.6019Z" fill="#5397FD"/>
<path d="M79.1808 63.5588C73.312 66.9949 71.6427 76.1278 76.4197 81.1174C82.1658 87.1174 94.3056 86.2892 96.7426 76.8767C99.351 66.734 88.2917 58.2231 79.1808 63.5588Z" fill="#5397FD"/>
<path d="M22.5601 70.8028C22.6183 69.5357 22.1862 68.2948 21.3535 67.3379C20.5208 66.381 19.3515 65.7816 18.0885 65.6642C16.371 65.5935 6.08848 65.6642 5.84044 65.8394C5.59241 66.0146 5.72473 75.7887 6.05473 75.9714C6.38473 76.154 15.7951 76.2548 17.8447 76.2548C19.8944 76.2548 22.5601 74.8421 22.5601 70.8028ZM13.8778 71.3471C13.8503 70.9707 13.8997 70.5926 14.0231 70.236C14.1465 69.8793 14.3412 69.5515 14.5953 69.2726C14.8495 68.9937 15.1579 68.7694 15.5015 68.6135C15.8452 68.4576 16.2171 68.3733 16.5944 68.3658C16.9489 68.3461 17.3038 68.3989 17.6372 68.5211C17.9706 68.6433 18.2756 68.8323 18.5334 69.0765C18.7912 69.3207 18.9964 69.615 19.1365 69.9413C19.2765 70.2676 19.3485 70.6191 19.3479 70.9742C19.3479 72.4651 18.3231 73.9206 16.8065 73.9206C16.0907 73.9148 15.4009 73.6515 14.8631 73.179C14.3254 72.7064 13.9756 72.0562 13.8778 71.3471Z" fill="#5397FD"/>
<path d="M41.2696 51.9333C39.8199 52.0041 26.6922 52.0373 25.6192 52.1476C25.5117 52.5751 25.4455 53.0119 25.4215 53.4521C25.9133 53.3626 26.3456 53.4521 26.793 53.3809C27.168 53.3326 27.3255 54.0237 26.6772 54.0034L25.3696 53.9626C25.3433 54.5017 25.1568 55.0206 24.8338 55.453C24.3196 56.0267 22.3524 56.0642 20.7946 55.6764C19.9149 55.456 19.1525 54.9082 18.663 54.1448H17.3617C16.788 54.1448 16.9406 53.6942 17.1308 53.668C17.5444 53.6144 17.9617 53.5823 18.3753 53.5416C18.2196 53.0946 18.1772 52.616 18.2521 52.1487C17.2647 52.115 14.8278 52.0442 12.8194 52.1487C8.7576 52.363 6.85742 55.5398 6.85742 59.1055C6.85742 60.3055 6.99885 63.0221 7.07171 65.1757C9.08385 65.1425 14.5915 64.926 17.5947 65.0342C21.4401 65.1757 23.2776 67.7171 23.2401 70.7541C23.2026 73.791 22.0294 76.7835 17.6188 76.8767C16.3106 76.9105 8.89903 76.7016 7.41617 76.6625C7.44992 77.5828 7.34921 80.3589 7.48689 83.3696C7.66206 87.1817 10.5238 88.5864 14.1297 88.5864C16.2538 88.5864 38.5706 88.265 45.986 88.1616C45.7326 87.0216 46.1831 85.3073 47.2005 84.0628C47.4838 82.5462 51.6721 68.4125 52.991 65.5207C51.6137 64.3566 43.211 55.7433 41.2696 51.9333ZM8.70189 63.9542C8.32689 63.9167 8.45224 62.8737 8.45599 62.5978C8.45599 61.8526 9.09296 61.8151 9.05974 62.5978C9.04849 62.8475 9.11331 63.995 8.70189 63.9542ZM8.7501 60.4925C8.32528 60.4662 8.49296 59.1955 8.50421 58.8939C8.50421 58.4916 9.14706 58.4503 9.13421 58.8526C9.12135 59.255 9.20492 60.5262 8.7501 60.4812V60.4925ZM9.49528 56.6728C9.38814 56.8517 9.3201 57.3585 9.03349 57.3066C8.46349 57.2058 9.3201 55.0705 9.88689 55.5328C10.1922 55.7937 9.65546 56.3825 9.48403 56.6728H9.49528ZM12.3721 54.411C11.9323 54.5111 11.5058 54.6624 11.1013 54.8621C10.6058 55.108 10.2405 54.3264 11.8133 53.8978C12.7299 53.6444 12.5955 54.3226 12.3608 54.4121L12.3721 54.411ZM15.7256 54.1057C15.2301 54.1491 14.7323 54.1614 14.2353 54.1426C13.9262 54.1094 13.6353 53.6069 14.9397 53.4944C16.5046 53.3567 16.0015 54.0982 15.7219 54.1057H15.7256ZM9.29706 77.6594C9.60617 77.6594 9.58367 78.1737 9.59867 78.6135C9.59867 78.9114 9.7551 79.6314 9.28206 79.6378C8.80903 79.6442 8.97992 78.8632 8.97992 78.5985C8.97992 78.3339 8.91778 77.6669 9.29439 77.6594H9.29706ZM9.03617 82.2205C8.79778 80.8603 9.53546 80.6369 9.57617 81.125C9.59373 81.5329 9.63362 81.9396 9.69564 82.3432C9.7701 82.7492 9.1776 83.0808 9.03617 82.2205ZM9.92278 85.5955C9.72586 85.4226 9.57035 85.2077 9.46779 84.9666C9.36522 84.7255 9.31823 84.4644 9.33028 84.2026C9.39028 83.8523 9.66564 83.7853 9.77385 84.0575C9.87684 84.4562 10.0637 84.8284 10.3219 85.1492C10.5983 85.5553 10.3299 85.9041 9.92224 85.5966L9.92278 85.5955ZM12.8156 86.8957C12.5735 87.3505 11.3772 86.7242 11.2208 86.5453C11.1426 86.4521 11.0569 85.9828 11.7983 86.2437C12.2231 86.3889 13.0428 86.4821 12.8231 86.8957H12.8156ZM16.1135 87.3875C15.964 87.5294 14.7121 87.3392 14.4624 87.3092C14.4029 87.3019 14.3482 87.273 14.3085 87.228C14.2687 87.1831 14.2468 87.1252 14.2468 87.0652C14.2468 87.0053 14.2687 86.9474 14.3085 86.9024C14.3482 86.8575 14.4029 86.8286 14.4624 86.8212C14.7121 86.8025 15.979 86.7242 16.1317 87.0001C16.1765 87.0553 16.2001 87.1247 16.1981 87.1958C16.1961 87.2668 16.1688 87.3348 16.121 87.3875H16.1135ZM19.2024 87.5332C18.6763 87.5162 18.1515 87.4714 17.6301 87.3987C17.4549 87.3725 17.148 86.8694 18.0844 86.8807C18.4903 86.8794 18.8959 86.9007 19.2994 86.9444C19.661 86.9889 19.5303 87.5476 19.2099 87.5337L19.2024 87.5332ZM22.8019 87.3055C22.2467 87.3338 21.6901 87.3038 21.1412 87.216C20.9622 87.1903 20.7662 86.7392 21.5735 86.7339C21.9873 86.707 22.4028 86.7196 22.8142 86.7714C23.0676 86.8121 23.0601 87.2889 22.8105 87.3114L22.8019 87.3055ZM25.9765 87.3617C25.5522 87.3987 25.1237 87.3987 24.6989 87.4153C24.4455 87.4153 24.1733 87.0092 24.8178 86.9085C25.1928 86.8491 25.541 86.7853 25.9058 86.7521C26.2706 86.7189 26.3794 87.3296 25.984 87.3633L25.9765 87.3617ZM29.4051 87.3875C28.8761 87.4131 28.346 87.4068 27.8178 87.3687C27.5751 87.3687 27.4862 86.9401 27.7642 86.9069C28.2857 86.8368 28.8109 86.7981 29.3371 86.7912C29.6687 86.7912 29.7726 87.3617 29.4115 87.3875H29.4051ZM30.0115 53.9937H28.5962C28.3578 53.9937 28.2496 53.6026 28.5255 53.5432C29.01 53.4533 29.5011 53.4033 29.9938 53.3937C30.0344 53.3903 30.0752 53.3952 30.1137 53.408C30.1523 53.4208 30.1879 53.4413 30.2183 53.4683C30.2488 53.4953 30.2734 53.5281 30.2908 53.5649C30.3081 53.6017 30.3179 53.6416 30.3193 53.6822C30.3208 53.7228 30.3141 53.7633 30.2994 53.8013C30.2848 53.8392 30.2626 53.8738 30.2343 53.9029C30.2059 53.932 30.1719 53.9551 30.1343 53.9707C30.0968 53.9863 30.0565 53.9941 30.0158 53.9937H30.0115ZM33.0967 87.4298C32.5028 87.4824 31.9044 87.4511 31.3192 87.3366C31.1778 87.2696 30.9442 86.841 31.826 86.8073C32.2508 86.8073 32.6756 86.7848 33.1005 86.8073C33.1727 86.821 33.238 86.8593 33.2851 86.9158C33.3322 86.9723 33.3582 87.0434 33.3586 87.117C33.3591 87.1905 33.334 87.262 33.2875 87.319C33.2411 87.3761 33.1763 87.4152 33.1042 87.4298H33.0967ZM33.9126 54.0944C33.2879 54.1101 32.6632 54.0589 32.0494 53.9417C31.7847 53.893 31.826 53.4162 32.1094 53.4125C32.6997 53.4014 33.2902 53.4275 33.8772 53.4907C34.2421 53.5282 34.2683 54.0869 33.918 54.0944H33.9126ZM36.9571 87.3328C36.3796 87.3328 35.8058 87.3028 35.2315 87.2792C34.9412 87.2792 34.9374 86.78 35.2315 86.7687C35.8058 86.7387 36.3796 86.7087 36.9533 86.7125C37.3074 86.7125 37.3149 87.3312 36.9646 87.335L36.9571 87.3328ZM36.9833 54.0012C36.4765 54.0012 35.9655 53.975 35.4592 53.9476C35.1646 53.9476 35.2246 53.4596 35.4999 53.4446C36.0067 53.4033 36.5322 53.4034 37.0428 53.4034C37.4006 53.4034 37.3224 54.0034 36.9892 54.0034L36.9833 54.0012ZM39.424 53.3937C39.8821 53.3937 40.8512 53.241 40.8662 53.6846C40.8662 54.0596 39.259 53.9975 38.9285 53.9155C38.598 53.8335 38.794 53.4012 39.4315 53.4012L39.424 53.3937ZM41.0376 87.1839C40.8024 87.3478 39.2933 87.2733 39.0287 87.2434C38.764 87.2133 38.7903 86.7741 39.0587 86.7216C39.3271 86.6691 40.7467 86.5073 41.0596 86.7216C41.0894 86.7481 41.1137 86.7802 41.1311 86.8161C41.1484 86.8521 41.1585 86.8911 41.1607 86.9309C41.1629 86.9708 41.1571 87.0107 41.1438 87.0483C41.1305 87.0859 41.1099 87.1205 41.0831 87.1501C41.0713 87.1632 41.0584 87.1752 41.0446 87.186L41.0376 87.1839ZM44.3912 87.2375C44.119 87.2375 42.7181 87.3751 42.7144 86.9246C42.7144 86.5496 44.2047 86.5496 44.4731 86.6032C44.9499 86.6851 45.0281 87.2139 44.4169 87.2401L44.3912 87.2375Z" fill="#5397FD"/>
<path d="M51.2223 12.4646C51.2223 12.0285 50.9009 12.118 50.8312 12.4646C50.7455 12.8819 50.9876 13.6571 51.5764 13.7391C51.6884 13.7573 51.9514 13.6646 51.841 13.4176C51.7307 13.1707 51.2223 13.1578 51.2223 12.4646Z" fill="white"/>
<path d="M52.4582 8.19014C52.164 8.19044 51.8794 8.29481 51.6547 8.48478C51.3788 8.73818 51.5475 9.04353 51.8411 8.85978C52.0452 8.75033 52.2808 8.71476 52.5081 8.75907C52.9029 8.77193 52.8284 8.21639 52.4582 8.19014Z" fill="white"/>
<path d="M54.1958 11.451C54.4755 11.615 54.7958 10.8473 54.5274 10.7059C54.1846 10.5489 53.9537 11.2946 54.1958 11.451Z" fill="white"/>
<path d="M54.5576 9.43138C54.6473 9.45587 54.7311 9.49819 54.8041 9.55581C54.8771 9.61343 54.9377 9.68516 54.9824 9.76673C55.1013 9.93816 55.3547 9.85995 55.247 9.47209C55.221 9.33078 55.1448 9.20363 55.0325 9.11397C54.9202 9.02432 54.7794 8.97819 54.6358 8.98405C54.606 8.97799 54.5754 8.97795 54.5456 8.98394C54.5158 8.98993 54.4876 9.00183 54.4625 9.01893C54.4374 9.03604 54.416 9.05799 54.3995 9.08351C54.3831 9.10903 54.3719 9.13759 54.3667 9.1675C54.3614 9.19741 54.3623 9.22806 54.3691 9.25765C54.3759 9.28724 54.3886 9.31516 54.4064 9.33976C54.4242 9.36436 54.4467 9.38514 54.4727 9.40088C54.4987 9.41661 54.5275 9.42698 54.5576 9.43138Z" fill="white"/>
<path d="M52.4629 9.85245C52.2245 9.57656 51.6465 10.3812 52.0006 10.6496C52.2915 10.8698 52.6119 10.0201 52.4629 9.85245Z" fill="white"/>
<path d="M53.1455 12.688C53.7825 12.6473 53.7005 11.2908 53.7043 10.7841C53.7092 10.7615 53.7093 10.7382 53.7046 10.7157C53.6998 10.6931 53.6904 10.6718 53.6769 10.6531C53.6634 10.6344 53.6461 10.6188 53.6261 10.6073C53.6062 10.5957 53.584 10.5886 53.5611 10.5862C53.5382 10.5838 53.515 10.5863 53.4931 10.5934C53.4712 10.6006 53.451 10.6123 53.4339 10.6278C53.4169 10.6433 53.4033 10.6622 53.394 10.6833C53.3847 10.7044 53.38 10.7273 53.3802 10.7503C53.3095 11.1864 53.2907 12.1292 53.1659 12.1849C53.0411 12.2407 52.7909 12.0398 52.5809 12.073C52.2252 12.1292 52.6907 12.7142 53.1455 12.688Z" fill="white"/>
<path d="M71.7437 25.0292C71.8814 24.2841 71.5535 23.1998 72.2317 22.4208C72.6303 21.9666 74.2101 21.5937 74.4485 20.9305C74.4668 20.8897 74.4731 20.8445 74.4665 20.8002C74.46 20.7559 74.4409 20.7145 74.4116 20.6807C74.3822 20.6469 74.3439 20.6222 74.301 20.6095C74.258 20.5968 74.2124 20.5967 74.1694 20.6091C73.886 20.6685 73.5319 21.0489 72.8537 21.3023C71.8701 21.6773 71.2332 22.1107 71.0859 23.3476C70.8635 25.2569 71.6612 25.4878 71.7437 25.0292Z" fill="white"/>
<path d="M74.1235 20.1146C74.8505 18.7394 75.6701 16.7932 76.4635 15.2701C76.9741 14.2828 77.0041 14.4955 78.5528 15.1287C79.5739 15.5498 79.298 15.7625 78.8742 16.7573C78.0803 18.6987 77.19 20.5989 76.3216 22.5066C75.6171 24.0601 75.143 23.1666 73.4191 22.663C73.1207 22.5778 73.0441 23.038 73.2734 23.1516C73.7726 23.4269 75.211 24.0757 75.7778 23.923C76.5042 23.7253 76.8134 22.9132 77.0893 22.2944C77.6035 21.1319 78.9894 17.9123 79.4292 16.8505C79.8691 15.7887 80.2382 15.1512 79.0569 14.6541C78.6359 14.4751 78.1998 14.3075 77.775 14.1435C76.3741 13.5917 76.1678 14.4232 75.6696 15.403C74.9242 16.8762 74.2625 18.3902 73.6875 19.9378C73.6392 20.1478 74.0121 20.3267 74.1235 20.1146Z" fill="white"/>
<path d="M74.176 27.1759C74.9105 26.8154 75.6091 26.3862 76.2626 25.8939C76.8883 25.4916 77.5928 25.1712 77.8017 24.4036C78.2485 22.7862 78.6176 21.1502 79.005 19.5221C79.0682 19.2543 78.6835 19.2312 78.5989 19.4846C78.1033 20.9755 77.7085 22.4659 77.2725 23.9562C77.0453 24.7502 76.598 24.8916 75.8566 25.3759C75.1645 25.7591 74.5106 26.2076 73.9039 26.7152C73.8701 26.7311 73.84 26.7538 73.8155 26.782C73.7911 26.8102 73.7727 26.8433 73.7618 26.879C73.7508 26.9147 73.7475 26.9522 73.7519 26.9893C73.7563 27.0264 73.7684 27.0621 73.7875 27.0943C73.8066 27.1264 73.8321 27.1541 73.8626 27.1758C73.893 27.1975 73.9276 27.2125 73.9642 27.22C74.0008 27.2275 74.0385 27.2272 74.075 27.2193C74.1115 27.2113 74.1459 27.1958 74.176 27.1737V27.1759Z" fill="white"/>
<path d="M19.4105 53.4012C19.8284 50.5657 21.87 49.2226 22.1571 48.4083C22.1724 48.3591 22.1723 48.3063 22.1569 48.2571C22.1414 48.2078 22.1112 48.1645 22.0705 48.1329C22.0297 48.1013 21.9802 48.0828 21.9287 48.0801C21.8772 48.0773 21.826 48.0903 21.7821 48.1174C21.3835 48.3408 19.9789 50.1671 19.7464 50.5244C19.1084 51.3613 18.8163 52.4113 18.9305 53.4574C18.9969 53.7253 19.3735 53.6283 19.4105 53.4012Z" fill="white"/>
<path d="M22.6459 54.6419C22.7798 54.0982 22.7429 53.353 22.9405 52.5526C23.1045 51.8857 23.4693 51.5096 23.6257 50.9991C23.6369 50.9508 23.6337 50.9003 23.6166 50.8539C23.5994 50.8074 23.569 50.767 23.5291 50.7376C23.4892 50.7083 23.4415 50.6913 23.3921 50.6887C23.3426 50.6861 23.2935 50.6981 23.2507 50.7232C22.3636 51.1855 22.0063 53.6369 22.1739 54.6505C22.2173 54.8916 22.5902 54.8583 22.6459 54.6419Z" fill="white"/>
<path d="M25.4736 50.3273C24.7876 50.7582 24.2971 51.4401 24.1065 52.2275C23.9498 53.0436 23.8958 53.8761 23.9458 54.7057C23.9525 54.7692 23.9817 54.8283 24.0282 54.8722C24.0747 54.9161 24.1353 54.9419 24.1992 54.945C24.263 54.9481 24.3258 54.9283 24.3763 54.8891C24.4269 54.85 24.4617 54.794 24.4745 54.7314C24.6797 53.9417 24.4745 53.1816 24.7579 52.3094C25.0008 51.7065 25.3379 51.146 25.7565 50.6487C25.7772 50.6075 25.7852 50.5611 25.7793 50.5154C25.7734 50.4697 25.7539 50.4268 25.7235 50.3922C25.693 50.3576 25.6528 50.333 25.6082 50.3214C25.5636 50.3098 25.5171 50.3119 25.4736 50.3273Z" fill="white"/>
<path d="M26.8413 49.3025C26.5954 49.116 26.3157 49.4326 26.4663 49.6748C26.8746 50.228 27.3601 50.72 27.9079 51.1357C28.5481 51.4887 29.293 51.6026 30.0095 51.4571C30.0345 51.447 30.0573 51.432 30.0765 51.413C30.0957 51.3941 30.111 51.3715 30.1214 51.3465C30.1318 51.3216 30.1372 51.2949 30.1372 51.2679C30.1372 51.2409 30.1318 51.2142 30.1214 51.1892C30.1076 51.1548 30.0844 51.125 30.0545 51.103C29.6795 50.8458 28.9364 51.0617 28.2957 50.585C27.7841 50.1891 27.3555 49.6748 26.8413 49.3025Z" fill="white"/>
<path d="M20.4659 54.2508C20.4922 54.5229 20.9133 54.6494 20.984 54.3328C21.1447 53.5876 21.1629 52.9613 21.3193 52.3281C21.4758 51.6949 22.2397 50.6846 22.154 50.3942C21.8968 49.5146 20.2313 51.6054 20.4659 54.2508Z" fill="white"/>
<path d="M22.2912 47.7446C23.6153 48.2347 25.0156 48.4871 26.4275 48.4903C27.2214 48.4903 27.0944 48.3783 27.4003 47.7446C30.7539 40.6089 33.2091 36.5214 37.4273 33.1003C37.1632 37.0989 37.2859 43.221 39.0596 46.888C39.3537 47.4987 39.2739 47.6626 40.0175 47.5175C48.0773 45.9301 51.5128 42.8669 56.8453 39.9494C57.2771 39.7148 57.2203 39.5546 57.0425 39.0291C54.531 32.2582 55.9469 27.6719 54.9409 23.3787C54.8873 23.1366 54.4587 23.2035 54.501 23.4607C55.4401 29.1805 53.9091 33.1491 56.6252 39.4426C50.6187 42.3194 48.2225 45.2744 39.7603 46.9625C38.1243 44.2084 37.6769 38.0192 38.0385 32.6198C39.2171 31.6807 40.416 30.7566 41.5743 29.7992C41.6094 29.7693 41.6317 29.727 41.6364 29.6811C41.6411 29.6352 41.628 29.5892 41.5997 29.5527C41.5715 29.5162 41.5302 29.492 41.4846 29.4852C41.4389 29.4783 41.3924 29.4893 41.3546 29.5158C33.4116 34.8114 31.0689 38.2164 26.7435 47.8603C25.4878 47.9535 22.9244 47.4655 22.2312 47.0332C23.7216 41.8464 27.0232 32.8957 32.5169 25.9126C35.781 21.7689 39.3918 17.998 44.78 16.9287C46.2923 19.0469 50.2941 20.7076 51.44 17.6739C56.5116 18.9596 56.7971 21.2214 57.8343 25.2232C58.4433 27.8796 59.3162 30.4685 60.44 32.9514C59.8662 33.2728 59.2925 33.5889 58.7294 33.928C58.6726 33.9557 58.6291 34.0048 58.6085 34.0646C58.5879 34.1244 58.5919 34.1899 58.6196 34.2467C58.6473 34.3036 58.6965 34.3471 58.7562 34.3677C58.816 34.3883 58.8815 34.3843 58.9384 34.3566C62.5277 33.0259 67.9448 28.4166 70.7021 25.9426C71.3356 26.7659 72.1488 27.4336 73.0796 27.8948C71.8164 30.5889 70.0614 32.9439 67.2103 36.0376C67.0207 36.2423 67.2885 36.4844 67.5012 36.3092C69.666 34.4985 72.4984 30.8578 73.5864 28.2162C73.8398 27.5975 73.6978 27.4705 73.2693 27.2519C72.4366 26.8335 71.7006 26.2457 71.1082 25.5264C70.7953 25.1353 70.6871 25.1948 70.311 25.5264C67.5114 28.0662 64.3507 30.7158 60.9221 32.6685C59.8731 30.1651 59.0343 27.5786 58.4144 24.936C57.2776 20.5432 56.5775 18.2589 51.778 17.1446C51.1351 16.9957 51.0328 17.0326 50.8577 17.5196C49.9035 19.9416 46.4905 18.2648 45.35 16.6994C45.0521 16.2896 45.1266 16.2601 44.5228 16.3244C39.47 17.0284 35.8255 20.796 32.8185 24.4625C28.2393 30.0221 23.7076 39.4978 21.7775 46.5409C21.5723 47.2828 21.6007 47.4398 22.2912 47.7446Z" fill="white"/>
<path d="M101.982 89.0541C68.6171 89.0541 32.8893 89.1923 0.880859 89.1698C0.505859 89.1698 0.505859 89.8126 0.880859 89.8126C34.2559 89.9359 68.6991 89.8126 102.077 89.8126C102.548 89.7923 102.456 89.0541 101.982 89.0541Z" fill="white"/>
<path d="M48.6133 84.7394C48.7477 84.5085 48.4456 84.1801 48.2409 84.404C47.7304 84.959 45.9266 87.7908 47.2124 88.2869C48.0658 88.6147 56.8595 88.2606 57.8693 88.1005C59.0099 87.9215 59.1625 86.9042 58.1715 86.4049C57.5008 86.0658 53.8231 84.4822 53.0179 84.419C52.9731 84.4153 52.9283 84.4261 52.8902 84.4499C52.852 84.4736 52.8226 84.5091 52.8063 84.551C52.79 84.5928 52.7876 84.6389 52.7996 84.6822C52.8116 84.7255 52.8372 84.7638 52.8727 84.7913C53.4802 85.183 56.7593 86.2485 57.8174 86.8929C59.0099 87.6381 56.4781 87.6569 55.7045 87.6906C53.0441 87.7946 50.3725 87.7838 47.7041 87.7946C47.3291 87.7946 47.2424 87.7463 47.3291 87.3215C47.6434 86.4088 48.0751 85.5408 48.6133 84.7394Z" fill="white"/>
<path d="M74.8058 58.1375C76.848 57.53 78.3951 56.9262 80.5964 56.7982C81.5767 56.7387 81.5392 57.0998 80.6971 57.5059C77.9754 58.8643 75.4415 60.5704 73.1591 62.5812C72.0185 63.5948 71.7319 63.8257 71.2546 61.7841C71.1447 61.3154 71.0972 60.8343 71.1132 60.3532C71.1132 60.0285 70.2898 59.7607 70.7382 62.0337C71.1866 64.3067 71.8975 64.37 73.6846 62.8271C75.9236 60.9084 78.3798 59.259 81.003 57.9125C82.4639 57.1667 82.0391 56.2357 80.5712 56.2517C78.8719 56.2517 76.2073 57.1014 74.6944 57.7684C74.463 57.8728 74.5487 58.2119 74.8058 58.1375Z" fill="white"/>
<path d="M54.5614 48.6183C55.3464 49.4001 56.0552 50.2548 56.678 51.171C59.9124 50.094 63.0581 48.7672 66.0868 47.2025C66.1237 50.4328 69.7237 58.4294 70.4261 59.8421C71.9902 59.0077 73.4789 58.0389 74.8752 56.9466C73.4073 45.9317 74.3427 38.6878 71.8944 37.4133C68.3052 35.5169 59.9925 39.2171 57.3953 40.2826C54.3884 41.5196 51.2544 45.6151 39.7998 48.0258C41.6368 53.6155 52.7373 64.2875 53.6914 65.3492C52.7041 67.8907 48.3964 82.4342 48.1843 83.705C49.9564 83.8736 51.7363 83.9451 53.5162 83.9192C55.9494 80.1928 62.34 66.5508 62.34 63.9371C62.34 60.3001 56.5607 51.6403 54.3252 48.8642C54.1886 48.6837 54.3868 48.4416 54.5614 48.6183Z" fill="white"/>
<path d="M50.6709 17.2566C50.7164 16.9687 50.7881 16.6855 50.8852 16.4107C52.8866 16.6935 54.2393 14.4655 54.9845 12.621C55.4577 11.5212 55.8403 10.3846 56.1282 9.22246C56.1877 8.88335 55.8068 8.92835 55.7532 9.11532C55.4923 9.928 55.1902 10.8259 54.6759 12.0741C53.3163 15.4019 51.3545 17.6637 48.5425 14.038C48.3636 13.8071 48.047 14.0862 48.1959 14.3321C48.6657 15.2151 49.4308 15.9049 50.3575 16.281C49.9107 17.7184 50.6265 17.5357 50.6709 17.2566Z" fill="white"/>
<path d="M45.8416 16.3325C45.8416 16.5408 46.1662 16.5858 46.2166 16.4032C46.6152 14.976 47.1273 13.5714 47.5918 12.155C47.6989 11.8159 47.9084 11.7157 47.3121 11.2164C47.0751 10.9465 46.9539 10.5941 46.9749 10.2355C46.9958 9.87697 47.1572 9.54109 47.4241 9.30067C47.5086 9.22157 47.6118 9.16528 47.724 9.13712C47.8363 9.10896 47.9539 9.10985 48.0657 9.1397C48.1775 9.16956 48.2798 9.22739 48.3631 9.30776C48.4464 9.38813 48.5078 9.48838 48.5416 9.59906C48.6723 10.0089 48.9852 9.63978 49.0773 9.47585C49.8225 8.14942 51.2946 8.30585 51.3466 6.12228C51.8871 7.1321 53.1466 7.7396 53.9887 7.50871C54.3638 7.42683 54.7544 7.45343 55.1149 7.58539C55.4754 7.71736 55.7909 7.94922 56.0245 8.25389C56.8184 9.08103 58.9612 8.55924 59.6357 7.13585C60.6487 4.99728 59.2853 2.66424 57.7312 2.72371C56.3673 2.76496 55.4957 2.4521 55.1228 1.75942C54.3777 0.369244 51.8212 0.0901363 50.5993 1.19317C49.7571 1.9571 49.0007 1.91585 48.1173 1.90085C46.6045 1.87889 45.1661 3.64139 45.8593 5.50032C46.4368 7.04692 46.2343 7.8146 45.4012 8.55389C44.078 9.75389 45.0696 12.1201 46.56 13.5623C46.3409 14.1264 45.7934 15.8407 45.8416 16.3325Z" fill="white"/>
</g>
<defs>
<clipPath id="clip0_366_6867">
<rect width="102.321" height="90" fill="white" transform="translate(0.333008)"/>
</clipPath>
</defs>
</svg>
