<svg width="817" height="245" viewBox="0 0 817 245" fill="none" xmlns="http://www.w3.org/2000/svg">
<line x1="26.9375" y1="41.5" x2="816.938" y2="41.5" stroke="white" stroke-opacity="0.05"/>
<line x1="26.9375" y1="83.5" x2="816.938" y2="83.5" stroke="white" stroke-opacity="0.05"/>
<line x1="26.9375" y1="125.5" x2="816.938" y2="125.5" stroke="white" stroke-opacity="0.05"/>
<line x1="26.9375" y1="167.5" x2="816.938" y2="167.5" stroke="white" stroke-opacity="0.05"/>
<line x1="26.9375" y1="209.5" x2="816.938" y2="209.5" stroke="white" stroke-opacity="0.05"/>
<path d="M29.0004 235.924H27.2602L26.6684 235.678C26.0902 235.459 25.6469 235.139 25.3383 234.717C25.0297 234.295 24.8754 233.754 24.8754 233.094C24.8754 232.52 24.9848 232.039 25.2035 231.652C25.4223 231.262 25.7328 230.967 26.1352 230.768C26.5414 230.568 27.0219 230.469 27.5766 230.469H30.1605V239H28.4438V231.893H27.5824C27.2348 231.893 26.9809 232.01 26.8207 232.244C26.6605 232.479 26.5805 232.811 26.5805 233.24C26.5805 233.553 26.6195 233.809 26.6977 234.008C26.7758 234.207 26.891 234.355 27.0434 234.453C27.1996 234.547 27.3988 234.594 27.641 234.594H28.9945L29.0004 235.924ZM27.8227 235.203L26.2582 239H24.4125L25.977 235.203H27.8227ZM36.0026 233.926V235.344H32.5045V233.926H36.0026ZM32.9909 230.469V239H31.2741V230.469H32.9909ZM37.2448 230.469V239H35.5455V230.469H37.2448ZM41.2821 235.279H39.536L39.5302 234.037H41.0184C41.2528 234.037 41.4442 233.998 41.5927 233.92C41.745 233.838 41.8563 233.719 41.9266 233.562C42.0009 233.402 42.038 233.209 42.038 232.982C42.038 232.721 42.0048 232.512 41.9384 232.355C41.872 232.195 41.7645 232.078 41.6161 232.004C41.4677 231.93 41.2743 231.893 41.036 231.893H40.122V239H38.4052V230.469H41.036C41.4618 230.469 41.8427 230.516 42.1786 230.609C42.5145 230.703 42.7997 230.846 43.0341 231.037C43.2684 231.229 43.4462 231.471 43.5673 231.764C43.6923 232.057 43.7548 232.402 43.7548 232.801C43.7548 233.152 43.6845 233.477 43.5438 233.773C43.4032 234.07 43.1825 234.312 42.8817 234.5C42.5848 234.688 42.1962 234.793 41.7157 234.816L41.2821 235.279ZM41.2235 239H39.0497L39.7352 237.582H41.2235C41.4501 237.582 41.6337 237.533 41.7743 237.436C41.9149 237.338 42.0165 237.207 42.079 237.043C42.1415 236.875 42.1727 236.684 42.1727 236.469C42.1727 236.227 42.1434 236.016 42.0848 235.836C42.0302 235.656 41.9384 235.52 41.8095 235.426C41.6805 235.328 41.5067 235.279 41.288 235.279H39.8114L39.8231 234.037H41.6161L42.0204 234.529C42.4774 234.514 42.8427 234.602 43.1161 234.793C43.3895 234.98 43.5848 235.227 43.702 235.531C43.8231 235.832 43.8837 236.152 43.8837 236.492C43.8837 237.039 43.7802 237.5 43.5731 237.875C43.37 238.246 43.0712 238.527 42.6766 238.719C42.2821 238.906 41.7977 239 41.2235 239ZM47.9913 231.992L46.1573 239H44.3468L47.0128 230.469H48.1437L47.9913 231.992ZM49.4386 239L47.5929 231.992L47.423 230.469H48.5714L51.2609 239H49.4386ZM49.503 235.818V237.242H45.6534V235.818H49.503ZM54.7416 235.994H52.9955V234.57H54.7416C54.9838 234.57 55.181 234.516 55.3334 234.406C55.4896 234.297 55.6029 234.146 55.6732 233.955C55.7435 233.76 55.7787 233.541 55.7787 233.299C55.7787 233.053 55.7416 232.824 55.6673 232.613C55.597 232.398 55.4857 232.225 55.3334 232.092C55.1849 231.959 54.9877 231.893 54.7416 231.893H53.5463V239H51.8353V230.469H54.7416C55.3158 230.469 55.8099 230.59 56.224 230.832C56.638 231.074 56.9545 231.408 57.1732 231.834C57.3959 232.256 57.5072 232.74 57.5072 233.287C57.5072 233.838 57.3959 234.316 57.1732 234.723C56.9545 235.125 56.638 235.438 56.224 235.66C55.8099 235.883 55.3158 235.994 54.7416 235.994ZM59.5641 233.539H61.1871C61.7574 233.539 62.2516 233.65 62.6695 233.873C63.0875 234.096 63.4098 234.41 63.6363 234.816C63.8668 235.223 63.982 235.697 63.982 236.24C63.982 236.65 63.9156 237.023 63.7828 237.359C63.6539 237.695 63.4664 237.986 63.2203 238.232C62.9781 238.479 62.6852 238.668 62.3414 238.801C62.0016 238.934 61.6168 239 61.1871 239H58.4098V230.469H60.1266V237.582H61.1871C61.4254 237.582 61.6246 237.52 61.7848 237.395C61.9449 237.27 62.066 237.105 62.148 236.902C62.2301 236.699 62.2711 236.475 62.2711 236.229C62.2711 235.99 62.2301 235.775 62.148 235.584C62.066 235.393 61.9449 235.242 61.7848 235.133C61.6246 235.02 61.4254 234.963 61.1871 234.963H59.5641V233.539Z" fill="white" fill-opacity="0.5"/>
<path d="M97.3137 231.23H99.1184C99.5364 231.23 99.9251 231.312 100.284 231.477C100.644 231.641 100.956 231.879 101.222 232.191C101.491 232.504 101.7 232.879 101.849 233.316C102.001 233.754 102.077 234.242 102.077 234.781C102.077 235.309 102.001 235.785 101.849 236.211C101.7 236.637 101.491 237.002 101.222 237.307C100.956 237.611 100.644 237.846 100.284 238.01C99.9251 238.174 99.5364 238.256 99.1184 238.256H97.3137C96.8958 238.256 96.5071 238.176 96.1477 238.016C95.7884 237.852 95.472 237.617 95.1985 237.312C94.929 237.008 94.718 236.645 94.5657 236.223C94.4173 235.797 94.343 235.32 94.343 234.793C94.343 234.254 94.4173 233.766 94.5657 233.328C94.718 232.887 94.929 232.512 95.1985 232.203C95.472 231.891 95.7884 231.65 96.1477 231.482C96.5071 231.314 96.8958 231.23 97.3137 231.23ZM97.3137 232.689C97.0481 232.689 96.8118 232.77 96.6048 232.93C96.4016 233.086 96.2434 233.32 96.1302 233.633C96.0169 233.945 95.9602 234.332 95.9602 234.793C95.9602 235.125 95.9934 235.416 96.0598 235.666C96.1262 235.912 96.22 236.119 96.3411 236.287C96.4622 236.455 96.6048 236.582 96.7688 236.668C96.9368 236.754 97.1184 236.797 97.3137 236.797H99.1302C99.3958 236.797 99.6282 236.719 99.8274 236.562C100.031 236.406 100.187 236.18 100.296 235.883C100.409 235.586 100.466 235.219 100.466 234.781C100.466 234.438 100.433 234.135 100.366 233.873C100.304 233.611 100.212 233.395 100.091 233.223C99.9739 233.047 99.8333 232.914 99.6692 232.824C99.5052 232.734 99.3255 232.689 99.1302 232.689H97.3137ZM99.0423 230.117V239.352H97.4016V230.117H99.0423ZM107.867 237.582V239H104.158V237.582H107.867ZM104.691 230.469V239H102.974V230.469H104.691ZM107.369 233.926V235.303H104.158V233.926H107.369ZM107.855 230.469V231.893H104.158V230.469H107.855ZM111.506 235.279H109.76L109.754 234.037H111.242C111.476 234.037 111.668 233.998 111.816 233.92C111.969 233.838 112.08 233.719 112.15 233.562C112.224 233.402 112.261 233.209 112.261 232.982C112.261 232.721 112.228 232.512 112.162 232.355C112.095 232.195 111.988 232.078 111.84 232.004C111.691 231.93 111.498 231.893 111.26 231.893H110.345V239H108.629V230.469H111.26C111.685 230.469 112.066 230.516 112.402 230.609C112.738 230.703 113.023 230.846 113.258 231.037C113.492 231.229 113.67 231.471 113.791 231.764C113.916 232.057 113.978 232.402 113.978 232.801C113.978 233.152 113.908 233.477 113.767 233.773C113.627 234.07 113.406 234.312 113.105 234.5C112.808 234.688 112.42 234.793 111.939 234.816L111.506 235.279ZM111.447 239H109.273L109.959 237.582H111.447C111.674 237.582 111.857 237.533 111.998 237.436C112.138 237.338 112.24 237.207 112.302 237.043C112.365 236.875 112.396 236.684 112.396 236.469C112.396 236.227 112.367 236.016 112.308 235.836C112.254 235.656 112.162 235.52 112.033 235.426C111.904 235.328 111.73 235.279 111.511 235.279H110.035L110.047 234.037H111.84L112.244 234.529C112.701 234.514 113.066 234.602 113.34 234.793C113.613 234.98 113.808 235.227 113.926 235.531C114.047 235.832 114.107 236.152 114.107 236.492C114.107 237.039 114.004 237.5 113.797 237.875C113.594 238.246 113.295 238.527 112.9 238.719C112.506 238.906 112.021 239 111.447 239ZM118.033 235.994H116.287V234.57H118.033C118.275 234.57 118.473 234.516 118.625 234.406C118.781 234.297 118.895 234.146 118.965 233.955C119.035 233.76 119.07 233.541 119.07 233.299C119.07 233.053 119.033 232.824 118.959 232.613C118.889 232.398 118.777 232.225 118.625 232.092C118.477 231.959 118.279 231.893 118.033 231.893H116.838V239H115.127V230.469H118.033C118.607 230.469 119.102 230.59 119.516 230.832C119.93 231.074 120.246 231.408 120.465 231.834C120.688 232.256 120.799 232.74 120.799 233.287C120.799 233.838 120.688 234.316 120.465 234.723C120.246 235.125 119.93 235.438 119.516 235.66C119.102 235.883 118.607 235.994 118.033 235.994ZM123.752 231.992L121.918 239H120.108L122.774 230.469H123.905L123.752 231.992ZM125.199 239L123.354 231.992L123.184 230.469H124.332L127.022 239H125.199ZM125.264 235.818V237.242H121.414V235.818H125.264ZM132.43 230.469V231.893H128.932V230.469H132.43ZM133.672 230.469V239H131.967V230.469H133.672ZM128.721 230.469H130.42L130.25 234.77C130.227 235.41 130.176 235.967 130.098 236.439C130.02 236.912 129.915 237.312 129.782 237.641C129.653 237.965 129.491 238.229 129.295 238.432C129.1 238.631 128.874 238.775 128.616 238.865C128.358 238.955 128.067 239 127.743 239H127.338V237.582L127.532 237.559C127.684 237.539 127.819 237.49 127.936 237.412C128.053 237.33 128.153 237.209 128.235 237.049C128.317 236.885 128.383 236.676 128.434 236.422C128.489 236.164 128.53 235.852 128.557 235.484C128.588 235.117 128.61 234.689 128.622 234.201L128.721 230.469ZM135.981 233.539H137.604C138.175 233.539 138.669 233.65 139.087 233.873C139.505 234.096 139.827 234.41 140.053 234.816C140.284 235.223 140.399 235.697 140.399 236.24C140.399 236.65 140.333 237.023 140.2 237.359C140.071 237.695 139.884 237.986 139.637 238.232C139.395 238.479 139.102 238.668 138.759 238.801C138.419 238.934 138.034 239 137.604 239H134.827V230.469H136.544V237.582H137.604C137.842 237.582 138.042 237.52 138.202 237.395C138.362 237.27 138.483 237.105 138.565 236.902C138.647 236.699 138.688 236.475 138.688 236.229C138.688 235.99 138.647 235.775 138.565 235.584C138.483 235.393 138.362 235.242 138.202 235.133C138.042 235.02 137.842 234.963 137.604 234.963H135.981V233.539Z" fill="white" fill-opacity="0.5"/>
<path d="M171.465 230.469H172.971L174.712 236.305L176.446 230.469H177.776L175.35 239H174.067L171.465 230.469ZM170.856 230.469H172.292L172.514 236.094V239H170.856V230.469ZM177.12 230.469H178.561V239H176.909V236.094L177.12 230.469ZM182.915 231.992L181.081 239H179.27L181.936 230.469H183.067L182.915 231.992ZM184.362 239L182.516 231.992L182.347 230.469H183.495L186.184 239H184.362ZM184.427 235.818V237.242H180.577V235.818H184.427ZM189.665 235.994H187.919V234.57H189.665C189.907 234.57 190.105 234.516 190.257 234.406C190.413 234.297 190.526 234.146 190.597 233.955C190.667 233.76 190.702 233.541 190.702 233.299C190.702 233.053 190.665 232.824 190.591 232.613C190.521 232.398 190.409 232.225 190.257 232.092C190.109 231.959 189.911 231.893 189.665 231.893H188.47V239H186.759V230.469H189.665C190.239 230.469 190.734 230.59 191.148 230.832C191.562 231.074 191.878 231.408 192.097 231.834C192.319 232.256 192.431 232.74 192.431 233.287C192.431 233.838 192.319 234.316 192.097 234.723C191.878 235.125 191.562 235.438 191.148 235.66C190.734 235.883 190.239 235.994 189.665 235.994ZM196.738 230.469V239H195.033V230.469H196.738ZM198.859 230.469V231.893H192.952V230.469H198.859Z" fill="white" fill-opacity="0.5"/>
<path d="M232.789 231.992L230.955 239H229.145L231.811 230.469H232.942L232.789 231.992ZM234.237 239L232.391 231.992L232.221 230.469H233.37L236.059 239H234.237ZM234.301 235.818V237.242H230.452V235.818H234.301ZM242.61 230.469V239H240.905V231.893H238.362V239H236.645V230.469H242.61ZM246.683 235.994H244.936V234.57H246.683C246.925 234.57 247.122 234.516 247.274 234.406C247.431 234.297 247.544 234.146 247.614 233.955C247.684 233.76 247.72 233.541 247.72 233.299C247.72 233.053 247.683 232.824 247.608 232.613C247.538 232.398 247.427 232.225 247.274 232.092C247.126 231.959 246.929 231.893 246.683 231.893H245.487V239H243.776V230.469H246.683C247.257 230.469 247.751 230.59 248.165 230.832C248.579 231.074 248.895 231.408 249.114 231.834C249.337 232.256 249.448 232.74 249.448 233.287C249.448 233.838 249.337 234.316 249.114 234.723C248.895 235.125 248.579 235.438 248.165 235.66C247.751 235.883 247.257 235.994 246.683 235.994ZM255.249 237.582V239H251.54V237.582H255.249ZM252.073 230.469V239H250.357V230.469H252.073ZM254.751 233.926V235.303H251.54V233.926H254.751ZM255.237 230.469V231.893H251.54V230.469H255.237ZM260.74 230.469V231.893H257.242V230.469H260.74ZM261.982 230.469V239H260.277V230.469H261.982ZM257.031 230.469H258.73L258.56 234.77C258.536 235.41 258.486 235.967 258.408 236.439C258.329 236.912 258.224 237.312 258.091 237.641C257.962 237.965 257.8 238.229 257.605 238.432C257.41 238.631 257.183 238.775 256.925 238.865C256.667 238.955 256.376 239 256.052 239H255.648V237.582L255.841 237.559C255.994 237.539 256.128 237.49 256.245 237.412C256.363 237.33 256.462 237.209 256.544 237.049C256.626 236.885 256.693 236.676 256.744 236.422C256.798 236.164 256.839 235.852 256.867 235.484C256.898 235.117 256.919 234.689 256.931 234.201L257.031 230.469ZM264.291 233.539H265.914C266.484 233.539 266.978 233.65 267.396 233.873C267.814 234.096 268.136 234.41 268.363 234.816C268.593 235.223 268.709 235.697 268.709 236.24C268.709 236.65 268.642 237.023 268.509 237.359C268.38 237.695 268.193 237.986 267.947 238.232C267.705 238.479 267.412 238.668 267.068 238.801C266.728 238.934 266.343 239 265.914 239H263.136V230.469H264.853V237.582H265.914C266.152 237.582 266.351 237.52 266.511 237.395C266.671 237.27 266.793 237.105 266.875 236.902C266.957 236.699 266.998 236.475 266.998 236.229C266.998 235.99 266.957 235.775 266.875 235.584C266.793 235.393 266.671 235.242 266.511 235.133C266.351 235.02 266.152 234.963 265.914 234.963H264.291V233.539Z" fill="white" fill-opacity="0.5"/>
<path d="M300.603 230.469H302.109L303.849 236.305L305.584 230.469H306.914L304.488 239H303.205L300.603 230.469ZM299.994 230.469H301.429L301.652 236.094V239H299.994V230.469ZM306.258 230.469H307.699V239H306.047V236.094L306.258 230.469ZM312.053 231.992L310.219 239H308.408L311.074 230.469H312.205L312.053 231.992ZM313.5 239L311.654 231.992L311.484 230.469H312.633L315.322 239H313.5ZM313.564 235.818V237.242H309.715V235.818H313.564ZM317.502 235.865L320.168 230.469H321.797V239H320.139V233.668L317.496 239H315.838V230.469H317.502V235.865ZM319.647 228.219H320.854C320.854 228.562 320.77 228.865 320.602 229.127C320.438 229.385 320.203 229.588 319.899 229.736C319.598 229.885 319.24 229.959 318.826 229.959C318.201 229.959 317.707 229.797 317.344 229.473C316.981 229.148 316.799 228.73 316.799 228.219H317.994C317.994 228.422 318.057 228.602 318.182 228.758C318.307 228.914 318.522 228.992 318.826 228.992C319.127 228.992 319.338 228.914 319.459 228.758C319.584 228.602 319.647 228.422 319.647 228.219Z" fill="white" fill-opacity="0.5"/>
<path d="M354.897 235.865L357.563 230.469H359.192V239H357.534V233.668L354.891 239H353.233V230.469H354.897V235.865ZM362.075 230.469V239H360.364V230.469H362.075ZM363.382 234.236V235.596H361.384V234.236H363.382ZM368.901 234.072V235.496C368.901 236.098 368.827 236.625 368.679 237.078C368.534 237.527 368.327 237.904 368.057 238.209C367.792 238.51 367.47 238.736 367.091 238.889C366.716 239.041 366.298 239.117 365.837 239.117C365.384 239.117 364.968 239.041 364.589 238.889C364.214 238.736 363.89 238.51 363.616 238.209C363.343 237.904 363.132 237.527 362.983 237.078C362.839 236.625 362.766 236.098 362.766 235.496V234.072C362.766 233.455 362.839 232.916 362.983 232.455C363.128 231.99 363.337 231.604 363.61 231.295C363.884 230.982 364.208 230.748 364.583 230.592C364.958 230.432 365.372 230.352 365.825 230.352C366.286 230.352 366.704 230.432 367.079 230.592C367.454 230.748 367.778 230.982 368.052 231.295C368.325 231.604 368.534 231.99 368.679 232.455C368.827 232.916 368.901 233.455 368.901 234.072ZM367.196 235.496V234.061C367.196 233.654 367.165 233.309 367.102 233.023C367.044 232.734 366.956 232.498 366.839 232.314C366.725 232.131 366.583 231.996 366.411 231.91C366.243 231.824 366.048 231.781 365.825 231.781C365.606 231.781 365.411 231.824 365.239 231.91C365.071 231.996 364.929 232.131 364.811 232.314C364.698 232.498 364.612 232.734 364.554 233.023C364.499 233.309 364.472 233.654 364.472 234.061V235.496C364.472 235.887 364.501 236.221 364.559 236.498C364.618 236.775 364.706 237.002 364.823 237.178C364.94 237.354 365.083 237.484 365.251 237.57C365.423 237.652 365.618 237.693 365.837 237.693C366.059 237.693 366.255 237.652 366.423 237.57C366.595 237.484 366.737 237.354 366.85 237.178C366.964 237.002 367.05 236.775 367.108 236.498C367.167 236.221 367.196 235.887 367.196 235.496ZM374.603 233.926V235.344H371.105V233.926H374.603ZM371.591 230.469V239H369.874V230.469H371.591ZM375.845 230.469V239H374.146V230.469H375.845ZM378.154 233.539H379.777C380.347 233.539 380.841 233.65 381.259 233.873C381.677 234.096 381.999 234.41 382.226 234.816C382.456 235.223 382.572 235.697 382.572 236.24C382.572 236.65 382.505 237.023 382.372 237.359C382.244 237.695 382.056 237.986 381.81 238.232C381.568 238.479 381.275 238.668 380.931 238.801C380.591 238.934 380.206 239 379.777 239H376.999V230.469H378.716V237.582H379.777C380.015 237.582 380.214 237.52 380.374 237.395C380.535 237.27 380.656 237.105 380.738 236.902C380.82 236.699 380.861 236.475 380.861 236.229C380.861 235.99 380.82 235.775 380.738 235.584C380.656 235.393 380.535 235.242 380.374 235.133C380.214 235.02 380.015 234.963 379.777 234.963H378.154V233.539Z" fill="white" fill-opacity="0.5"/>
<path d="M415.342 235.865L418.008 230.469H419.637V239H417.979V233.668L415.337 239H413.678V230.469H415.342V235.865ZM422.52 230.469V239H420.809V230.469H422.52ZM423.827 234.236V235.596H421.829V234.236H423.827ZM429.347 234.072V235.496C429.347 236.098 429.272 236.625 429.124 237.078C428.979 237.527 428.772 237.904 428.503 238.209C428.237 238.51 427.915 238.736 427.536 238.889C427.161 239.041 426.743 239.117 426.282 239.117C425.829 239.117 425.413 239.041 425.034 238.889C424.659 238.736 424.335 238.51 424.061 238.209C423.788 237.904 423.577 237.527 423.429 237.078C423.284 236.625 423.212 236.098 423.212 235.496V234.072C423.212 233.455 423.284 232.916 423.429 232.455C423.573 231.99 423.782 231.604 424.056 231.295C424.329 230.982 424.653 230.748 425.028 230.592C425.403 230.432 425.817 230.352 426.27 230.352C426.731 230.352 427.149 230.432 427.524 230.592C427.899 230.748 428.224 230.982 428.497 231.295C428.77 231.604 428.979 231.99 429.124 232.455C429.272 232.916 429.347 233.455 429.347 234.072ZM427.641 235.496V234.061C427.641 233.654 427.61 233.309 427.548 233.023C427.489 232.734 427.401 232.498 427.284 232.314C427.171 232.131 427.028 231.996 426.856 231.91C426.688 231.824 426.493 231.781 426.27 231.781C426.052 231.781 425.856 231.824 425.684 231.91C425.516 231.996 425.374 232.131 425.257 232.314C425.143 232.498 425.057 232.734 424.999 233.023C424.944 233.309 424.917 233.654 424.917 234.061V235.496C424.917 235.887 424.946 236.221 425.005 236.498C425.063 236.775 425.151 237.002 425.268 237.178C425.386 237.354 425.528 237.484 425.696 237.57C425.868 237.652 426.063 237.693 426.282 237.693C426.505 237.693 426.7 237.652 426.868 237.57C427.04 237.484 427.182 237.354 427.296 237.178C427.409 237.002 427.495 236.775 427.554 236.498C427.612 236.221 427.641 235.887 427.641 235.496ZM434.884 230.469V231.893H431.386V230.469H434.884ZM436.126 230.469V239H434.421V230.469H436.126ZM431.175 230.469H432.874L432.704 234.77C432.681 235.41 432.63 235.967 432.552 236.439C432.474 236.912 432.368 237.312 432.235 237.641C432.107 237.965 431.944 238.229 431.749 238.432C431.554 238.631 431.327 238.775 431.069 238.865C430.812 238.955 430.521 239 430.196 239H429.792V237.582L429.985 237.559C430.138 237.539 430.273 237.49 430.39 237.412C430.507 237.33 430.607 237.209 430.689 237.049C430.771 236.885 430.837 236.676 430.888 236.422C430.943 236.164 430.984 235.852 431.011 235.484C431.042 235.117 431.064 234.689 431.075 234.201L431.175 230.469ZM438.435 233.539H440.058C440.628 233.539 441.122 233.65 441.54 233.873C441.958 234.096 442.281 234.41 442.507 234.816C442.738 235.223 442.853 235.697 442.853 236.24C442.853 236.65 442.786 237.023 442.654 237.359C442.525 237.695 442.337 237.986 442.091 238.232C441.849 238.479 441.556 238.668 441.212 238.801C440.872 238.934 440.488 239 440.058 239H437.281V230.469H438.997V237.582H440.058C440.296 237.582 440.495 237.52 440.656 237.395C440.816 237.27 440.937 237.105 441.019 236.902C441.101 236.699 441.142 236.475 441.142 236.229C441.142 235.99 441.101 235.775 441.019 235.584C440.937 235.393 440.816 235.242 440.656 235.133C440.495 235.02 440.296 234.963 440.058 234.963H438.435V233.539Z" fill="white" fill-opacity="0.5"/>
<path d="M477.145 231.992L475.311 239H473.5L476.166 230.469H477.297L477.145 231.992ZM478.592 239L476.746 231.992L476.577 230.469H477.725L480.414 239H478.592ZM478.657 235.818V237.242H474.807V235.818H478.657ZM483.866 235.279H482.12L482.114 234.037H483.602C483.837 234.037 484.028 233.998 484.176 233.92C484.329 233.838 484.44 233.719 484.51 233.562C484.585 233.402 484.622 233.209 484.622 232.982C484.622 232.721 484.589 232.512 484.522 232.355C484.456 232.195 484.348 232.078 484.2 232.004C484.051 231.93 483.858 231.893 483.62 231.893H482.706V239H480.989V230.469H483.62C484.046 230.469 484.426 230.516 484.762 230.609C485.098 230.703 485.383 230.846 485.618 231.037C485.852 231.229 486.03 231.471 486.151 231.764C486.276 232.057 486.339 232.402 486.339 232.801C486.339 233.152 486.268 233.477 486.128 233.773C485.987 234.07 485.766 234.312 485.465 234.5C485.169 234.688 484.78 234.793 484.299 234.816L483.866 235.279ZM483.807 239H481.633L482.319 237.582H483.807C484.034 237.582 484.217 237.533 484.358 237.436C484.499 237.338 484.6 237.207 484.663 237.043C484.725 236.875 484.756 236.684 484.756 236.469C484.756 236.227 484.727 236.016 484.669 235.836C484.614 235.656 484.522 235.52 484.393 235.426C484.264 235.328 484.09 235.279 483.872 235.279H482.395L482.407 234.037H484.2L484.604 234.529C485.061 234.514 485.426 234.602 485.7 234.793C485.973 234.98 486.169 235.227 486.286 235.531C486.407 235.832 486.467 236.152 486.467 236.492C486.467 237.039 486.364 237.5 486.157 237.875C485.954 238.246 485.655 238.527 485.26 238.719C484.866 238.906 484.381 239 483.807 239ZM492.286 230.469V231.893H489.216V239H487.505V230.469H492.286ZM495.327 235.889L496.968 230.469H498.808L496.464 237.33C496.37 237.568 496.267 237.797 496.153 238.016C496.044 238.23 495.913 238.422 495.761 238.59C495.609 238.758 495.425 238.889 495.21 238.982C494.995 239.076 494.739 239.123 494.443 239.123C494.372 239.123 494.282 239.121 494.173 239.117C494.068 239.113 493.982 239.109 493.915 239.105L493.886 237.682C493.925 237.689 493.989 237.695 494.079 237.699C494.169 237.703 494.232 237.705 494.267 237.705C494.45 237.705 494.589 237.674 494.683 237.611C494.78 237.545 494.855 237.451 494.905 237.33C494.96 237.209 495.007 237.066 495.046 236.902L495.327 235.889ZM494.53 230.469L495.919 234.588L496.435 236.621L495.163 236.639L492.696 230.469H494.53ZM503.413 236.158H505.119C505.095 236.799 504.966 237.34 504.732 237.781C504.497 238.219 504.163 238.551 503.73 238.777C503.3 239.004 502.781 239.117 502.171 239.117C501.699 239.117 501.279 239.039 500.911 238.883C500.544 238.723 500.232 238.488 499.974 238.18C499.716 237.871 499.521 237.49 499.388 237.037C499.259 236.58 499.195 236.055 499.195 235.461V234.014C499.195 233.42 499.263 232.895 499.4 232.438C499.54 231.98 499.74 231.598 499.997 231.289C500.259 230.977 500.574 230.742 500.941 230.586C501.312 230.426 501.73 230.346 502.195 230.346C502.816 230.346 503.335 230.463 503.753 230.697C504.171 230.932 504.494 231.273 504.72 231.723C504.951 232.168 505.089 232.713 505.136 233.357H503.425C503.413 232.951 503.367 232.633 503.285 232.402C503.206 232.168 503.081 232.004 502.91 231.91C502.738 231.812 502.499 231.764 502.195 231.764C501.968 231.764 501.773 231.805 501.609 231.887C501.445 231.965 501.31 232.092 501.204 232.268C501.099 232.443 501.021 232.674 500.97 232.959C500.923 233.244 500.9 233.592 500.9 234.002V235.461C500.9 235.863 500.921 236.207 500.964 236.492C501.007 236.773 501.076 237.004 501.169 237.184C501.263 237.363 501.39 237.494 501.55 237.576C501.714 237.658 501.921 237.699 502.171 237.699C502.46 237.699 502.693 237.656 502.869 237.57C503.048 237.484 503.181 237.33 503.267 237.107C503.353 236.885 503.402 236.568 503.413 236.158ZM509.173 230.469V239H507.468V230.469H509.173ZM511.295 230.469V231.893H505.388V230.469H511.295Z" fill="white" fill-opacity="0.5"/>
<path d="M546.6 236.158H548.305C548.281 236.799 548.153 237.34 547.918 237.781C547.684 238.219 547.35 238.551 546.916 238.777C546.486 239.004 545.967 239.117 545.358 239.117C544.885 239.117 544.465 239.039 544.098 238.883C543.731 238.723 543.418 238.488 543.16 238.18C542.903 237.871 542.707 237.49 542.574 237.037C542.445 236.58 542.381 236.055 542.381 235.461V234.014C542.381 233.42 542.449 232.895 542.586 232.438C542.727 231.98 542.926 231.598 543.184 231.289C543.445 230.977 543.76 230.742 544.127 230.586C544.498 230.426 544.916 230.346 545.381 230.346C546.002 230.346 546.522 230.463 546.94 230.697C547.358 230.932 547.68 231.273 547.906 231.723C548.137 232.168 548.276 232.713 548.322 233.357H546.611C546.6 232.951 546.553 232.633 546.471 232.402C546.393 232.168 546.268 232.004 546.096 231.91C545.924 231.812 545.686 231.764 545.381 231.764C545.154 231.764 544.959 231.805 544.795 231.887C544.631 231.965 544.496 232.092 544.391 232.268C544.285 232.443 544.207 232.674 544.156 232.959C544.11 233.244 544.086 233.592 544.086 234.002V235.461C544.086 235.863 544.108 236.207 544.151 236.492C544.194 236.773 544.262 237.004 544.356 237.184C544.449 237.363 544.576 237.494 544.736 237.576C544.901 237.658 545.108 237.699 545.358 237.699C545.647 237.699 545.879 237.656 546.055 237.57C546.235 237.484 546.367 237.33 546.453 237.107C546.539 236.885 546.588 236.568 546.6 236.158ZM554.03 237.582V239H550.321V237.582H554.03ZM550.854 230.469V239H549.137V230.469H550.854ZM553.532 233.926V235.303H550.321V233.926H553.532ZM554.018 230.469V231.893H550.321V230.469H554.018ZM559.52 233.926V235.344H556.022V233.926H559.52ZM556.508 230.469V239H554.792V230.469H556.508ZM560.762 230.469V239H559.063V230.469H560.762ZM565.145 230.469V239H563.44V230.469H565.145ZM567.266 230.469V231.893H561.36V230.469H567.266ZM571.778 235.924H570.038L569.446 235.678C568.868 235.459 568.425 235.139 568.116 234.717C567.808 234.295 567.653 233.754 567.653 233.094C567.653 232.52 567.763 232.039 567.982 231.652C568.2 231.262 568.511 230.967 568.913 230.768C569.319 230.568 569.8 230.469 570.355 230.469H572.939V239H571.222V231.893H570.36C570.013 231.893 569.759 232.01 569.599 232.244C569.439 232.479 569.359 232.811 569.359 233.24C569.359 233.553 569.398 233.809 569.476 234.008C569.554 234.207 569.669 234.355 569.821 234.453C569.978 234.547 570.177 234.594 570.419 234.594H571.773L571.778 235.924ZM570.601 235.203L569.036 239H567.191L568.755 235.203H570.601ZM578.822 230.469V231.893H575.757V239H574.046V230.469H578.822ZM575.201 233.539H576.824C577.394 233.539 577.888 233.65 578.306 233.873C578.724 234.096 579.046 234.41 579.273 234.816C579.503 235.223 579.619 235.697 579.619 236.24C579.619 236.65 579.552 237.023 579.419 237.359C579.29 237.695 579.103 237.986 578.857 238.232C578.615 238.479 578.322 238.668 577.978 238.801C577.638 238.934 577.253 239 576.824 239H574.046V230.469H575.763V237.582H576.824C577.062 237.582 577.261 237.52 577.421 237.395C577.581 237.27 577.702 237.105 577.785 236.902C577.867 236.699 577.908 236.475 577.908 236.229C577.908 235.99 577.867 235.775 577.785 235.584C577.702 235.393 577.581 235.242 577.421 235.133C577.261 235.02 577.062 234.963 576.824 234.963H575.201V233.539ZM583.269 235.994H581.523V234.57H583.269C583.511 234.57 583.709 234.516 583.861 234.406C584.017 234.297 584.13 234.146 584.201 233.955C584.271 233.76 584.306 233.541 584.306 233.299C584.306 233.053 584.269 232.824 584.195 232.613C584.125 232.398 584.013 232.225 583.861 232.092C583.713 231.959 583.515 231.893 583.269 231.893H582.074V239H580.363V230.469H583.269C583.843 230.469 584.338 230.59 584.752 230.832C585.166 231.074 585.482 231.408 585.701 231.834C585.923 232.256 586.035 232.74 586.035 233.287C586.035 233.838 585.923 234.316 585.701 234.723C585.482 235.125 585.166 235.438 584.752 235.66C584.338 235.883 583.843 235.994 583.269 235.994ZM588.092 233.539H589.715C590.285 233.539 590.779 233.65 591.197 233.873C591.615 234.096 591.937 234.41 592.164 234.816C592.394 235.223 592.51 235.697 592.51 236.24C592.51 236.65 592.443 237.023 592.31 237.359C592.181 237.695 591.994 237.986 591.748 238.232C591.506 238.479 591.213 238.668 590.869 238.801C590.529 238.934 590.144 239 589.715 239H586.937V230.469H588.654V237.582H589.715C589.953 237.582 590.152 237.52 590.312 237.395C590.472 237.27 590.594 237.105 590.676 236.902C590.758 236.699 590.799 236.475 590.799 236.229C590.799 235.99 590.758 235.775 590.676 235.584C590.594 235.393 590.472 235.242 590.312 235.133C590.152 235.02 589.953 234.963 589.715 234.963H588.092V233.539Z" fill="white" fill-opacity="0.5"/>
<path d="M629.732 234.072V235.496C629.732 236.098 629.657 236.625 629.509 237.078C629.365 237.527 629.157 237.904 628.888 238.209C628.622 238.51 628.3 238.736 627.921 238.889C627.546 239.041 627.13 239.117 626.673 239.117C626.216 239.117 625.798 239.041 625.419 238.889C625.044 238.736 624.72 238.51 624.447 238.209C624.177 237.904 623.968 237.527 623.82 237.078C623.671 236.625 623.597 236.098 623.597 235.496V234.072C623.597 233.455 623.669 232.916 623.814 232.455C623.958 231.99 624.167 231.604 624.441 231.295C624.714 230.982 625.038 230.748 625.413 230.592C625.788 230.432 626.204 230.352 626.661 230.352C627.118 230.352 627.534 230.432 627.909 230.592C628.284 230.748 628.609 230.982 628.882 231.295C629.156 231.604 629.365 231.99 629.509 232.455C629.657 232.916 629.732 233.455 629.732 234.072ZM628.027 235.496V234.061C628.027 233.654 627.997 233.309 627.939 233.023C627.88 232.734 627.792 232.498 627.675 232.314C627.558 232.131 627.415 231.996 627.247 231.91C627.079 231.824 626.884 231.781 626.661 231.781C626.439 231.781 626.241 231.824 626.07 231.91C625.902 231.996 625.759 232.131 625.642 232.314C625.529 232.498 625.443 232.734 625.384 233.023C625.329 233.309 625.302 233.654 625.302 234.061V235.496C625.302 235.887 625.331 236.221 625.39 236.498C625.449 236.775 625.536 237.002 625.654 237.178C625.771 237.354 625.913 237.484 626.081 237.57C626.253 237.652 626.45 237.693 626.673 237.693C626.892 237.693 627.085 237.652 627.253 237.57C627.425 237.484 627.568 237.354 627.681 237.178C627.794 237.002 627.88 236.775 627.939 236.498C627.997 236.221 628.027 235.887 628.027 235.496ZM632.468 230.469V239H630.751V230.469H632.468ZM636.623 230.469L633.968 235.502H632.076L631.841 233.879H633.042L634.548 230.469H636.623ZM634.824 239L633.078 235.203L634.255 233.914L636.857 239H634.824ZM640.672 230.469V239H638.967V230.469H640.672ZM642.793 230.469V231.893H636.886V230.469H642.793ZM647.305 235.924H645.564L644.973 235.678C644.395 235.459 643.951 235.139 643.643 234.717C643.334 234.295 643.18 233.754 643.18 233.094C643.18 232.52 643.289 232.039 643.508 231.652C643.727 231.262 644.037 230.967 644.439 230.768C644.846 230.568 645.326 230.469 645.881 230.469H648.465V239H646.748V231.893H645.887C645.539 231.893 645.285 232.01 645.125 232.244C644.965 232.479 644.885 232.811 644.885 233.24C644.885 233.553 644.924 233.809 645.002 234.008C645.08 234.207 645.195 234.355 645.348 234.453C645.504 234.547 645.703 234.594 645.945 234.594H647.299L647.305 235.924ZM646.127 235.203L644.562 239H642.717L644.281 235.203H646.127ZM654.348 230.469V231.893H651.283V239H649.573V230.469H654.348ZM650.727 233.539H652.35C652.92 233.539 653.414 233.65 653.832 233.873C654.25 234.096 654.573 234.41 654.799 234.816C655.03 235.223 655.145 235.697 655.145 236.24C655.145 236.65 655.078 237.023 654.946 237.359C654.817 237.695 654.629 237.986 654.383 238.232C654.141 238.479 653.848 238.668 653.504 238.801C653.164 238.934 652.78 239 652.35 239H649.573V230.469H651.289V237.582H652.35C652.588 237.582 652.787 237.52 652.948 237.395C653.108 237.27 653.229 237.105 653.311 236.902C653.393 236.699 653.434 236.475 653.434 236.229C653.434 235.99 653.393 235.775 653.311 235.584C653.229 235.393 653.108 235.242 652.948 235.133C652.787 235.02 652.588 234.963 652.35 234.963H650.727V233.539ZM658.795 235.994H657.049V234.57H658.795C659.038 234.57 659.235 234.516 659.387 234.406C659.543 234.297 659.657 234.146 659.727 233.955C659.797 233.76 659.832 233.541 659.832 233.299C659.832 233.053 659.795 232.824 659.721 232.613C659.651 232.398 659.54 232.225 659.387 232.092C659.239 231.959 659.041 231.893 658.795 231.893H657.6V239H655.889V230.469H658.795C659.37 230.469 659.864 230.59 660.278 230.832C660.692 231.074 661.008 231.408 661.227 231.834C661.45 232.256 661.561 232.74 661.561 233.287C661.561 233.838 661.45 234.316 661.227 234.723C661.008 235.125 660.692 235.438 660.278 235.66C659.864 235.883 659.37 235.994 658.795 235.994ZM663.618 233.539H665.241C665.811 233.539 666.305 233.65 666.723 233.873C667.141 234.096 667.464 234.41 667.69 234.816C667.921 235.223 668.036 235.697 668.036 236.24C668.036 236.65 667.969 237.023 667.837 237.359C667.708 237.695 667.52 237.986 667.274 238.232C667.032 238.479 666.739 238.668 666.395 238.801C666.055 238.934 665.671 239 665.241 239H662.464V230.469H664.18V237.582H665.241C665.479 237.582 665.678 237.52 665.839 237.395C665.999 237.27 666.12 237.105 666.202 236.902C666.284 236.699 666.325 236.475 666.325 236.229C666.325 235.99 666.284 235.775 666.202 235.584C666.12 235.393 665.999 235.242 665.839 235.133C665.678 235.02 665.479 234.963 665.241 234.963H663.618V233.539Z" fill="white" fill-opacity="0.5"/>
<path d="M703.668 233.926V235.344H700.17V233.926H703.668ZM700.657 230.469V239H698.94V230.469H700.657ZM704.911 230.469V239H703.211V230.469H704.911ZM712.065 234.072V235.496C712.065 236.098 711.991 236.625 711.842 237.078C711.698 237.527 711.491 237.904 711.221 238.209C710.956 238.51 710.633 238.736 710.255 238.889C709.88 239.041 709.464 239.117 709.006 239.117C708.549 239.117 708.131 239.041 707.753 238.889C707.378 238.736 707.053 238.51 706.78 238.209C706.51 237.904 706.301 237.527 706.153 237.078C706.005 236.625 705.93 236.098 705.93 235.496V234.072C705.93 233.455 706.003 232.916 706.147 232.455C706.292 231.99 706.501 231.604 706.774 231.295C707.048 230.982 707.372 230.748 707.747 230.592C708.122 230.432 708.538 230.352 708.995 230.352C709.452 230.352 709.868 230.432 710.243 230.592C710.618 230.748 710.942 230.982 711.215 231.295C711.489 231.604 711.698 231.99 711.842 232.455C711.991 232.916 712.065 233.455 712.065 234.072ZM710.36 235.496V234.061C710.36 233.654 710.331 233.309 710.272 233.023C710.214 232.734 710.126 232.498 710.008 232.314C709.891 232.131 709.749 231.996 709.581 231.91C709.413 231.824 709.217 231.781 708.995 231.781C708.772 231.781 708.575 231.824 708.403 231.91C708.235 231.996 708.092 232.131 707.975 232.314C707.862 232.498 707.776 232.734 707.717 233.023C707.663 233.309 707.635 233.654 707.635 234.061V235.496C707.635 235.887 707.665 236.221 707.723 236.498C707.782 236.775 707.87 237.002 707.987 237.178C708.104 237.354 708.247 237.484 708.415 237.57C708.587 237.652 708.784 237.693 709.006 237.693C709.225 237.693 709.419 237.652 709.587 237.57C709.758 237.484 709.901 237.354 710.014 237.178C710.128 237.002 710.214 236.775 710.272 236.498C710.331 236.221 710.36 235.887 710.36 235.496ZM716.829 235.924H715.089L714.497 235.678C713.919 235.459 713.475 235.139 713.167 234.717C712.858 234.295 712.704 233.754 712.704 233.094C712.704 232.52 712.813 232.039 713.032 231.652C713.251 231.262 713.561 230.967 713.964 230.768C714.37 230.568 714.85 230.469 715.405 230.469H717.989V239H716.272V231.893H715.411C715.063 231.893 714.809 232.01 714.649 232.244C714.489 232.479 714.409 232.811 714.409 233.24C714.409 233.553 714.448 233.809 714.526 234.008C714.604 234.207 714.72 234.355 714.872 234.453C715.028 234.547 715.227 234.594 715.47 234.594H716.823L716.829 235.924ZM715.651 235.203L714.087 239H712.241L713.806 235.203H715.651ZM723.872 230.469V231.893H720.808V239H719.097V230.469H723.872ZM720.251 233.539H721.874C722.444 233.539 722.939 233.65 723.357 233.873C723.775 234.096 724.097 234.41 724.323 234.816C724.554 235.223 724.669 235.697 724.669 236.24C724.669 236.65 724.603 237.023 724.47 237.359C724.341 237.695 724.153 237.986 723.907 238.232C723.665 238.479 723.372 238.668 723.028 238.801C722.689 238.934 722.304 239 721.874 239H719.097V230.469H720.814V237.582H721.874C722.112 237.582 722.312 237.52 722.472 237.395C722.632 237.27 722.753 237.105 722.835 236.902C722.917 236.699 722.958 236.475 722.958 236.229C722.958 235.99 722.917 235.775 722.835 235.584C722.753 235.393 722.632 235.242 722.472 235.133C722.312 235.02 722.112 234.963 721.874 234.963H720.251V233.539ZM728.32 235.994H726.574V234.57H728.32C728.562 234.57 728.759 234.516 728.911 234.406C729.068 234.297 729.181 234.146 729.251 233.955C729.322 233.76 729.357 233.541 729.357 233.299C729.357 233.053 729.32 232.824 729.245 232.613C729.175 232.398 729.064 232.225 728.911 232.092C728.763 231.959 728.566 231.893 728.32 231.893H727.124V239H725.413V230.469H728.32C728.894 230.469 729.388 230.59 729.802 230.832C730.216 231.074 730.533 231.408 730.751 231.834C730.974 232.256 731.085 232.74 731.085 233.287C731.085 233.838 730.974 234.316 730.751 234.723C730.533 235.125 730.216 235.438 729.802 235.66C729.388 235.883 728.894 235.994 728.32 235.994ZM733.142 233.539H734.765C735.336 233.539 735.83 233.65 736.248 233.873C736.666 234.096 736.988 234.41 737.214 234.816C737.445 235.223 737.56 235.697 737.56 236.24C737.56 236.65 737.494 237.023 737.361 237.359C737.232 237.695 737.045 237.986 736.798 238.232C736.556 238.479 736.263 238.668 735.92 238.801C735.58 238.934 735.195 239 734.765 239H731.988V230.469H733.705V237.582H734.765C735.004 237.582 735.203 237.52 735.363 237.395C735.523 237.27 735.644 237.105 735.726 236.902C735.808 236.699 735.849 236.475 735.849 236.229C735.849 235.99 735.808 235.775 735.726 235.584C735.644 235.393 735.523 235.242 735.363 235.133C735.203 235.02 735.004 234.963 734.765 234.963H733.142V233.539Z" fill="white" fill-opacity="0.5"/>
<path d="M774.243 237.582V239H769.216V237.582H774.243ZM769.702 237.582V241.098H768.091L767.997 237.582H769.702ZM775.486 237.582L775.333 241.098H773.763V237.582H775.486ZM773.359 230.469V231.893H769.913V230.469H773.359ZM774.595 230.469V239H772.89V230.469H774.595ZM769.708 230.469H771.419L771.208 233.961C771.177 234.539 771.124 235.049 771.05 235.49C770.98 235.928 770.892 236.311 770.786 236.639C770.685 236.967 770.572 237.254 770.447 237.5C770.322 237.742 770.189 237.953 770.048 238.133C769.907 238.309 769.763 238.467 769.615 238.607C769.466 238.748 769.32 238.879 769.175 239H768.243V237.582H768.572C768.669 237.488 768.767 237.361 768.865 237.201C768.962 237.037 769.052 236.82 769.134 236.551C769.216 236.281 769.288 235.936 769.351 235.514C769.413 235.092 769.462 234.574 769.497 233.961L769.708 230.469ZM781.035 237.582V239H777.326V237.582H781.035ZM777.859 230.469V239H776.142V230.469H777.859ZM780.537 233.926V235.303H777.326V233.926H780.537ZM781.023 230.469V231.893H777.326V230.469H781.023ZM783.525 230.469V239H781.808V230.469H783.525ZM787.679 230.469L785.025 235.502H783.133L782.898 233.879H784.099L785.605 230.469H787.679ZM785.881 239L784.135 235.203L785.312 233.914L787.914 239H785.881ZM791.418 231.992L789.584 239H787.773L790.439 230.469H791.57L791.418 231.992ZM792.865 239L791.02 231.992L790.85 230.469H791.998L794.688 239H792.865ZM792.93 235.818V237.242H789.08V235.818H792.93ZM800.031 230.469V231.893H796.967V239H795.256V230.469H800.031ZM796.41 233.539H798.033C798.604 233.539 799.098 233.65 799.516 233.873C799.934 234.096 800.256 234.41 800.483 234.816C800.713 235.223 800.828 235.697 800.828 236.24C800.828 236.65 800.762 237.023 800.629 237.359C800.5 237.695 800.313 237.986 800.067 238.232C799.824 238.479 799.531 238.668 799.188 238.801C798.848 238.934 798.463 239 798.033 239H795.256V230.469H796.973V237.582H798.033C798.272 237.582 798.471 237.52 798.631 237.395C798.791 237.27 798.912 237.105 798.994 236.902C799.076 236.699 799.117 236.475 799.117 236.229C799.117 235.99 799.076 235.775 798.994 235.584C798.912 235.393 798.791 235.242 798.631 235.133C798.471 235.02 798.272 234.963 798.033 234.963H796.41V233.539ZM804.479 235.994H802.733V234.57H804.479C804.721 234.57 804.918 234.516 805.071 234.406C805.227 234.297 805.34 234.146 805.411 233.955C805.481 233.76 805.516 233.541 805.516 233.299C805.516 233.053 805.479 232.824 805.405 232.613C805.334 232.398 805.223 232.225 805.071 232.092C804.922 231.959 804.725 231.893 804.479 231.893H803.284V239H801.573V230.469H804.479C805.053 230.469 805.547 230.59 805.961 230.832C806.375 231.074 806.692 231.408 806.911 231.834C807.133 232.256 807.245 232.74 807.245 233.287C807.245 233.838 807.133 234.316 806.911 234.723C806.692 235.125 806.375 235.438 805.961 235.66C805.547 235.883 805.053 235.994 804.479 235.994ZM809.301 233.539H810.925C811.495 233.539 811.989 233.65 812.407 233.873C812.825 234.096 813.147 234.41 813.374 234.816C813.604 235.223 813.719 235.697 813.719 236.24C813.719 236.65 813.653 237.023 813.52 237.359C813.391 237.695 813.204 237.986 812.958 238.232C812.716 238.479 812.423 238.668 812.079 238.801C811.739 238.934 811.354 239 810.925 239H808.147V230.469H809.864V237.582H810.925C811.163 237.582 811.362 237.52 811.522 237.395C811.682 237.27 811.803 237.105 811.885 236.902C811.967 236.699 812.009 236.475 812.009 236.229C812.009 235.99 811.967 235.775 811.885 235.584C811.803 235.393 811.682 235.242 811.522 235.133C811.362 235.02 811.163 234.963 810.925 234.963H809.301V233.539Z" fill="white" fill-opacity="0.5"/>
<path d="M3.11695 42.1328L1.80445 41.8047L2.23219 37.4688H6.35133V38.875H3.57984L3.42164 40.709C3.51148 40.6465 3.6443 40.5781 3.82008 40.5039C3.99977 40.4297 4.19898 40.3926 4.41773 40.3926C4.7693 40.3926 5.0818 40.457 5.35523 40.5859C5.62867 40.7148 5.85914 40.9023 6.04664 41.1484C6.23414 41.3945 6.37672 41.6953 6.47437 42.0508C6.57203 42.4062 6.62086 42.8086 6.62086 43.2578C6.62086 43.6367 6.56812 43.998 6.46266 44.3418C6.36109 44.6855 6.2068 44.9902 5.99977 45.2559C5.79273 45.5215 5.53297 45.7324 5.22047 45.8887C4.90797 46.041 4.54273 46.1172 4.12477 46.1172C3.80836 46.1172 3.50172 46.0625 3.20484 45.9531C2.91187 45.8438 2.6482 45.6816 2.41383 45.4668C2.17945 45.248 1.99195 44.9863 1.85133 44.6816C1.7107 44.373 1.64039 44.0215 1.64039 43.627H3.26344C3.27906 43.8574 3.32398 44.0586 3.3982 44.2305C3.47633 44.3984 3.57398 44.5273 3.69117 44.6172C3.81227 44.707 3.95289 44.752 4.11305 44.752C4.2693 44.752 4.40406 44.7129 4.51734 44.6348C4.63062 44.5527 4.72047 44.4395 4.78687 44.2949C4.85328 44.1504 4.90211 43.9824 4.93336 43.791C4.96461 43.5957 4.98023 43.3867 4.98023 43.1641C4.98023 42.9375 4.95875 42.7324 4.91578 42.5488C4.87672 42.3652 4.81422 42.209 4.72828 42.0801C4.64625 41.9473 4.54078 41.8457 4.41187 41.7754C4.28297 41.7012 4.13062 41.6641 3.95484 41.6641C3.71656 41.6641 3.53687 41.7148 3.41578 41.8164C3.29859 41.9141 3.19898 42.0195 3.11695 42.1328ZM12.4102 40.9844V42.4668C12.4102 43.1074 12.3496 43.6582 12.2285 44.1191C12.1074 44.5801 11.9375 44.959 11.7188 45.2559C11.5 45.5488 11.2402 45.7656 10.9395 45.9062C10.6387 46.0469 10.3066 46.1172 9.94336 46.1172C9.6543 46.1172 9.38281 46.0723 9.12891 45.9824C8.875 45.8926 8.64453 45.7559 8.4375 45.5723C8.23438 45.3848 8.05859 45.1484 7.91016 44.8633C7.76562 44.5742 7.6543 44.2324 7.57617 43.8379C7.49805 43.4395 7.45898 42.9824 7.45898 42.4668V40.9844C7.45898 40.3438 7.51953 39.7949 7.64062 39.3379C7.76562 38.877 7.9375 38.5 8.15625 38.207C8.375 37.9141 8.63477 37.6992 8.93555 37.5625C9.24023 37.4219 9.57422 37.3516 9.9375 37.3516C10.2227 37.3516 10.4922 37.3965 10.7461 37.4863C11.0039 37.5723 11.2324 37.707 11.4316 37.8906C11.6348 38.0742 11.8086 38.3105 11.9531 38.5996C12.1016 38.8848 12.2148 39.2266 12.293 39.625C12.3711 40.0195 12.4102 40.4727 12.4102 40.9844ZM10.7637 42.6953V40.7441C10.7637 40.4434 10.75 40.1797 10.7227 39.9531C10.6992 39.7266 10.666 39.5352 10.623 39.3789C10.5801 39.2227 10.5234 39.0957 10.4531 38.998C10.3828 38.9004 10.3047 38.8301 10.2188 38.7871C10.1328 38.7402 10.0371 38.7168 9.93164 38.7168C9.80664 38.7168 9.69336 38.752 9.5918 38.8223C9.49023 38.8926 9.40234 39.0078 9.32812 39.168C9.25391 39.3242 9.19727 39.5332 9.1582 39.7949C9.12305 40.0527 9.10547 40.3691 9.10547 40.7441V42.6953C9.10547 42.9961 9.11719 43.2617 9.14062 43.4922C9.16797 43.7227 9.20508 43.9199 9.25195 44.084C9.30273 44.2441 9.35938 44.373 9.42188 44.4707C9.48828 44.5684 9.56445 44.6406 9.65039 44.6875C9.74023 44.7305 9.83789 44.752 9.94336 44.752C10.0684 44.752 10.1816 44.7168 10.2832 44.6465C10.3887 44.5723 10.4766 44.4551 10.5469 44.2949C10.6172 44.1348 10.6699 43.9238 10.7051 43.6621C10.7441 43.3965 10.7637 43.0742 10.7637 42.6953ZM18.2405 40.9844V42.4668C18.2405 43.1074 18.1799 43.6582 18.0588 44.1191C17.9377 44.5801 17.7678 44.959 17.5491 45.2559C17.3303 45.5488 17.0705 45.7656 16.7698 45.9062C16.469 46.0469 16.137 46.1172 15.7737 46.1172C15.4846 46.1172 15.2131 46.0723 14.9592 45.9824C14.7053 45.8926 14.4748 45.7559 14.2678 45.5723C14.0647 45.3848 13.8889 45.1484 13.7405 44.8633C13.5959 44.5742 13.4846 44.2324 13.4065 43.8379C13.3284 43.4395 13.2893 42.9824 13.2893 42.4668V40.9844C13.2893 40.3438 13.3498 39.7949 13.4709 39.3379C13.5959 38.877 13.7678 38.5 13.9866 38.207C14.2053 37.9141 14.4651 37.6992 14.7659 37.5625C15.0705 37.4219 15.4045 37.3516 15.7678 37.3516C16.053 37.3516 16.3225 37.3965 16.5764 37.4863C16.8342 37.5723 17.0627 37.707 17.262 37.8906C17.4651 38.0742 17.6389 38.3105 17.7834 38.5996C17.9319 38.8848 18.0452 39.2266 18.1233 39.625C18.2014 40.0195 18.2405 40.4727 18.2405 40.9844ZM16.594 42.6953V40.7441C16.594 40.4434 16.5803 40.1797 16.553 39.9531C16.5295 39.7266 16.4963 39.5352 16.4534 39.3789C16.4104 39.2227 16.3538 39.0957 16.2834 38.998C16.2131 38.9004 16.135 38.8301 16.0491 38.7871C15.9631 38.7402 15.8674 38.7168 15.762 38.7168C15.637 38.7168 15.5237 38.752 15.4221 38.8223C15.3205 38.8926 15.2327 39.0078 15.1584 39.168C15.0842 39.3242 15.0276 39.5332 14.9885 39.7949C14.9534 40.0527 14.9358 40.3691 14.9358 40.7441V42.6953C14.9358 42.9961 14.9475 43.2617 14.9709 43.4922C14.9983 43.7227 15.0354 43.9199 15.0823 44.084C15.133 44.2441 15.1897 44.373 15.2522 44.4707C15.3186 44.5684 15.3948 44.6406 15.4807 44.6875C15.5705 44.7305 15.6682 44.752 15.7737 44.752C15.8987 44.752 16.012 44.7168 16.1135 44.6465C16.219 44.5723 16.3069 44.4551 16.3772 44.2949C16.4475 44.1348 16.5002 43.9238 16.5354 43.6621C16.5745 43.3965 16.594 43.0742 16.594 42.6953Z" fill="white" fill-opacity="0.5"/>
<path d="M6.72633 84.7891V86.1543H1.51734L1.44117 85.082L4.34156 79.4688H5.64234L4.31227 81.9648L3.04664 84.7891H6.72633ZM5.99977 79.4688V88H4.35328V79.4688H5.99977ZM12.4102 82.9844V84.4668C12.4102 85.1074 12.3496 85.6582 12.2285 86.1191C12.1074 86.5801 11.9375 86.959 11.7188 87.2559C11.5 87.5488 11.2402 87.7656 10.9395 87.9062C10.6387 88.0469 10.3066 88.1172 9.94336 88.1172C9.6543 88.1172 9.38281 88.0723 9.12891 87.9824C8.875 87.8926 8.64453 87.7559 8.4375 87.5723C8.23438 87.3848 8.05859 87.1484 7.91016 86.8633C7.76562 86.5742 7.6543 86.2324 7.57617 85.8379C7.49805 85.4395 7.45898 84.9824 7.45898 84.4668V82.9844C7.45898 82.3438 7.51953 81.7949 7.64062 81.3379C7.76562 80.877 7.9375 80.5 8.15625 80.207C8.375 79.9141 8.63477 79.6992 8.93555 79.5625C9.24023 79.4219 9.57422 79.3516 9.9375 79.3516C10.2227 79.3516 10.4922 79.3965 10.7461 79.4863C11.0039 79.5723 11.2324 79.707 11.4316 79.8906C11.6348 80.0742 11.8086 80.3105 11.9531 80.5996C12.1016 80.8848 12.2148 81.2266 12.293 81.625C12.3711 82.0195 12.4102 82.4727 12.4102 82.9844ZM10.7637 84.6953V82.7441C10.7637 82.4434 10.75 82.1797 10.7227 81.9531C10.6992 81.7266 10.666 81.5352 10.623 81.3789C10.5801 81.2227 10.5234 81.0957 10.4531 80.998C10.3828 80.9004 10.3047 80.8301 10.2188 80.7871C10.1328 80.7402 10.0371 80.7168 9.93164 80.7168C9.80664 80.7168 9.69336 80.752 9.5918 80.8223C9.49023 80.8926 9.40234 81.0078 9.32812 81.168C9.25391 81.3242 9.19727 81.5332 9.1582 81.7949C9.12305 82.0527 9.10547 82.3691 9.10547 82.7441V84.6953C9.10547 84.9961 9.11719 85.2617 9.14062 85.4922C9.16797 85.7227 9.20508 85.9199 9.25195 86.084C9.30273 86.2441 9.35938 86.373 9.42188 86.4707C9.48828 86.5684 9.56445 86.6406 9.65039 86.6875C9.74023 86.7305 9.83789 86.752 9.94336 86.752C10.0684 86.752 10.1816 86.7168 10.2832 86.6465C10.3887 86.5723 10.4766 86.4551 10.5469 86.2949C10.6172 86.1348 10.6699 85.9238 10.7051 85.6621C10.7441 85.3965 10.7637 85.0742 10.7637 84.6953ZM18.2405 82.9844V84.4668C18.2405 85.1074 18.1799 85.6582 18.0588 86.1191C17.9377 86.5801 17.7678 86.959 17.5491 87.2559C17.3303 87.5488 17.0705 87.7656 16.7698 87.9062C16.469 88.0469 16.137 88.1172 15.7737 88.1172C15.4846 88.1172 15.2131 88.0723 14.9592 87.9824C14.7053 87.8926 14.4748 87.7559 14.2678 87.5723C14.0647 87.3848 13.8889 87.1484 13.7405 86.8633C13.5959 86.5742 13.4846 86.2324 13.4065 85.8379C13.3284 85.4395 13.2893 84.9824 13.2893 84.4668V82.9844C13.2893 82.3438 13.3498 81.7949 13.4709 81.3379C13.5959 80.877 13.7678 80.5 13.9866 80.207C14.2053 79.9141 14.4651 79.6992 14.7659 79.5625C15.0705 79.4219 15.4045 79.3516 15.7678 79.3516C16.053 79.3516 16.3225 79.3965 16.5764 79.4863C16.8342 79.5723 17.0627 79.707 17.262 79.8906C17.4651 80.0742 17.6389 80.3105 17.7834 80.5996C17.9319 80.8848 18.0452 81.2266 18.1233 81.625C18.2014 82.0195 18.2405 82.4727 18.2405 82.9844ZM16.594 84.6953V82.7441C16.594 82.4434 16.5803 82.1797 16.553 81.9531C16.5295 81.7266 16.4963 81.5352 16.4534 81.3789C16.4104 81.2227 16.3538 81.0957 16.2834 80.998C16.2131 80.9004 16.135 80.8301 16.0491 80.7871C15.9631 80.7402 15.8674 80.7168 15.762 80.7168C15.637 80.7168 15.5237 80.752 15.4221 80.8223C15.3205 80.8926 15.2327 81.0078 15.1584 81.168C15.0842 81.3242 15.0276 81.5332 14.9885 81.7949C14.9534 82.0527 14.9358 82.3691 14.9358 82.7441V84.6953C14.9358 84.9961 14.9475 85.2617 14.9709 85.4922C14.9983 85.7227 15.0354 85.9199 15.0823 86.084C15.133 86.2441 15.1897 86.373 15.2522 86.4707C15.3186 86.5684 15.3948 86.6406 15.4807 86.6875C15.5705 86.7305 15.6682 86.752 15.7737 86.752C15.8987 86.752 16.012 86.7168 16.1135 86.6465C16.219 86.5723 16.3069 86.4551 16.3772 86.2949C16.4475 86.1348 16.5002 85.9238 16.5354 85.6621C16.5745 85.3965 16.594 85.0742 16.594 84.6953Z" fill="white" fill-opacity="0.5"/>
<path d="M3.10523 124.979H3.90211C4.10914 124.979 4.27906 124.932 4.41187 124.838C4.54469 124.74 4.64234 124.604 4.70484 124.428C4.76734 124.252 4.79859 124.047 4.79859 123.812C4.79859 123.594 4.7693 123.402 4.7107 123.238C4.65211 123.074 4.56227 122.945 4.44117 122.852C4.32008 122.758 4.16773 122.711 3.98414 122.711C3.84352 122.711 3.71266 122.75 3.59156 122.828C3.47047 122.906 3.37281 123.018 3.29859 123.162C3.22828 123.303 3.19312 123.473 3.19312 123.672H1.54078C1.54078 123.203 1.6482 122.795 1.86305 122.447C2.07789 122.1 2.36695 121.828 2.73023 121.633C3.09352 121.438 3.49586 121.34 3.93727 121.34C4.43336 121.34 4.86891 121.434 5.24391 121.621C5.61891 121.805 5.91187 122.078 6.12281 122.441C6.33375 122.801 6.43922 123.246 6.43922 123.777C6.43922 124.051 6.38648 124.314 6.28102 124.568C6.17945 124.822 6.03102 125.051 5.8357 125.254C5.64039 125.453 5.40211 125.611 5.12086 125.729C4.84352 125.846 4.52711 125.904 4.17164 125.904H3.10523V124.979ZM3.10523 126.309V125.412H4.17164C4.57008 125.412 4.91773 125.465 5.21461 125.57C5.51539 125.672 5.76344 125.82 5.95875 126.016C6.15797 126.211 6.30641 126.443 6.40406 126.713C6.50172 126.982 6.55055 127.279 6.55055 127.604C6.55055 128.002 6.48414 128.357 6.35133 128.67C6.21852 128.982 6.03297 129.246 5.79469 129.461C5.55641 129.676 5.27906 129.84 4.96266 129.953C4.64625 130.062 4.3025 130.117 3.93141 130.117C3.62281 130.117 3.32008 130.068 3.0232 129.971C2.73023 129.873 2.46656 129.723 2.23219 129.52C1.99781 129.316 1.81227 129.061 1.67555 128.752C1.53883 128.443 1.47047 128.078 1.47047 127.656H3.11109C3.11109 127.867 3.1482 128.057 3.22242 128.225C3.29664 128.389 3.3982 128.518 3.52711 128.611C3.65992 128.705 3.80836 128.752 3.97242 128.752C4.16383 128.752 4.32984 128.703 4.47047 128.605C4.61109 128.508 4.71852 128.371 4.79273 128.195C4.86695 128.02 4.90406 127.814 4.90406 127.58C4.90406 127.279 4.865 127.037 4.78687 126.854C4.70875 126.666 4.59547 126.529 4.44703 126.443C4.29859 126.354 4.11891 126.309 3.90797 126.309H3.10523ZM12.4102 124.984V126.467C12.4102 127.107 12.3496 127.658 12.2285 128.119C12.1074 128.58 11.9375 128.959 11.7188 129.256C11.5 129.549 11.2402 129.766 10.9395 129.906C10.6387 130.047 10.3066 130.117 9.94336 130.117C9.6543 130.117 9.38281 130.072 9.12891 129.982C8.875 129.893 8.64453 129.756 8.4375 129.572C8.23438 129.385 8.05859 129.148 7.91016 128.863C7.76562 128.574 7.6543 128.232 7.57617 127.838C7.49805 127.439 7.45898 126.982 7.45898 126.467V124.984C7.45898 124.344 7.51953 123.795 7.64062 123.338C7.76562 122.877 7.9375 122.5 8.15625 122.207C8.375 121.914 8.63477 121.699 8.93555 121.562C9.24023 121.422 9.57422 121.352 9.9375 121.352C10.2227 121.352 10.4922 121.396 10.7461 121.486C11.0039 121.572 11.2324 121.707 11.4316 121.891C11.6348 122.074 11.8086 122.311 11.9531 122.6C12.1016 122.885 12.2148 123.227 12.293 123.625C12.3711 124.02 12.4102 124.473 12.4102 124.984ZM10.7637 126.695V124.744C10.7637 124.443 10.75 124.18 10.7227 123.953C10.6992 123.727 10.666 123.535 10.623 123.379C10.5801 123.223 10.5234 123.096 10.4531 122.998C10.3828 122.9 10.3047 122.83 10.2188 122.787C10.1328 122.74 10.0371 122.717 9.93164 122.717C9.80664 122.717 9.69336 122.752 9.5918 122.822C9.49023 122.893 9.40234 123.008 9.32812 123.168C9.25391 123.324 9.19727 123.533 9.1582 123.795C9.12305 124.053 9.10547 124.369 9.10547 124.744V126.695C9.10547 126.996 9.11719 127.262 9.14062 127.492C9.16797 127.723 9.20508 127.92 9.25195 128.084C9.30273 128.244 9.35938 128.373 9.42188 128.471C9.48828 128.568 9.56445 128.641 9.65039 128.688C9.74023 128.73 9.83789 128.752 9.94336 128.752C10.0684 128.752 10.1816 128.717 10.2832 128.646C10.3887 128.572 10.4766 128.455 10.5469 128.295C10.6172 128.135 10.6699 127.924 10.7051 127.662C10.7441 127.396 10.7637 127.074 10.7637 126.695ZM18.2405 124.984V126.467C18.2405 127.107 18.1799 127.658 18.0588 128.119C17.9377 128.58 17.7678 128.959 17.5491 129.256C17.3303 129.549 17.0705 129.766 16.7698 129.906C16.469 130.047 16.137 130.117 15.7737 130.117C15.4846 130.117 15.2131 130.072 14.9592 129.982C14.7053 129.893 14.4748 129.756 14.2678 129.572C14.0647 129.385 13.8889 129.148 13.7405 128.863C13.5959 128.574 13.4846 128.232 13.4065 127.838C13.3284 127.439 13.2893 126.982 13.2893 126.467V124.984C13.2893 124.344 13.3498 123.795 13.4709 123.338C13.5959 122.877 13.7678 122.5 13.9866 122.207C14.2053 121.914 14.4651 121.699 14.7659 121.562C15.0705 121.422 15.4045 121.352 15.7678 121.352C16.053 121.352 16.3225 121.396 16.5764 121.486C16.8342 121.572 17.0627 121.707 17.262 121.891C17.4651 122.074 17.6389 122.311 17.7834 122.6C17.9319 122.885 18.0452 123.227 18.1233 123.625C18.2014 124.02 18.2405 124.473 18.2405 124.984ZM16.594 126.695V124.744C16.594 124.443 16.5803 124.18 16.553 123.953C16.5295 123.727 16.4963 123.535 16.4534 123.379C16.4104 123.223 16.3538 123.096 16.2834 122.998C16.2131 122.9 16.135 122.83 16.0491 122.787C15.9631 122.74 15.8674 122.717 15.762 122.717C15.637 122.717 15.5237 122.752 15.4221 122.822C15.3205 122.893 15.2327 123.008 15.1584 123.168C15.0842 123.324 15.0276 123.533 14.9885 123.795C14.9534 124.053 14.9358 124.369 14.9358 124.744V126.695C14.9358 126.996 14.9475 127.262 14.9709 127.492C14.9983 127.723 15.0354 127.92 15.0823 128.084C15.133 128.244 15.1897 128.373 15.2522 128.471C15.3186 128.568 15.3948 128.641 15.4807 128.688C15.5705 128.73 15.6682 128.752 15.7737 128.752C15.8987 128.752 16.012 128.717 16.1135 128.646C16.219 128.572 16.3069 128.455 16.3772 128.295C16.4475 128.135 16.5002 127.924 16.5354 127.662C16.5745 127.396 16.594 127.074 16.594 126.695Z" fill="white" fill-opacity="0.5"/>
<path d="M6.65602 170.635V172H1.62867V170.834L3.93727 167.898C4.15992 167.59 4.33375 167.32 4.45875 167.09C4.58375 166.855 4.67359 166.646 4.72828 166.463C4.78297 166.275 4.81031 166.1 4.81031 165.936C4.81031 165.682 4.78102 165.465 4.72242 165.285C4.66383 165.102 4.57594 164.961 4.45875 164.863C4.34547 164.762 4.20484 164.711 4.03687 164.711C3.83375 164.711 3.66578 164.773 3.53297 164.898C3.40016 165.023 3.30055 165.195 3.23414 165.414C3.17164 165.629 3.14039 165.873 3.14039 166.146H1.49391C1.49391 165.635 1.59742 165.166 1.80445 164.74C2.01539 164.314 2.31031 163.977 2.68922 163.727C3.07203 163.473 3.53102 163.346 4.06617 163.346C4.58961 163.346 5.02711 163.443 5.37867 163.639C5.73414 163.834 6.00172 164.113 6.18141 164.477C6.365 164.836 6.4568 165.266 6.4568 165.766C6.4568 166.051 6.41969 166.328 6.34547 166.598C6.27125 166.863 6.16578 167.129 6.02906 167.395C5.89234 167.656 5.72437 167.924 5.52516 168.197C5.32594 168.471 5.10133 168.754 4.85133 169.047L3.73805 170.635H6.65602ZM12.4102 166.984V168.467C12.4102 169.107 12.3496 169.658 12.2285 170.119C12.1074 170.58 11.9375 170.959 11.7188 171.256C11.5 171.549 11.2402 171.766 10.9395 171.906C10.6387 172.047 10.3066 172.117 9.94336 172.117C9.6543 172.117 9.38281 172.072 9.12891 171.982C8.875 171.893 8.64453 171.756 8.4375 171.572C8.23438 171.385 8.05859 171.148 7.91016 170.863C7.76562 170.574 7.6543 170.232 7.57617 169.838C7.49805 169.439 7.45898 168.982 7.45898 168.467V166.984C7.45898 166.344 7.51953 165.795 7.64062 165.338C7.76562 164.877 7.9375 164.5 8.15625 164.207C8.375 163.914 8.63477 163.699 8.93555 163.562C9.24023 163.422 9.57422 163.352 9.9375 163.352C10.2227 163.352 10.4922 163.396 10.7461 163.486C11.0039 163.572 11.2324 163.707 11.4316 163.891C11.6348 164.074 11.8086 164.311 11.9531 164.6C12.1016 164.885 12.2148 165.227 12.293 165.625C12.3711 166.02 12.4102 166.473 12.4102 166.984ZM10.7637 168.695V166.744C10.7637 166.443 10.75 166.18 10.7227 165.953C10.6992 165.727 10.666 165.535 10.623 165.379C10.5801 165.223 10.5234 165.096 10.4531 164.998C10.3828 164.9 10.3047 164.83 10.2188 164.787C10.1328 164.74 10.0371 164.717 9.93164 164.717C9.80664 164.717 9.69336 164.752 9.5918 164.822C9.49023 164.893 9.40234 165.008 9.32812 165.168C9.25391 165.324 9.19727 165.533 9.1582 165.795C9.12305 166.053 9.10547 166.369 9.10547 166.744V168.695C9.10547 168.996 9.11719 169.262 9.14062 169.492C9.16797 169.723 9.20508 169.92 9.25195 170.084C9.30273 170.244 9.35938 170.373 9.42188 170.471C9.48828 170.568 9.56445 170.641 9.65039 170.688C9.74023 170.73 9.83789 170.752 9.94336 170.752C10.0684 170.752 10.1816 170.717 10.2832 170.646C10.3887 170.572 10.4766 170.455 10.5469 170.295C10.6172 170.135 10.6699 169.924 10.7051 169.662C10.7441 169.396 10.7637 169.074 10.7637 168.695ZM18.2405 166.984V168.467C18.2405 169.107 18.1799 169.658 18.0588 170.119C17.9377 170.58 17.7678 170.959 17.5491 171.256C17.3303 171.549 17.0705 171.766 16.7698 171.906C16.469 172.047 16.137 172.117 15.7737 172.117C15.4846 172.117 15.2131 172.072 14.9592 171.982C14.7053 171.893 14.4748 171.756 14.2678 171.572C14.0647 171.385 13.8889 171.148 13.7405 170.863C13.5959 170.574 13.4846 170.232 13.4065 169.838C13.3284 169.439 13.2893 168.982 13.2893 168.467V166.984C13.2893 166.344 13.3498 165.795 13.4709 165.338C13.5959 164.877 13.7678 164.5 13.9866 164.207C14.2053 163.914 14.4651 163.699 14.7659 163.562C15.0705 163.422 15.4045 163.352 15.7678 163.352C16.053 163.352 16.3225 163.396 16.5764 163.486C16.8342 163.572 17.0627 163.707 17.262 163.891C17.4651 164.074 17.6389 164.311 17.7834 164.6C17.9319 164.885 18.0452 165.227 18.1233 165.625C18.2014 166.02 18.2405 166.473 18.2405 166.984ZM16.594 168.695V166.744C16.594 166.443 16.5803 166.18 16.553 165.953C16.5295 165.727 16.4963 165.535 16.4534 165.379C16.4104 165.223 16.3538 165.096 16.2834 164.998C16.2131 164.9 16.135 164.83 16.0491 164.787C15.9631 164.74 15.8674 164.717 15.762 164.717C15.637 164.717 15.5237 164.752 15.4221 164.822C15.3205 164.893 15.2327 165.008 15.1584 165.168C15.0842 165.324 15.0276 165.533 14.9885 165.795C14.9534 166.053 14.9358 166.369 14.9358 166.744V168.695C14.9358 168.996 14.9475 169.262 14.9709 169.492C14.9983 169.723 15.0354 169.92 15.0823 170.084C15.133 170.244 15.1897 170.373 15.2522 170.471C15.3186 170.568 15.3948 170.641 15.4807 170.688C15.5705 170.73 15.6682 170.752 15.7737 170.752C15.8987 170.752 16.012 170.717 16.1135 170.646C16.219 170.572 16.3069 170.455 16.3772 170.295C16.4475 170.135 16.5002 169.924 16.5354 169.662C16.5745 169.396 16.594 169.074 16.594 168.695Z" fill="white" fill-opacity="0.5"/>
<path d="M5.26734 205.451V214H3.62672V207.467L1.99781 208.094V206.723L5.09156 205.451H5.26734ZM12.4102 208.984V210.467C12.4102 211.107 12.3496 211.658 12.2285 212.119C12.1074 212.58 11.9375 212.959 11.7188 213.256C11.5 213.549 11.2402 213.766 10.9395 213.906C10.6387 214.047 10.3066 214.117 9.94336 214.117C9.6543 214.117 9.38281 214.072 9.12891 213.982C8.875 213.893 8.64453 213.756 8.4375 213.572C8.23438 213.385 8.05859 213.148 7.91016 212.863C7.76562 212.574 7.6543 212.232 7.57617 211.838C7.49805 211.439 7.45898 210.982 7.45898 210.467V208.984C7.45898 208.344 7.51953 207.795 7.64062 207.338C7.76562 206.877 7.9375 206.5 8.15625 206.207C8.375 205.914 8.63477 205.699 8.93555 205.562C9.24023 205.422 9.57422 205.352 9.9375 205.352C10.2227 205.352 10.4922 205.396 10.7461 205.486C11.0039 205.572 11.2324 205.707 11.4316 205.891C11.6348 206.074 11.8086 206.311 11.9531 206.6C12.1016 206.885 12.2148 207.227 12.293 207.625C12.3711 208.02 12.4102 208.473 12.4102 208.984ZM10.7637 210.695V208.744C10.7637 208.443 10.75 208.18 10.7227 207.953C10.6992 207.727 10.666 207.535 10.623 207.379C10.5801 207.223 10.5234 207.096 10.4531 206.998C10.3828 206.9 10.3047 206.83 10.2188 206.787C10.1328 206.74 10.0371 206.717 9.93164 206.717C9.80664 206.717 9.69336 206.752 9.5918 206.822C9.49023 206.893 9.40234 207.008 9.32812 207.168C9.25391 207.324 9.19727 207.533 9.1582 207.795C9.12305 208.053 9.10547 208.369 9.10547 208.744V210.695C9.10547 210.996 9.11719 211.262 9.14062 211.492C9.16797 211.723 9.20508 211.92 9.25195 212.084C9.30273 212.244 9.35938 212.373 9.42188 212.471C9.48828 212.568 9.56445 212.641 9.65039 212.688C9.74023 212.73 9.83789 212.752 9.94336 212.752C10.0684 212.752 10.1816 212.717 10.2832 212.646C10.3887 212.572 10.4766 212.455 10.5469 212.295C10.6172 212.135 10.6699 211.924 10.7051 211.662C10.7441 211.396 10.7637 211.074 10.7637 210.695ZM18.2405 208.984V210.467C18.2405 211.107 18.1799 211.658 18.0588 212.119C17.9377 212.58 17.7678 212.959 17.5491 213.256C17.3303 213.549 17.0705 213.766 16.7698 213.906C16.469 214.047 16.137 214.117 15.7737 214.117C15.4846 214.117 15.2131 214.072 14.9592 213.982C14.7053 213.893 14.4748 213.756 14.2678 213.572C14.0647 213.385 13.8889 213.148 13.7405 212.863C13.5959 212.574 13.4846 212.232 13.4065 211.838C13.3284 211.439 13.2893 210.982 13.2893 210.467V208.984C13.2893 208.344 13.3498 207.795 13.4709 207.338C13.5959 206.877 13.7678 206.5 13.9866 206.207C14.2053 205.914 14.4651 205.699 14.7659 205.562C15.0705 205.422 15.4045 205.352 15.7678 205.352C16.053 205.352 16.3225 205.396 16.5764 205.486C16.8342 205.572 17.0627 205.707 17.262 205.891C17.4651 206.074 17.6389 206.311 17.7834 206.6C17.9319 206.885 18.0452 207.227 18.1233 207.625C18.2014 208.02 18.2405 208.473 18.2405 208.984ZM16.594 210.695V208.744C16.594 208.443 16.5803 208.18 16.553 207.953C16.5295 207.727 16.4963 207.535 16.4534 207.379C16.4104 207.223 16.3538 207.096 16.2834 206.998C16.2131 206.9 16.135 206.83 16.0491 206.787C15.9631 206.74 15.8674 206.717 15.762 206.717C15.637 206.717 15.5237 206.752 15.4221 206.822C15.3205 206.893 15.2327 207.008 15.1584 207.168C15.0842 207.324 15.0276 207.533 14.9885 207.795C14.9534 208.053 14.9358 208.369 14.9358 208.744V210.695C14.9358 210.996 14.9475 211.262 14.9709 211.492C14.9983 211.723 15.0354 211.92 15.0823 212.084C15.133 212.244 15.1897 212.373 15.2522 212.471C15.3186 212.568 15.3948 212.641 15.4807 212.688C15.5705 212.73 15.6682 212.752 15.7737 212.752C15.8987 212.752 16.012 212.717 16.1135 212.646C16.219 212.572 16.3069 212.455 16.3772 212.295C16.4475 212.135 16.5002 211.924 16.5354 211.662C16.5745 211.396 16.594 211.074 16.594 210.695Z" fill="white" fill-opacity="0.5"/>
<path d="M31.5486 124.11L26.0625 133.947V210H816.063V129.438L810.576 138.131C805.09 146.824 794.118 164.21 783.146 156.948C772.174 149.686 761.201 117.776 750.229 104.714C739.257 91.6515 728.285 97.4364 717.313 105.232C706.34 113.027 695.368 122.832 684.396 116.028C673.424 109.223 662.451 85.8085 651.479 72.7553C640.507 59.702 629.535 57.0102 618.562 55.6672C607.59 54.3242 596.618 54.33 585.646 61.1187C574.674 67.9075 563.701 81.4792 552.729 94.7386C541.757 107.998 530.785 120.945 519.813 116.64C508.84 112.336 497.868 90.7787 486.896 90.6876C475.924 90.5965 464.951 111.971 453.979 106.977C443.007 101.983 432.035 70.6201 421.063 75.2964C410.09 79.9728 399.118 120.688 388.146 129.127C377.174 137.565 366.201 113.727 355.229 105.032C344.257 96.3371 333.285 102.786 322.312 106.294C311.34 109.801 300.368 110.368 289.396 109.891C278.424 109.413 267.451 107.891 256.479 96.4141C245.507 84.9367 234.535 63.5038 223.563 56.8875C212.59 50.2711 201.618 58.4715 190.646 57.0439C179.674 55.6164 168.701 44.561 157.729 53.383C146.757 62.205 135.785 90.9043 124.813 98.3532C113.84 105.802 102.868 92.0004 91.8958 84.5542C80.9236 77.1079 69.9514 76.0169 58.9792 85.3081C48.0069 94.5994 37.0347 114.273 31.5486 124.11Z" fill="url(#paint0_linear_366_8348)"/>
<path d="M26.8887 132L31.5637 123.647C37.0439 113.871 48.0044 94.3207 58.9649 85.0875C69.9254 75.8542 80.8859 76.9384 91.8464 84.3382C102.807 91.7379 113.767 105.453 124.728 98.0509C135.688 90.6486 146.649 62.1287 157.609 53.3619C168.57 44.595 179.53 55.5813 190.491 56.9999C201.451 58.4185 212.412 50.2694 223.372 56.8444C234.333 63.4194 245.293 84.7184 256.254 96.124C267.214 107.53 278.175 109.042 289.135 109.516C300.096 109.991 311.056 109.428 322.017 105.942C332.977 102.456 343.938 96.0475 354.898 104.688C365.859 113.328 376.819 137.018 387.78 128.632C398.74 120.246 409.701 79.7854 420.661 75.1383C431.622 70.4912 442.582 101.658 453.543 106.621C464.503 111.584 475.464 90.3428 486.424 90.4333C497.385 90.5239 508.345 111.946 519.306 116.224C530.266 120.502 541.227 107.636 552.187 94.459C563.148 81.2825 574.108 67.7956 585.069 61.0492C596.029 54.3029 606.99 54.2971 617.95 55.6317C628.911 56.9664 639.871 59.6413 650.832 72.613C661.792 85.5847 672.753 108.853 683.713 115.615C694.674 122.377 705.634 112.633 716.595 104.886C727.555 97.1399 738.516 91.3912 749.476 104.372C760.437 117.353 771.397 149.063 782.358 156.279C793.318 163.496 804.279 146.219 809.759 137.58L815.239 128.941" stroke="#5397FD" stroke-width="3" stroke-linecap="round"/>
<rect x="492.312" y="84.25" width="0.5" height="131.5" stroke="#9298B8" stroke-width="0.5" stroke-dasharray="1 4"/>
<circle cx="492.562" cy="82.5" r="5.5" fill="#5397FD" stroke="white" stroke-width="2"/>
<rect x="455.062" y="9" width="73" height="57" rx="10" fill="white" fill-opacity="0.1"/>
<path d="M477.191 31.9902H470.697V29.6172H477.113C477.562 29.6172 477.921 29.526 478.188 29.3438C478.454 29.1549 478.643 28.8978 478.754 28.5723C478.871 28.2467 478.93 27.8724 478.93 27.4492C478.93 27.0391 478.868 26.6615 478.744 26.3164C478.62 25.9648 478.428 25.6849 478.168 25.4766C477.908 25.2682 477.582 25.1641 477.191 25.1641H475.209V37H472.367V22.7812H477.191C478.148 22.7812 478.969 22.9798 479.652 23.377C480.342 23.7741 480.873 24.3275 481.244 25.0371C481.622 25.7402 481.811 26.5378 481.811 27.4297C481.811 28.3867 481.618 29.207 481.234 29.8906C480.85 30.5677 480.313 31.0885 479.623 31.4531C478.933 31.8112 478.122 31.9902 477.191 31.9902ZM477.699 32.7324V35.0957H470.697V32.7324H477.699ZM485.971 28.6309H487.299C487.644 28.6309 487.927 28.5527 488.148 28.3965C488.37 28.2337 488.533 28.0059 488.637 27.7129C488.741 27.4199 488.793 27.0781 488.793 26.6875C488.793 26.3229 488.744 26.0039 488.646 25.7305C488.549 25.457 488.399 25.2422 488.197 25.0859C487.995 24.9297 487.742 24.8516 487.436 24.8516C487.201 24.8516 486.983 24.9167 486.781 25.0469C486.579 25.1771 486.417 25.3626 486.293 25.6035C486.176 25.8379 486.117 26.1211 486.117 26.4531H483.363C483.363 25.6719 483.542 24.9915 483.9 24.4121C484.258 23.8327 484.74 23.3802 485.346 23.0547C485.951 22.7292 486.622 22.5664 487.357 22.5664C488.184 22.5664 488.91 22.7227 489.535 23.0352C490.16 23.3411 490.648 23.7969 491 24.4023C491.352 25.0013 491.527 25.7435 491.527 26.6289C491.527 27.0846 491.439 27.5241 491.264 27.9473C491.094 28.3704 490.847 28.7513 490.521 29.0898C490.196 29.4219 489.799 29.6855 489.33 29.8809C488.868 30.0762 488.34 30.1738 487.748 30.1738H485.971V28.6309ZM485.971 30.8477V29.3535H487.748C488.412 29.3535 488.992 29.4414 489.486 29.6172C489.988 29.7865 490.401 30.0339 490.727 30.3594C491.059 30.6849 491.306 31.0723 491.469 31.5215C491.632 31.9707 491.713 32.4655 491.713 33.0059C491.713 33.6699 491.602 34.2624 491.381 34.7832C491.16 35.304 490.85 35.7435 490.453 36.1016C490.056 36.4596 489.594 36.7331 489.066 36.9219C488.539 37.1042 487.966 37.1953 487.348 37.1953C486.833 37.1953 486.329 37.1139 485.834 36.9512C485.346 36.7884 484.906 36.5378 484.516 36.1992C484.125 35.8607 483.816 35.4342 483.588 34.9199C483.36 34.4056 483.246 33.7969 483.246 33.0938H485.98C485.98 33.4453 486.042 33.7611 486.166 34.041C486.29 34.3145 486.459 34.5293 486.674 34.6855C486.895 34.8418 487.143 34.9199 487.416 34.9199C487.735 34.9199 488.012 34.8385 488.246 34.6758C488.48 34.513 488.66 34.2852 488.783 33.9922C488.907 33.6992 488.969 33.3574 488.969 32.9668C488.969 32.4655 488.904 32.0618 488.773 31.7559C488.643 31.4434 488.454 31.2155 488.207 31.0723C487.96 30.9225 487.66 30.8477 487.309 30.8477H485.971ZM499.848 22.625H500.209V24.9492H500.082C499.464 24.9492 498.923 25.0566 498.461 25.2715C498.005 25.4798 497.624 25.7858 497.318 26.1895C497.019 26.5866 496.794 27.0684 496.645 27.6348C496.495 28.1947 496.42 28.8229 496.42 29.5195V31.9121C496.42 32.4069 496.452 32.8431 496.518 33.2207C496.589 33.5983 496.69 33.9141 496.82 34.168C496.957 34.4154 497.113 34.6009 497.289 34.7246C497.471 34.8483 497.67 34.9102 497.885 34.9102C498.106 34.9102 498.308 34.8451 498.49 34.7148C498.673 34.5846 498.829 34.4056 498.959 34.1777C499.089 33.9434 499.187 33.6699 499.252 33.3574C499.324 33.0449 499.359 32.7031 499.359 32.332C499.359 31.9544 499.324 31.6094 499.252 31.2969C499.18 30.9844 499.079 30.7142 498.949 30.4863C498.819 30.252 498.66 30.0729 498.471 29.9492C498.288 29.819 498.083 29.7539 497.855 29.7539C497.523 29.7539 497.24 29.8548 497.006 30.0566C496.771 30.252 496.592 30.5059 496.469 30.8184C496.345 31.1243 496.277 31.4466 496.264 31.7852L495.443 31.1992C495.469 30.7044 495.561 30.2389 495.717 29.8027C495.88 29.36 496.101 28.9629 496.381 28.6113C496.661 28.2598 496.996 27.9863 497.387 27.791C497.777 27.5892 498.217 27.4883 498.705 27.4883C499.271 27.4883 499.766 27.6152 500.189 27.8691C500.613 28.123 500.964 28.4714 501.244 28.9141C501.531 29.3568 501.742 29.8711 501.879 30.457C502.022 31.0365 502.094 31.6549 502.094 32.3125C502.094 33.0026 501.996 33.6439 501.801 34.2363C501.605 34.8288 501.329 35.3464 500.971 35.7891C500.613 36.2318 500.176 36.5768 499.662 36.8242C499.154 37.0716 498.581 37.1953 497.943 37.1953C497.292 37.1953 496.703 37.0586 496.176 36.7852C495.655 36.5117 495.206 36.1243 494.828 35.623C494.457 35.1152 494.174 34.5163 493.979 33.8262C493.783 33.1361 493.686 32.3743 493.686 31.541V30.4375C493.686 29.2917 493.819 28.2435 494.086 27.293C494.353 26.3359 494.747 25.5091 495.268 24.8125C495.795 24.1159 496.439 23.5788 497.201 23.2012C497.969 22.8171 498.852 22.625 499.848 22.625ZM512.123 34.7246V37H503.744V35.0566L507.592 30.1641C507.963 29.6497 508.253 29.2005 508.461 28.8164C508.669 28.4258 508.819 28.0775 508.91 27.7715C509.001 27.459 509.047 27.166 509.047 26.8926C509.047 26.4694 508.998 26.1081 508.9 25.8086C508.803 25.5026 508.656 25.2682 508.461 25.1055C508.272 24.9362 508.038 24.8516 507.758 24.8516C507.419 24.8516 507.139 24.9557 506.918 25.1641C506.697 25.3724 506.531 25.6589 506.42 26.0234C506.316 26.3815 506.264 26.7884 506.264 27.2441H503.52C503.52 26.3913 503.692 25.61 504.037 24.9004C504.389 24.1908 504.88 23.6276 505.512 23.2109C506.15 22.7878 506.915 22.5762 507.807 22.5762C508.679 22.5762 509.408 22.7389 509.994 23.0645C510.587 23.39 511.033 23.8555 511.332 24.4609C511.638 25.0599 511.791 25.776 511.791 26.6094C511.791 27.0846 511.729 27.5469 511.605 27.9961C511.482 28.4388 511.306 28.8815 511.078 29.3242C510.85 29.7604 510.57 30.2064 510.238 30.6621C509.906 31.1178 509.532 31.5898 509.115 32.0781L507.26 34.7246H512.123Z" fill="white"/>
<path d="M478.248 45.2246L475.916 53H474.814L477.562 44.4688H478.254L478.248 45.2246ZM480.135 53L477.803 45.2246L477.791 44.4688H478.488L481.236 53H480.135ZM480.135 49.8418V50.7676H476.021V49.8418H480.135ZM484.822 50.2109H483.129L483.117 49.3438H484.477C484.746 49.3438 484.969 49.3105 485.145 49.2441C485.324 49.1777 485.459 49.0781 485.549 48.9453C485.639 48.8125 485.684 48.6484 485.684 48.4531C485.684 48.3008 485.658 48.168 485.607 48.0547C485.557 47.9375 485.48 47.8418 485.379 47.7676C485.281 47.6895 485.158 47.6328 485.01 47.5977C484.861 47.5586 484.688 47.5391 484.488 47.5391H483.393V53H482.361V46.6602H484.488C484.832 46.6602 485.141 46.6953 485.414 46.7656C485.691 46.8359 485.926 46.9434 486.117 47.0879C486.312 47.2285 486.461 47.4082 486.562 47.627C486.668 47.8457 486.721 48.1035 486.721 48.4004C486.721 48.5918 486.688 48.7734 486.621 48.9453C486.555 49.1172 486.455 49.2695 486.322 49.4023C486.193 49.5352 486.033 49.6445 485.842 49.7305C485.65 49.8125 485.43 49.8652 485.18 49.8887L484.822 50.2109ZM484.822 53H482.742L483.275 52.1211H484.822C485.061 52.1211 485.256 52.084 485.408 52.0098C485.561 51.9316 485.674 51.8223 485.748 51.6816C485.826 51.5371 485.865 51.3652 485.865 51.166C485.865 50.9668 485.826 50.7969 485.748 50.6562C485.674 50.5117 485.561 50.4023 485.408 50.3281C485.256 50.25 485.061 50.2109 484.822 50.2109H483.434L483.445 49.3438H485.162L485.525 49.6719C485.826 49.6992 486.078 49.7852 486.281 49.9297C486.488 50.0742 486.643 50.2578 486.744 50.4805C486.85 50.6992 486.902 50.9375 486.902 51.1953C486.902 51.4922 486.855 51.7539 486.762 51.9805C486.668 52.207 486.531 52.3965 486.352 52.5488C486.172 52.6973 485.953 52.8105 485.695 52.8887C485.438 52.9629 485.146 53 484.822 53ZM491.801 46.6602V47.5566H489.434V53H488.396V46.6602H491.801ZM494.25 52.3438L495.662 46.6602H496.764L494.672 53.9785C494.621 54.1348 494.553 54.3027 494.467 54.4824C494.385 54.666 494.279 54.8398 494.15 55.0039C494.021 55.168 493.867 55.3008 493.688 55.4023C493.508 55.5078 493.297 55.5605 493.055 55.5605C492.98 55.5605 492.885 55.5488 492.768 55.5254C492.654 55.502 492.572 55.4824 492.521 55.4668V54.5879C492.545 54.5918 492.582 54.5957 492.633 54.5996C492.684 54.6074 492.721 54.6113 492.744 54.6113C492.947 54.6113 493.119 54.5781 493.26 54.5117C493.404 54.4492 493.527 54.3418 493.629 54.1895C493.73 54.041 493.816 53.8359 493.887 53.5742L494.25 52.3438ZM493.336 46.6602L494.596 51.582L494.865 52.7246L494.127 53.123L492.205 46.6602H493.336ZM499.898 52.2324C500.105 52.2324 500.293 52.1914 500.461 52.1094C500.633 52.0234 500.773 51.8906 500.883 51.7109C500.992 51.5273 501.055 51.2891 501.07 50.9961H502.043C502.027 51.418 501.92 51.7891 501.721 52.1094C501.525 52.4258 501.268 52.6738 500.947 52.8535C500.631 53.0293 500.281 53.1172 499.898 53.1172C499.488 53.1172 499.131 53.0508 498.826 52.918C498.525 52.7852 498.275 52.5938 498.076 52.3438C497.881 52.0898 497.734 51.7832 497.637 51.4238C497.539 51.0605 497.49 50.6484 497.49 50.1875V49.4727C497.49 49.0117 497.539 48.6016 497.637 48.2422C497.734 47.8789 497.881 47.5723 498.076 47.3223C498.275 47.0684 498.525 46.875 498.826 46.7422C499.131 46.6094 499.488 46.543 499.898 46.543C500.328 46.543 500.699 46.6348 501.012 46.8184C501.328 46.998 501.574 47.2598 501.75 47.6035C501.93 47.9434 502.027 48.3555 502.043 48.8398H501.07C501.055 48.5273 500.998 48.2676 500.9 48.0605C500.803 47.8496 500.67 47.6934 500.502 47.5918C500.334 47.4863 500.133 47.4336 499.898 47.4336C499.625 47.4336 499.398 47.4824 499.219 47.5801C499.043 47.6738 498.904 47.8105 498.803 47.9902C498.701 48.1699 498.629 48.3848 498.586 48.6348C498.547 48.8848 498.527 49.1641 498.527 49.4727V50.1875C498.527 50.4961 498.547 50.7773 498.586 51.0312C498.629 51.2812 498.699 51.4961 498.797 51.6758C498.898 51.8555 499.039 51.9941 499.219 52.0918C499.398 52.1855 499.625 52.2324 499.898 52.2324ZM505.523 46.6602V53H504.486V46.6602H505.523ZM507.252 46.6602V47.5391H502.781V46.6602H507.252Z" fill="white"/>
<defs>
<linearGradient id="paint0_linear_366_8348" x1="421.062" y1="50" x2="421.062" y2="210" gradientUnits="userSpaceOnUse">
<stop stop-color="#5397FD" stop-opacity="0.15"/>
<stop offset="1" stop-color="#5397FD" stop-opacity="0"/>
</linearGradient>
</defs>
</svg>
