<svg width="51" height="17" viewBox="0 0 51 17" fill="none" xmlns="http://www.w3.org/2000/svg">
<g clip-path="url(#clip0_1_505)">
<path d="M20.4202 0.911133L17.8292 16.1211H21.9742L24.5682 0.911133H20.4212H20.4202ZM14.3532 0.928133L10.2932 11.3011L9.86016 9.73513C9.06016 7.84813 6.78616 5.13713 4.11816 3.42913L7.83016 16.1141L12.2162 16.1061L18.7452 0.925133L14.3532 0.928133Z" fill="#0085F3"/>
<path d="M8.286 2.01741C8.046 1.09041 7.347 0.814414 6.48 0.781414H0.053L0 1.08441C5.001 2.29741 8.31 5.22141 9.684 8.73641L8.286 2.01741ZM32.97 3.82741C34.0332 3.80378 35.0897 4.00199 36.072 4.40941L36.446 4.58541L37.007 1.28941C36.187 0.980414 34.9 0.649414 33.294 0.649414C29.198 0.649414 26.31 2.71341 26.288 5.66941C26.261 7.85441 28.345 9.07441 29.918 9.80241C31.534 10.5484 32.075 11.0224 32.068 11.6894C32.055 12.7074 30.78 13.1744 29.588 13.1744C27.928 13.1744 27.047 12.9454 25.686 12.3784L25.151 12.1354L24.568 15.5394C25.538 15.9654 27.328 16.3304 29.187 16.3494C33.544 16.3494 36.377 14.3114 36.406 11.1524C36.424 9.42441 35.319 8.10541 32.923 7.02241C31.473 6.31741 30.586 5.84841 30.594 5.13541C30.594 4.50341 31.347 3.82741 32.97 3.82741ZM47.646 0.928414H44.443C43.448 0.928414 42.708 1.19941 42.271 2.19141L36.116 16.1304H40.469C40.469 16.1304 41.179 14.2564 41.34 13.8454L46.649 13.8514C46.772 14.3824 47.154 16.1304 47.154 16.1304H51L47.646 0.928414ZM42.533 10.7324C42.874 9.85941 44.185 6.48141 44.185 6.48141C44.162 6.52341 44.523 5.60141 44.737 5.02941L45.017 6.34041L45.977 10.7324H42.533Z" fill="#0085F3"/>
</g>
<defs>
<clipPath id="clip0_1_505">
<rect width="51" height="17" fill="white"/>
</clipPath>
</defs>
</svg>
