<svg width="30" height="19" viewBox="0 0 30 19" fill="none" xmlns="http://www.w3.org/2000/svg">
<g clip-path="url(#clip0_1_508)">
<path d="M18.9165 2.68652H11.0625V16.3135H18.9165V2.68652Z" fill="#FF5F00"/>
<path d="M11.5618 9.50073C11.5612 8.18503 11.8695 6.88756 12.4618 5.71273C13.0622 4.52419 13.927 3.48904 14.9898 2.68673C13.6538 1.67729 12.0666 1.05366 10.4008 0.883728C8.72968 0.70979 7.04272 0.993945 5.5208 1.70573C4.0176 2.40613 2.74068 3.51365 1.8348 4.90273C0.94402 6.27098 0.468856 7.86806 0.466797 9.50073C0.466797 11.1267 0.940797 12.7207 1.8348 14.0987C2.74045 15.4876 4.01699 16.5951 5.5198 17.2957C7.04202 18.0077 8.72935 18.2919 10.4008 18.1177C12.0666 17.9478 13.6538 17.3242 14.9898 16.3147C13.9275 15.5126 13.0631 14.4778 12.4628 13.2897C11.87 12.1147 11.5613 10.8169 11.5618 9.50073Z" fill="#EB001B"/>
<path d="M29.5123 9.49984C29.5123 11.1258 29.0383 12.7198 28.1453 14.0978C27.2394 15.487 25.9625 16.5945 24.4593 17.2948C22.9373 18.0067 21.2504 18.2908 19.5793 18.1168C17.9131 17.9471 16.3255 17.3234 14.9893 16.3138C16.0509 15.5109 16.9149 14.4758 17.5153 13.2878C18.108 12.113 18.4173 10.8157 18.4183 9.49984C18.4174 8.18439 18.1085 6.88742 17.5163 5.71284C16.916 4.52446 16.052 3.48908 14.9903 2.68584C16.3259 1.67657 17.9128 1.05295 19.5783 0.882837C21.2497 0.708714 22.937 0.992873 24.4593 1.70484C25.9625 2.40524 27.2394 3.51275 28.1453 4.90184C29.0357 6.2702 29.5105 7.86727 29.5123 9.49984ZM28.6563 14.8728V14.5928H28.7723V14.5368H28.4763V14.5928H28.5923V14.8728H28.6563ZM29.2323 14.8728V14.5358H29.1413L29.0363 14.7678L28.9313 14.5358H28.8413V14.8728H28.9053V14.6188L29.0033 14.8378H29.0703L29.1683 14.6178V14.8728H29.2323Z" fill="#F79E1B"/>
</g>
<defs>
<clipPath id="clip0_1_508">
<rect width="30" height="18" fill="white" transform="translate(0 0.5)"/>
</clipPath>
</defs>
</svg>
