<svg width="49" height="15" viewBox="0 0 49 15" fill="none" xmlns="http://www.w3.org/2000/svg">
<g clip-path="url(#clip0_1_512)">
<path fill-rule="evenodd" clip-rule="evenodd" d="M43.5002 0.5H34.2002C34.7002 3.6 37.7002 6.5 41.0002 6.5H48.4002C48.5002 6.2 48.5002 5.8 48.5002 5.5C48.5002 2.7 46.3002 0.5 43.5002 0.5Z" fill="url(#paint0_linear_1_512)"/>
<path fill-rule="evenodd" clip-rule="evenodd" d="M35 7V14.5H39.5V10.5H43.5C45.7 10.5 47.6 9 48.2 7H35ZM19 0.5V14.5H23C23 14.5 24 14.5 24.5 13.5L28 6.5H28.5V14.5H33V0.5H29C29 0.5 28 0.6 27.5 1.5L24 8.5H23.5V0.5H19ZM0 14.5V0.5H4.5C4.5 0.5 5.8 0.5 6.5 2.5C8.3 7.8 8.5 8.5 8.5 8.5C8.5 8.5 8.9 7.2 10.5 2.5C11.2 0.5 12.5 0.5 12.5 0.5H17V14.5H12.5V7H12L9.5 14.5H7.5L5 7H4.5V14.5H0Z" fill="#4DB45F"/>
</g>
<defs>
<linearGradient id="paint0_linear_1_512" x1="34.1742" y1="3.5" x2="48.5002" y2="3.5" gradientUnits="userSpaceOnUse">
<stop stop-color="#00B4E6"/>
<stop offset="1" stop-color="#088CCB"/>
</linearGradient>
<clipPath id="clip0_1_512">
<rect width="49" height="14" fill="white" transform="translate(0 0.5)"/>
</clipPath>
</defs>
</svg>
